<svg version="1.2" xmlns="http://www.w3.org/2000/svg" viewBox="0 0 1545 413" width="1545" height="413">
	<title>Bharat_Electronics_logo-svg</title>
	<style>
		.s0 { fill: #000000 } 
		.s1 { fill: #00aeef } 
	</style>
	<g id="layer1">
		<g id="g17568">
			<g id="g8682">
				<path id="path8684" fill-rule="evenodd" class="s0" d="m1418.4 324.4l1.2-0.1 1.4 0.1 1.6 0.2 1.7 0.3 1.9 0.3 1.9 0.5 2 0.6 2.1 0.7 2 0.6 1.9 0.9 1.8 0.9 1.8 1 1.6 1 1.5 1.2 1.1 1.2 1 1.3 0.6 1.3 0.3 1.4v1.4l-0.4 1.5-0.3 0.6-0.4 0.6-0.3 0.6-0.4 0.5-0.5 0.6-0.4 0.4-0.5 0.5-0.5 0.4-0.5 0.3-0.6 0.2-0.6 0.2-0.6 0.1h-0.6-0.6l-0.6-0.2-0.6-0.3-0.7-0.3-0.6-0.5-1.3-1.2-1.4-1.1-1.4-1.3-1.4-1-1.6-1-1.5-0.9-1.7-0.6-1-0.2-1.1-0.2-1-0.1-1.1-0.1-1.1 0.1-1 0.1-1.1 0.2-1.1 0.3-1 0.3-1 0.4-0.9 0.6-0.9 0.6-0.8 0.6-0.8 0.7-0.6 0.8-0.7 0.8-0.5 0.9-0.4 1.1-0.3 1-0.2 1.1-0.1 1.2 0.1 1.1 0.2 1.1 0.3 1.2 0.4 1 0.5 1.1 0.6 1 0.6 1 0.7 1 0.7 1 0.8 0.9 0.8 0.9 0.8 0.9 0.9 0.9 0.8 0.9 0.9 0.8 1.5 1.7 0.7 0.8 0.8 0.8 1.4 1.8 1.3 2 1.1 1.9 0.9 2 0.8 2 0.6 2 0.5 2 0.3 2.1 0.1 2v2l-0.2 2.1-0.4 2-0.6 1.9-0.7 1.9-0.9 1.9-1.1 1.8-1.2 1.9-1.4 1.7-1.6 1.6-1.8 1.6-1.7 1.3-1.8 1.1-1.8 1-1.8 0.9-1.8 0.8-2 0.6-1.8 0.5-2 0.4-2 0.2-1.9 0.2h-2-1.9l-2-0.2-2-0.3-2-0.4-2-0.5-1.9-0.5-2-0.6-1.9-0.7-1.9-0.8-1.2-0.6-1.2-0.6-1.2-0.7-1.2-0.6-1.1-0.7-1-0.7-1-0.8-0.9-0.8-0.8-0.8-0.7-0.9-0.6-0.9-0.5-0.9-0.3-1-0.2-1.1v-1.1l0.1-1.1 0.3-1.1 0.5-1.3 0.7-1.3 0.9-1.3 1.3-0.8 1.7-0.1 0.9 0.2 0.8 0.3 0.9 0.4 0.9 0.5 0.8 0.7 1 0.7 0.9 0.7 1 0.9 2.1 1.6 2.2 1.7 1.2 0.7 1.3 0.7 1.3 0.7 1.3 0.6 1.5 0.4 1.5 0.4 1.6 0.2 1.7 0.1 1.7-0.2 1.7-0.2 1.5-0.4 1.5-0.5 1.5-0.7 1.3-0.8 1.3-0.9 1.1-1 1-1.1 0.9-1.2 0.8-1.2 0.6-1.4 0.5-1.4 0.3-1.4 0.2-1.5v-1.6l-0.2-1.5-0.4-1.6-0.6-1.6-0.8-1.6-0.6-1.2-0.8-1.1-0.8-1.1-0.8-1.1-0.8-1-1-1-0.9-1-0.9-1-0.9-1-0.9-0.9-0.9-1.1-0.9-1-0.9-1-0.8-1-0.8-1.1-0.8-1-0.8-1.2-0.6-1.2-0.6-1.1-0.5-1.2-0.8-2.5-0.5-2.3-0.2-2.3v-2.3l0.4-2.2 0.5-2.1 0.8-2 1-2 1.2-1.9 1.4-1.7 1.6-1.7 1.7-1.5 1.8-1.4 2-1.3 2-1.1 2.1-1 2.2-0.8 2.2-0.7 2.2-0.5zm-96.6 44.6l-0.9 2.2-0.6 2.2-0.5 2.2-0.3 2.1-0.1 2.2-0.1 2.1 0.2 2.1 0.3 2 0.6 1.8 0.6 1.9 0.9 1.7 1.1 1.6 1.1 1.6 1.5 1.4 1.5 1.2 1.8 1 1.9 1 2.2 0.8 2.3 0.6 2.5 0.4h1.2 1.1l1.2-0.1 1.2-0.1 1.1-0.2 1.2-0.2 1.2-0.3 1.2-0.3 1.1-0.2 1.2-0.3 1.1-0.3 1.2-0.2 2.3-0.3h1.1l1.1 0.1 1.1 0.1 1 0.3 0.5 0.4v0.8l-0.2 1.4-0.8 2.3-1.2 2-1.4 1.7-1.7 1.5-2 1.1-2.1 1-2.3 0.6-2.5 0.5-2.5 0.2-2.6 0.1-2.7-0.1-2.7-0.2-2.7-0.5-2.6-0.5-2.6-0.6-2.4-0.8-2.2-0.9-2.2-0.9-1.9-1-1.6-1.1-2.3-1.7-2-1.8-1.7-2.1-1.4-2.1-1.2-2.2-1-2.4-0.6-2.3-0.6-2.5-0.3-2.6-0.1-2.5v-2.6l0.2-2.6 0.4-2.6 0.5-2.6 0.6-2.6 0.7-2.5 0.8-2.5 1-2.4 0.9-2.4 1.1-2.3 1.7-3.3 2.1-3.3 2.4-3.2 2.6-3.2 2.8-3 3-2.8 3.2-2.7 3.3-2.5 3.5-2.2 3.7-2 3.7-1.8 3.9-1.6 3.8-1.2 3.9-0.9 4-0.5 4-0.3 4 0.2 3.9 0.6 3.9 1 3.8 1.5 0.8 0.3 0.8 0.4 0.8 0.5 0.9 0.4 0.9 0.6 1 0.5 0.9 0.6 0.9 0.6 0.9 0.7 0.9 0.7 0.8 0.7 0.8 0.8 0.7 0.8 0.6 0.8 0.6 0.8 0.4 0.9 0.4 0.9 0.3 0.9 0.1 0.9v0.9l-0.2 1.1-0.4 1.4-0.7 1.4-0.8 1.3-0.9 1.2-0.9 0.9-1.1 0.5-1.6 0.5-1.1-0.2-1.1-0.9-1.1-1.1-0.9-1-0.8-1.1-1.6-2.1-0.7-0.9-0.8-0.9-0.9-0.9-1-0.8-1.1-0.8-1.3-0.8-1.6-0.6-3-0.8-3-0.5-3-0.1-3.1 0.3-3 0.7-2.9 0.9-3 1.3-2.9 1.4-2.9 1.7-2.7 1.9-2.7 2.1-2.6 2.2-2.4 2.4-2.2 2.4-2.2 2.6-1.9 2.6-1.8 2.6-1.5 2.7-1.4 2.5zm-41-39.7l0.4-0.7 0.6-0.6 0.5-0.5 0.6-0.6 0.6-0.5 0.8-0.4 0.7-0.4 0.9-0.4 0.7-0.2 0.9-0.3 0.8-0.2 0.9-0.1 0.8-0.1h0.9l0.8 0.1 0.8 0.1 0.9 0.2 0.8 0.2 0.7 0.3 0.7 0.4 1.1 0.7 0.7 0.7 0.2 0.5-0.2 0.8-0.5 1-42.5 77-0.4 0.6-0.4 0.6-0.5 0.5-0.4 0.3-0.5 0.4-0.6 0.2-0.5 0.1-0.5 0.1h-0.5l-0.5-0.1-0.5-0.2-0.6-0.2-0.4-0.3-0.5-0.3-0.5-0.4-0.8-1-0.4-0.6-0.3-0.5-24.2-48.5-0.7-0.8-1-0.2-1 0.2-0.7 0.8-26.7 48-0.5 0.6-0.6 0.7-0.7 0.5-0.7 0.4-0.9 0.3-1.8 0.6-0.9 0.1-1 0.1h-1-0.9-0.9l-0.9-0.1-0.8-0.1h-0.7l-1.4-0.3-0.9-0.3-0.4-0.5-0.2-0.8 0.1-1.1 0.7-2.5 1.1-2.6 1.2-2.3 37.9-68.5 0.4-0.5 0.4-0.6 0.4-0.5 0.5-0.5 0.4-0.4 0.5-0.3 0.5-0.4 0.6-0.2 0.5-0.2 0.5-0.1h0.6 0.5l0.5 0.2 0.5 0.3 0.5 0.3 0.5 0.5 0.4 0.6 0.4 0.7 23.8 48.4 0.5 0.8 0.7 0.7 0.8 0.5 0.8 0.2 0.8-0.1 0.8-0.4 0.6-0.9zm23.2 1.1l0.4-0.7 0.5-0.7 0.6-0.6 0.6-0.7 0.7-0.5 0.7-0.6 0.8-0.5 0.8-0.4 0.8-0.4 0.9-0.3 0.8-0.3 0.9-0.2 1-0.1h0.9 0.8l0.9 0.1 0.8 0.2 0.9 0.2 0.8 0.4 0.7 0.4 0.9 0.9 0.4 1.3 0.1 1.3-0.5 1.3-40.9 73.8-0.5 0.6-0.4 0.6-1.2 0.9-0.6 0.4-0.7 0.4-0.7 0.2-0.8 0.3-1.6 0.3h-0.8l-0.8 0.1h-0.8-0.8l-0.8-0.1-0.7-0.1-0.7-0.1-0.7-0.1-0.9-0.4-0.8-0.4-0.6-0.6-0.4-0.7-0.1-0.7 0.1-0.8 0.2-0.9 0.5-0.9zm-346.8 76.6l-0.7 0.9-0.8 0.6-1 0.6-1.1 0.5-1.2 0.3-1.2 0.2-1.2 0.2-1.2 0.2-1.1 0.1h-1l-1.5 0.2-1.6 0.1-1.6 0.1-3.2 0.1-1.7-0.1-3.2-0.2-1.6-0.2-1.7-0.2-1.6-0.4-1.5-0.4-1.6-0.4-1.5-0.6-1.4-0.6-1.4-0.7-1.4-0.8-1.4-0.9-1.2-1-1.2-1.1-1.9-2.2-1.7-2.3-1.3-2.4-1.1-2.4-0.8-2.6-0.5-2.5-0.3-2.7-0.1-2.6 0.1-2.7 0.3-2.6 0.5-2.7 0.6-2.7 0.9-2.6 1-2.6 1-2.6 1.1-2.5 1.3-2.4 1.3-2.4 1.4-2.3 1.5-2.1 1.7-2.4 1.8-2.3 1.9-2.3 1.9-2.2 2-2 2.1-2.1 2.1-1.9 2.3-1.7 2.3-1.8 2.3-1.6 2.5-1.5 2.5-1.3 2.6-1.3 2.6-1.1 2.7-1 2.7-0.8 2.8-0.7 2.9-0.6 3-0.3 2.9-0.3h2.1l2.2 0.1 2.3 0.2 2.4 0.3 2.3 0.5 2.4 0.6 2.2 0.7 2.2 0.9 2.1 1 1.8 1.1 1.7 1.3 1.4 1.4 1.1 1.6 0.8 1.6 0.5 1.8v1.9l-0.4 2-0.8 2.2-1.4 2.3-1.9 2.4-1.2 0.9-1.6 0.1-1.4-0.5-0.9-1.1-0.9-1.6-0.9-1.6-1.1-1.3-1.1-1.2-1.2-1.1-1.2-0.8-1.3-0.8-1.4-0.7-1.4-0.5-1.5-0.4-1.5-0.3-1.6-0.1-1.5-0.2-1.6 0.1-1.6 0.1-1.7 0.2-1.6 0.3-1.6 0.4-1.6 0.4-1.6 0.6-2.5 0.9-2.4 1.1-2.3 1.2-2.3 1.4-2.3 1.5-2.2 1.6-2.1 1.8-1.9 1.8-1.9 1.9-1.9 2.1-1.7 2.1-1.7 2.2-1.5 2.3-1.4 2.3-1.2 2.3-1.2 2.5-1 2.5-0.9 2.5-0.8 2.5-0.5 2.6-0.3 2v2l0.2 1.9 0.3 1.9 0.6 1.8 0.8 1.6 0.9 1.6 1.1 1.5 1.2 1.4 1.3 1.2 1.5 1.2 1.6 1 1.7 0.8 1.7 0.7 1.9 0.5 1.8 0.4 1.9 0.2h1.9l2-0.3 2-0.4 11.9-3.3 1.1 0.1 0.9 0.9 0.6 1.1-0.3 1.1zm89.7-82.7l3.1 0.1 3.3 0.1 3 0.6 1.4 0.6 0.7 0.6 0.3 1.1-0.2 1.3-0.6 1.7-0.6 1.4-0.7 1.2-0.7 1-0.9 0.9-0.9 0.7-0.9 0.6-1 0.5-1 0.2-1.1 0.3-1.1 0.2h-1.2l-1.2 0.1h-1.2l-1.3 0.1h-1.2-1.3l-1.3 0.1h-1.4l-1.3 0.3-1.6 0.5-1.2 1.1-2.1 2.4-1.8 2.5-33.6 58.1-0.4 0.7-0.5 0.6-0.5 0.5-0.6 0.4-0.7 0.4-0.6 0.4-0.7 0.2-0.8 0.3-0.7 0.2-0.8 0.1-1.5 0.1h-0.8-0.8-0.8l-0.7-0.1-0.8-0.1-0.7-0.2-1.8-0.5-0.9-0.7v-1.1l0.5-1.8 1.4-3.3 1.5-3.1 30.1-51.8 0.7-2.1 0.2-2.1-0.3-1.4-0.7-0.6-1.6-0.2-10.4-0.7-1.2-0.1-0.7-0.3-0.2-0.5 0.2-0.9 0.5-1.4 2.6-5.8 0.5-1 0.4-0.7 0.6-0.5 0.7-0.3 0.9-0.2 1.2-0.2h1.7zm-127 0l2 0.1 2.1 0.4 1.8 0.6 1 0.8 0.4 0.8-0.3 1.2-0.2 0.7-0.3 0.9-0.4 0.8-0.4 0.8-0.4 0.8-0.5 0.8-0.5 0.8-0.6 0.7-0.7 0.7-0.7 0.6-0.7 0.4-0.8 0.4-0.8 0.2-0.9 0.2-20.6 0.2-0.7 0.1-0.8 0.3-0.8 0.4-0.8 0.6-0.8 0.7-0.7 0.9-0.9 1-0.7 0.9-0.9 1.1-0.6 1.1-0.8 1.2-0.7 1.2-0.6 1.2-0.6 1.1-0.6 1.1-0.5 1.1-0.4 1-0.3 0.9-0.3 0.7-0.2 0.7-0.3 1.6 0.1 1 0.5 0.5 1.3 0.3 1.3 0.2 1.6 0.1 1.6 0.1h1.6l1.7-0.1h1.8 1.7 1.6l1.6 0.2 1.5 0.2 1.3 0.2 1.2 0.5 1.2 0.6 0.6 0.7 0.1 0.7-0.3 1.2-0.3 0.9-0.4 1-0.6 1.1-0.8 1.2-0.8 1.1-0.9 1-0.9 0.8-1 0.5-0.9 0.2-22.7 0.3-1.1 0.1-0.8 0.2-0.8 0.7-0.8 1-0.9 1.7-8.3 14.5-0.3 0.9-0.1 1.1 0.2 1.1 0.4 1.1 0.6 0.8 0.9 0.3 17.5 0.7 1.5 0.2 0.9 0.6 0.4 1-0.2 1.5-0.1 0.7-0.3 0.8-0.4 0.7-0.3 0.7-0.6 0.7-0.5 0.8-0.6 0.6-0.6 0.6-0.7 0.5-0.7 0.6-0.8 0.4-0.7 0.3-0.8 0.3-0.8 0.1-0.7 0.1-33.1 0.4-0.9-0.4-1-0.6-1-0.8-0.6-0.7-0.1-0.7 0.2-0.7 0.5-1.1 39.8-70.6 1-1.7 0.8-1.3 0.7-1 0.6-0.8 0.6-0.6 0.6-0.3 0.6-0.3h0.8l0.8-0.1zm-83.7 4.8l0.4-0.8 0.6-0.6 0.6-0.6 0.6-0.6 0.7-0.5 1.5-0.7 0.9-0.3 0.8-0.3 0.9-0.2 0.8-0.1 1-0.1h1.8l0.9 0.1 0.8 0.1 0.8 0.1 0.9 0.3 0.8 0.2 0.7 0.3 0.9 0.7 0.4 0.9 0.1 1.1-0.2 1.1-0.4 1-0.4 1-32.5 56-0.4 0.8-0.4 0.9-0.2 0.9-0.2 1v1l0.2 0.8 0.4 0.7 0.7 0.5 0.9 0.2 14.5 0.8 1 0.4 0.9 1.2 0.2 1.3-0.5 1.7-0.4 0.9-0.4 0.8-0.6 0.9-0.5 0.8-0.7 0.8-0.7 0.8-0.8 0.6-0.8 0.6-0.9 0.4-0.9 0.3-0.9 0.1-30-0.2h-1l-0.8-0.3-0.7-0.4-0.7-0.6-0.4-0.6-0.2-0.8-0.1-0.9 0.1-0.9 0.5-0.9zm-12.3-4.7h0.9l1 0.1 0.9 0.3 0.9 0.4 0.7 0.5 0.6 0.5 0.5 0.8 0.2 0.8-0.2 1-0.3 1-0.7 1.3-1 1.6-1.1 1.5-1.2 1.4-1.1 0.9-0.9 0.4-23.8 0.3h-1.4l-1 0.2-0.8 0.3-0.7 0.6-0.7 0.9-0.8 1.3-6.6 11.6-0.4 0.7-0.3 0.8-0.2 0.9-0.1 0.7 0.1 0.8 0.2 0.7 0.4 0.6 0.5 0.5 0.7 0.4 1 0.1 17.6 0.4 1.1 0.3 0.9 0.5 0.6 0.7 0.2 1 0.1 1-0.2 1-0.3 1-0.5 1-0.6 1-0.7 1-0.8 1-0.9 0.7-0.9 0.7-1 0.5-1 0.1-22.7 0.3-1.2 0.2-1.1 0.7-1.1 0.9-0.9 1.1-1 1.2-0.8 1.2-0.7 1.2-0.5 0.9-6.3 11.7-0.8 1.7-0.2 1.1 0.5 1 0.2 0.4 0.6 0.8 0.9 0.4 1.3 0.1 16.5-0.2h1l0.8 0.3 0.7 0.4 0.6 0.7 0.4 0.7 0.3 0.7v1l-0.2 0.9-0.3 0.8-0.4 0.9-0.5 1-0.5 0.9-0.6 0.8-0.7 0.8-0.8 0.7-0.8 0.5-0.9 0.3-1 0.2-35.1 0.4-0.9-0.1-0.7-0.1-0.7-0.1-0.7-0.2-0.5-0.4-0.5-0.3-0.4-0.5-0.3-0.5-0.1-0.6v-0.6-0.7l0.3-0.8 0.4-0.9 39.5-70.6 1-1.6 0.8-1.4 0.7-1.1 0.6-0.7 0.6-0.4 0.6-0.3 0.8-0.1 0.8-0.1zm-72.3 0l1.1 0.2 1 0.4 1.9 0.4 0.7 0.5 0.2 1-0.2 1.4-0.8 2.1-1 1.6-1 1.4-1.2 1.1-1.2 0.7-1.4 0.7-1.4 0.3-1.5 0.3-1.5 0.1-1.5 0.1h-1.6l-1.5 0.1-1.5 0.1-1.5 0.1-1.4 0.4-1.4 0.4-1.3 0.6-1.2 0.9-1.1 1.2-1 1.4-34.3 60.6-0.8 1.4-0.6 1-0.7 0.7-0.6 0.5-0.7 0.3-0.9 0.1-1 0.1-7.2 0.1-1.3-0.1-0.8-0.4-0.6-0.8-0.4-0.6-0.4-1 0.1-0.9 0.7-1.4 32.7-57.9 1.1-2 0.2-1.3-0.3-1-0.2-0.2-0.8-1.2-1.4-0.3-11.9-1-1-0.1-0.5-0.4-0.2-0.5v-0.9l0.4-1.5 0.2-0.8 0.4-0.9 0.4-0.9 0.4-0.9 0.5-0.9 0.7-0.9 0.6-0.8 0.7-0.7 0.8-0.6 0.8-0.4 0.9-0.4h0.9zm-326.7 5.1l0.4-0.7 0.5-0.7 0.5-0.5 0.6-0.6 0.6-0.4 0.6-0.5 0.7-0.3 0.7-0.3 0.7-0.3 0.7-0.3 0.8-0.2 0.8-0.1 0.8-0.1 0.7-0.1 0.8 0.1h0.8l0.8 0.1 0.8 0.1 0.8 0.1 0.8 0.3 1.6 0.7 0.8 0.9 0.2 1.3-0.6 1.5-12.1 20.4-1 2.1-0.6 2.2-0.2 1.8 0.4 1.3 1.2 0.8 1.4 0.4 25.9 0.2 1.3-0.4 1.5-0.8 1.5-1.2 1.3-1.2 0.8-1.1 15.1-26.1 0.8-1.4 0.7-0.9 0.7-0.6 0.7-0.4 0.8-0.1 1.2-0.1h6.2 0.8l0.9 0.2 0.7 0.3 0.6 0.5 0.5 0.5 0.4 0.6 0.2 0.7v0.8l-0.1 0.8-0.4 0.9-42.9 73.9-0.5 0.7-0.5 0.6-0.8 0.5-0.7 0.4-0.9 0.3-0.9 0.3-0.9 0.2-0.9 0.1h-1l-1 0.1-0.9-0.1h-0.9-0.9l-0.8-0.2h-0.8l-1-0.4-0.8-0.6-0.5-0.9-0.1-1 0.2-1 0.4-1.1 12.6-21.6 1.1-1.9 0.8-2.2 0.5-2.2v-1.3l-0.6-0.7-1.6-0.6-2.1-0.6-2.1-0.4-23.9 0.3-1.1 0.1-0.7 0.2-0.7 0.3-0.7 0.7-0.7 1-0.9 1.5-17.1 29.2-0.9 1.5-0.7 1.1-0.8 0.5-0.8 0.3h-1.1l-7.3 0.1h-0.9l-0.8-0.3-0.7-0.5-0.6-0.5-0.3-0.7-0.2-0.8 0.1-0.9 0.3-0.9zm250.4-3.9l0.7-0.5 0.7-0.4 0.7-0.3 0.8-0.1h0.8l0.7 0.1 0.7 0.3 0.5 0.4 0.4 0.6 0.1 0.8v1l-11.8 73.7-0.2 1.3-0.3 0.9-0.4 0.6-0.6 0.4-0.9 0.2-1.2 0.2-6.2 0.5-0.9-0.1-0.9-0.1-0.6-0.3-0.5-0.4-0.4-0.6-0.3-0.6-0.3-0.7-0.2-0.8v-0.9l-0.1-0.8v-1-0.9l0.1-0.9v-1l0.2-0.8v-0.9-0.8-0.7-0.6l-0.2-0.6-0.4-1-0.7-0.9-0.9-0.6-1-0.5-1.2-0.2h-1.2l-19.6 0.2-2 0.1-1.2 0.2-1.1 0.6-1.1 0.9-13.9 13.2-0.6 0.5-0.8 0.4-1.1 0.3-1.1 0.3-1.2 0.2-1.3 0.1-1.5 0.2h-1.3-1.4-1.2l-1.3-0.1h-1.1l-1-0.2-0.7-0.2-1.6-0.5-0.5-0.7 0.3-1.2 1-1.7 1.2-1.6 1.3-1.4zm-30.5 52.3l9.5-0.1 1.6-0.4 1.4-0.9 1.1-1.2 0.7-1.4 0.5-1.5 0.4-1.8 0.4-1.8 0.2-1.9 0.1-1.8 0.1-1.8v-1.5-1.2l-0.4-0.6-0.6-0.3h-0.7l-0.8 0.3-0.8 0.5-0.8 0.5-0.7 0.7-12.7 12.5-0.6 1 0.3 1.3 0.7 1zm-113.2-49l2.1-1.7 2.1-1.7 0.9-0.6 1.1-0.5 1.1-0.2 0.7 0.2 0.7 0.4 0.5 0.5 0.3 0.6 0.3 0.8 0.2 0.8v0.9 0.9l-0.1 0.7-12.1 72.7-0.3 1.4-0.3 1-0.4 0.7-0.7 0.4-0.9 0.2h-1.2l-6.2 0.1h-1.1l-1.1-0.1h-0.8l-0.5-0.2-0.4-0.3-0.4-0.3-0.1-0.5-0.1-0.7 0.1-0.8v-0.9l1.1-8.3-0.4-1.5-0.8-1.3-1.9-1.2-2-0.5-20.7 0.2-1.8 0.1-1.2 0.5-1.2 1-14.3 13-1.5 1.4-1.2 0.5-1.3 0.1-11.5 0.2-1.2-0.3-0.8-1.1-0.2-1.3 0.7-1.1zm-28.1 47.1l-0.3 1.1 0.1 0.7 0.8 0.5 1.5 0.5 2 0.4 1.8 0.3 1.7 0.1 1.4-0.1 1.4-0.2 1.1-0.4 1-0.6 0.9-0.6 0.7-0.8 0.6-0.9 0.6-1 0.4-1.1 0.4-1.2 0.2-1.3 0.3-1.4 0.1-1.4 0.2-1.5v-1.5l0.1-1.7 0.1-1.6-0.2-0.9-0.5-0.5-0.6 0.1-1.4 0.8-1.4 0.8-1.3 1-1.4 1.1-1.3 1.2-1.4 1.2-1.2 1.3-1.2 1.3-1.3 1.3-1 1.3-1.1 1.3-1 1.3-0.5 0.6zm655.9-51.7l4.2 0.1 3.8 0.4 3.6 0.8 3.2 1.1 3 1.3 2.6 1.6 2.5 1.8 2.1 2.1 1.9 2.3 1.5 2.5 1.3 2.7 1.1 2.8 0.8 3.1 0.5 3 0.3 3.3 0.1 3.3-0.2 3.5-0.5 3.5-0.6 3.6-0.9 3.5-1 3.1-1.3 3.2-1.5 3-1.9 3.1-1.9 2.9-2.2 2.9-2.5 2.7-2.6 2.7-2.6 2.5-2.9 2.4-3 2.2-3.1 2.1-3.2 1.9-3.3 1.6-3.3 1.6-3.3 1.2-3.3 1-3.4 0.7-3.3 0.5-3.3 0.2-4.8-0.1-4.5-0.6-4.2-0.8-3.8-1.3-3.5-1.5-3.2-1.8-2.9-2.2-2.5-2.4-2.3-2.6-1.9-2.9-1.4-3.1-1.2-3.3-0.9-3.5-0.4-3.6v-3.8l0.3-3.9 0.7-4 1-4.1 1.5-4.1 1.8-4.3 1.6-2.8 1.7-2.9 1.9-2.7 2.1-2.6 2.2-2.5 2.4-2.4 2.5-2.2 2.7-2.2 2.7-2 2.9-1.9 3-1.7 3.1-1.6 3.1-1.4 3.2-1.2 3.2-1.2 3.3-0.9 3.3-0.7 3.3-0.6 3.4-0.3zm-12.3 13.9l-2.5 1-2.5 1.2-2.5 1.2-2.3 1.4-2.3 1.4-2.1 1.7-2.1 1.7-2 1.8-1.9 2-1.8 2-1.6 2.1-1.6 2.2-1.5 2.3-1.3 2.3-1.2 2.4-1.2 2.5-1 2.5-0.8 2.6-0.7 2.7-0.6 2.6-0.4 3-0.1 2.8 0.3 2.6 0.6 2.3 1 2.1 1.1 1.9 1.5 1.7 1.7 1.5 1.8 1.2 2.1 1.1 2.2 0.9 2.3 0.6 2.4 0.5 2.5 0.3h2.6l2.6-0.2 2.5-0.3 2.6-0.5 2.6-0.8 2.4-0.9 2.1-0.9 2-1.1 2.1-1.2 2-1.3 2-1.4 1.9-1.5 1.8-1.7 1.9-1.7 1.7-1.8 1.6-1.9 1.7-1.9 1.4-2.1 1.4-2 1.3-2.1 1.2-2.2 1-2.2 0.9-2.2 0.8-2.3 0.6-2.2 0.5-2.2 0.4-2.7v-2.7l-0.2-2.5-0.5-2.4-0.7-2.2-1-2-1.1-1.9-1.4-1.7-1.6-1.5-1.7-1.4-1.9-1.2-2-1-2-0.7-2.3-0.7-2.3-0.3-2.4-0.2-2.5 0.1-2.4 0.3-2.5 0.5zm-82.4-9.3l0.7-1.3 0.7-0.8 0.8-0.4 1.1-0.2h1.5l16.5-0.2 1-0.1 1 0.2 1 0.1 1.1 0.2 1 0.3 1.1 0.3 0.9 0.4 1 0.4 1 0.4 0.9 0.5 0.9 0.6 1 0.6 0.8 0.6 0.8 0.6 0.7 0.7 1.8 2 1.4 2.3 1.1 2.3 0.7 2.4 0.4 2.5 0.1 2.6-0.3 2.6-0.4 2.6-0.8 2.7-0.9 2.5-1.2 2.5-1.4 2.5-1.6 2.3-1.7 2.2-1.8 2-2 1.8-2.1 1.7-2.2 1.4-2.3 1.2-2.3 0.9-9.6 3.1-1.2 0.4-0.7 0.5-0.5 0.5-0.2 0.8 0.1 1 0.3 1.4 5 21.5v1.1l-0.5 1.3-0.7 1-1 0.6-1.5 0.5-1.6 0.2-1.7 0.1-1.6-0.1-1.6-0.3-1.4-0.5-1.4-0.9-1.3-1.2-0.7-1.5-6-23.8-0.2-0.9-0.4-0.7-0.4-0.5-0.4-0.5-0.5-0.3-0.6-0.2-0.5-0.1-0.6 0.1-0.5 0.2-0.6 0.3-0.5 0.5-0.5 0.5-0.5 0.8-14.5 24.9-0.3 0.6-0.5 0.6-0.5 0.5-0.6 0.5-0.7 0.4-0.7 0.3-0.6 0.3-0.8 0.2-0.7 0.2-1.5 0.3h-0.8l-0.8 0.1-1.5-0.1-0.7-0.1-0.7-0.2-0.8-0.1-1.4-0.5-0.6-0.7-0.1-1.1 0.3-2.1 0.8-2.2 1-1.9zm12.2 9.9l-1.5 0.2-0.9 0.4-0.8 1.1-11.7 19.2-0.5 1-0.2 1 0.1 1.1 0.2 1 0.5 0.9 0.7 0.6 1 0.4 1.5 0.2 1.6 0.1h1.5l1.5-0.1 1.4-0.2 1.5-0.2 1.3-0.4 1.4-0.4 1.3-0.6 1.3-0.6 1.2-0.6 1.2-0.8 1.2-0.8 1.1-0.9 1-1.1 1.1-1 0.9-1.1 1-1.3 0.8-1.2 0.8-1.4 0.4-0.7 0.6-1.7 0.2-0.9 0.2-0.9 0.1-1v-1l-0.1-1.9-0.2-1-0.2-0.9-0.3-0.8-0.5-0.8-0.5-0.7-0.6-0.6-0.7-0.6-0.7-0.4-1-0.4-0.9-0.2-1.1-0.1zm-499.3-11.2l1-1.1 1.5-1.1 1.7-0.8 1.5-0.3 21.6 0.4 1.8 0.1 1.7 0.4 1.5 0.6 1.5 0.7 1.3 0.9 1.1 1 1.1 1.2 0.9 1.3 0.8 1.4 0.7 1.5 0.6 1.6 0.4 1.6 0.3 1.7 0.2 1.7 0.1 1.7v1.7l-0.2 1.6-0.3 1.7-0.4 1.6-0.5 1.5-0.7 1.5-0.6 1.4-0.8 1.5-0.7 1.3-0.8 1.3-0.9 1.3-0.9 1.3-1 1.2-0.9 1.2-2.2 2.2-1.1 1-1.2 1-1.2 1-1.3 0.8-1.3 0.9-1.4 0.8-1.4 0.7-1.4 0.7-1.5 0.7-2.5 0.8-2.6 0.8-2.6 0.8-2.5 1.1-1 0.7-0.4 0.8-0.2 1.3 0.1 1 0.1 2.2 0.2 1.2 0.1 1.2 0.2 1.1 0.2 1.2 0.3 1.1 0.3 1.2 0.3 1.2 0.3 1.1 0.4 1.1 0.4 1.1 0.4 1.1 0.5 1 0.5 1 0.5 1 0.6 0.8 0.2 0.6 0.2 0.7 0.2 0.7v0.9l-0.1 0.8-0.1 0.8-0.2 0.8-0.3 0.7-0.4 0.8-0.4 0.6-0.5 0.5-0.7 0.4-0.6 0.3-0.8 0.1-6.2 0.1h-1.2l-1-0.2-0.7-0.3-0.4-0.6-0.4-0.8-0.3-1.2-5.6-23.1-0.2-0.8-0.3-0.7-0.4-0.6-0.4-0.6-0.5-0.5-0.5-0.3-0.6-0.4-0.5-0.1h-0.6l-0.6 0.1-0.6 0.3-0.6 0.4-0.5 0.6-0.5 0.7-14.6 25.1-0.7 1.2-0.7 0.8-0.7 0.6-0.7 0.4-1 0.1-1.3 0.1-6.2 0.1-1-0.1-0.7-0.4-0.6-0.4-0.5-0.6-0.3-0.7-0.1-0.8v-0.8l0.2-0.8 0.4-0.8zm-1.9 30l-0.4 1v1.1l0.1 1 0.5 1 0.7 0.8 1 0.5 1.5 0.5 1.7 0.1 1.7 0.1 1.9-0.2 1.9-0.5 1.9-0.6 1.9-0.7 1.9-0.9 1.9-1 1.8-1.2 1.7-1.3 1.5-1.4 1.5-1.4 1.2-1.6 1-1.5 0.9-1.7 0.6-1.7 0.3-1.7v-1.7l-0.3-1.7-0.3-1.2-0.6-1-0.6-1-0.8-0.7-0.9-0.7-1-0.7-1.1-0.4-1-0.4-1.2-0.2-1.2-0.2h-1.2l-1.2 0.1-1.1 0.1-1.2 0.4-1.1 0.4-1 0.5-1 0.6-0.9 0.7-0.7 0.9-0.6 0.9zm-190.2 11.9l2.7 9.3 0.4 1.8 0.1 1.9-0.2 1.9-0.4 1.9-0.7 2-0.9 1.9-1 1.9-1.2 1.8-1.4 1.8-1.6 1.8-1.6 1.5-1.7 1.5-1.8 1.5-1.9 1.2-1.8 1.1-2 1-1.8 0.7-1.9 0.6-1.8 0.4-1.7 0.1-39.3 0.5-2-0.3-2.1-0.6-1-0.5-0.7-1.1v-1.1l0.7-1.6 42-74 0.5-0.7 0.5-0.6 0.6-0.6 0.7-0.4 0.7-0.4 0.8-0.4 0.8-0.3 0.8-0.2 0.9-0.1 0.9-0.2h0.9l0.9-0.1h2.7 0.9 0.8 0.9 0.7 0.8 1.2 1.1 1.1 1.3 1.1l1.2 0.1h1.2l1.2 0.1 1.2 0.2 1.2 0.1 1.2 0.2 1.2 0.2 1.1 0.3 1.1 0.3 1.1 0.4 1.1 0.5 1 0.5 1.4 0.9 1.2 0.9 1.1 1.2 0.9 1.2 0.9 1.3 0.7 1.5 0.5 1.4 0.5 1.6 0.2 1.6 0.2 1.6v1.6l-0.1 1.6-0.3 1.6-0.3 1.7-0.5 1.5-0.6 1.5-0.8 1.5-0.8 1.2-1 1.4-1.2 1.1-11.5 10.4-1 1-0.6 0.9v0.9zm-44.1 20.1l-0.1 0.6-0.1 0.5-0.3 2.4v1.1l0.9 0.9 1.5 0.5 1.6 0.2 1.5 0.2 1.7 0.2 1.5 0.2h1.6l1.6 0.1 1.5-0.1 1.6-0.1 1.5-0.2 1.5-0.2 1.5-0.4 1.5-0.4 1.4-0.5 1.4-0.6 1.3-0.7 1.3-0.8 1.2-0.9 1.2-1 1.1-1.1 1-1.2 0.5-0.7 0.5-0.9 0.4-0.9 0.3-0.9 0.3-1.1 0.1-1 0.1-1.1v-1l-0.1-1-0.3-1-0.2-0.9-0.4-0.9-0.6-0.9-0.8-0.9-0.9-0.8-1-0.8-1.2-0.7-1.1-0.7-1.3-0.6-1.4-0.5-1.3-0.4-1.5-0.3-1.3-0.3-1.4-0.1h-1.4l-1.4 0.2-1.2 0.3-1.2 0.4-1.2 0.6-0.9 0.7-0.9 0.9-0.7 1zm32.4-52l-0.6 0.2-0.6 0.4-0.7 0.5-0.7 0.6-0.6 0.8-0.8 0.8-0.7 0.9-0.8 1-0.7 1-0.7 1-0.7 1.1-1.2 2.1-0.6 1.1-0.5 1-0.4 1-0.4 0.9-0.3 0.8-0.2 0.8-0.1 0.6-0.1 1.3 0.1 0.9 0.4 0.6 0.7 0.3 1.2 0.3 1.2 0.2 1.2 0.1 1.2 0.1h2.5l1.2-0.1 2.5-0.4 1.1-0.3 1.2-0.4 1.1-0.4 1.1-0.5 1.1-0.6 1-0.6 1-0.8 0.9-0.8 0.8-0.9 0.8-0.9 0.7-1.1 0.7-1.1 0.5-1.3 0.4-1.2 0.2-1.2v-1.1l-0.1-1-0.3-1-0.4-0.9-0.5-0.7-0.6-0.8-0.8-0.7-0.8-0.6-0.9-0.5-1.1-0.4-1-0.3-2.2-0.4h-1.2l-1.1 0.1-1.2 0.2zm164.9-144.5l-1.6 0.1-1.1 0.1-0.7 0.7-0.6 1-36.7 64.3-0.5 0.9-0.5 0.8-0.6 0.8-0.6 0.7-0.6 0.6-1.3 1.2-0.7 0.5-0.7 0.4-0.7 0.4-0.8 0.3-0.7 0.2-0.9 0.2-0.8 0.2-0.8 0.1h-0.9-0.9l-2-0.2-1-0.2-1.2-0.6-0.9-1.1-0.1-1.3 0.7-1.6 12.7-22.8 0.4-1 0.2-0.9 0.1-0.8-0.2-0.7-0.4-0.6-0.7-0.4-0.7-0.4-1.1-0.2-0.8 0.1-1 0.2-0.9 0.5-1 0.6-1.1 0.8-1.1 0.9-1 1-1.2 1.2-1.1 1.1-1.2 1.3-1 1.4-1.2 1.3-1.1 1.3-1 1.2-1 1.3-1.1 1.1-0.8 1.1-0.9 1-0.9 0.9-0.7 0.6-2 1.8-2.1 1.7-2.2 1.6-2.4 1.6-2.4 1.4-2.5 1.3-2.5 1.3-2.5 1.1-2.6 1-2.7 0.8-2.8 0.7-2.7 0.5-2.6 0.3-2.8 0.2h-2.7l-2.7-0.2-2.8-0.5-2.6-0.7-2.7-0.8-2.6-1.2-2.9-1.7-2.4-1.9-1.7-2.3-1.4-2.4-0.8-2.5-0.4-2.8 0.1-2.8 0.5-2.9 0.9-2.9 1.2-2.8 1.6-2.8 1.8-2.6 2.2-2.5 2.4-2.3 2.6-2.1 2.8-1.8 2.9-1.4 3.2-1.1 3.3-0.7 3.3-0.3 35.1-0.6h0.9l0.7-0.2 0.7-0.3 0.7-0.3 0.6-0.4 0.5-0.4 0.6-0.6 0.9-1.2 0.4-0.7 0.6-1.5 0.2-0.7 0.3-0.8 0.2-0.7 0.1-0.8 0.2-0.8 0.1-0.7 0.1-0.7v-0.7l0.1-1.2v-1.3l-0.1-1.1-0.2-1.2-0.2-1.1-0.4-1-0.4-1-0.4-1.1-0.5-0.9-0.6-0.9-0.7-0.8-0.8-0.7-0.7-0.7-0.9-0.7-0.9-0.5-1-0.6-1.1-0.4-1.1-0.4-1.2-0.3-1.2-0.1h-0.8-0.9l-0.9 0.1-1.1 0.2-1 0.3-1 0.3-1 0.4-1.1 0.5-0.9 0.5-0.9 0.6-0.9 0.6-0.7 0.6-0.6 0.8-0.5 0.8-0.4 0.8-0.1 0.8 0.1 0.9 0.2 0.9 0.6 0.9 0.7 0.9 0.9 0.7 1 0.5 3.1 0.7 3.3 0.5 0.9 0.5 0.2 1.4v1.2l-0.3 1.1-0.4 1-0.4 0.9-0.5 0.8-0.6 0.8-0.7 0.5-0.8 0.6-0.8 0.4-0.9 0.4-0.9 0.2-1 0.3-1 0.2h-1.1-1-1l-1.1-0.1-1-0.2-1-0.2-0.9-0.2-1.2-0.4-1.1-0.4-1-0.5-1.1-0.6-0.9-0.7-0.9-0.7-0.8-0.7-0.8-0.8-0.7-0.9-0.6-0.9-0.5-1-0.5-1-0.4-1-0.3-1.1-0.3-1.1-0.2-1.1-0.1-1.2v-1.2l0.1-1.1 0.2-1.2 0.8-2.8 1.1-2.5 1.5-2.2 1.9-2 2.2-1.8 2.3-1.4 2.6-1.3 2.7-1 2.9-0.8 2.9-0.5 3.1-0.3h3l3.1 0.2 3 0.4 2.8 0.6 2.8 0.9 2.6 1 2.4 1.3 2.2 1.5 1.8 1.7 1.6 1.8 1.3 1.6 1.1 1.6 0.9 1.6 0.6 1.5 0.4 1.4 0.4 1.3 0.2 1.4 0.1 1.3-0.1 1.3v1.2l-0.1 1.3-0.2 1.3-0.2 1.4-0.1 1.3-0.1 1.4v1.4 1.6l0.2 1.5 0.2 1.6 0.5 1.3 0.7 0.6 1.5 0.3h1.3l1.4-0.2 1.5-0.4 1.3-0.7 0.9-1 10.6-18.6 0.4-0.6 0.2-0.6 0.5-1.4 0.1-0.8 0.1-0.7v-0.6l-0.1-0.6-0.2-0.6-0.3-0.5-0.5-0.5-0.6-0.3-0.7-0.2-0.9-0.1-13.4-0.4-1.1-0.1-0.7-0.4-0.6-0.5-0.4-0.5-0.2-0.7v-0.8l0.2-0.8 0.4-0.8 0.5-0.7 1.4-1.2 1.7-1 1.7-0.5 240.6 0.3 1.2 0.2 0.9 0.8 0.4 1-0.2 1.4-0.2 0.6-0.3 0.6-0.5 0.4-0.5 0.5-1.1 0.8-0.7 0.4-0.7 0.3-1.6 0.7-0.8 0.3-0.7 0.4-0.9 0.4-0.7 0.4-0.8 0.6-0.7 0.5-0.7 0.5-0.6 0.7-0.6 0.8-0.5 0.8-36.4 64.6-0.4 0.7-0.5 0.6-0.5 0.5-0.6 0.5-0.6 0.4-0.7 0.4-1.4 0.5-1.6 0.4-0.7 0.1-0.9 0.1-0.8 0.1h-0.8-0.8l-1.5-0.1-0.7-0.1h-0.7l-0.8-0.2-1-0.3-0.8-0.6-0.7-0.7-0.3-0.9v-1l0.4-1.1 18.5-32.4 0.7-1.7 0.5-1.8 0.1-1.8-0.2-1-0.8-1-0.9-0.4-1.7-0.1-29.9 0.5-2 0.1-2 0.4-2.2 0.7-2.2 0.8-2.3 1-2.2 1.2-2.2 1.4-2.2 1.6-2 1.7-1.9 1.7-1.6 1.9-1.5 1.9-1.2 2-0.8 2-0.6 2.1-0.2 2 0.2 2 0.7 2.1 1.1 2 1.7 1.9 0.7 0.6 0.8 0.5 0.8 0.4 0.8 0.3 0.9 0.3 0.9 0.1h0.9 0.9 0.9l1-0.1 0.9-0.1 0.9-0.1 1-0.2 0.9-0.1 1-0.1 1.8-0.1h0.9l0.8 0.1 0.9 0.1 1.3 0.4 0.7 0.7 0.3 1-0.3 1.5-0.7 2-1 1.7-1.3 1.5-1.5 1.3-1.7 1.1-1.9 0.8-2 0.6-2.2 0.5-2.2 0.2-2.2 0.1-2.4-0.1-2.3-0.3-2.2-0.5-2.2-0.6-2.1-0.8-2-0.9-1.8-1-1.6-1.2-1.5-1.3-1.2-1.5-1.9-3.2-1.3-3.4-0.8-3.4-0.2-3.5 0.3-3.5 0.8-3.4 1.2-3.4 1.5-3.2 2-3.3 2.2-3 2.5-2.9 2.7-2.7 3-2.6 3.2-2.2 3.2-2 3.4-1.7 3.4-1.4 3.4-1.1 3.4-0.6 3.3-0.3 45.4-0.7 1.7-0.1 1-0.3 0.9-0.7 0.7-1.3 4.7-8.2 0.3-1-0.2-1-0.5-1-0.7-0.8-0.9-0.5-1-0.2-81.6-0.5h-1.3-1.1l-0.9 0.1-0.9 0.1-0.7 0.1-0.6 0.1-0.4 0.2-0.5 0.3-0.2 0.3-0.3 0.4-0.1 0.5-0.2 0.6-0.1 0.6v0.8l-1 12.4-0.3 2.1-0.7 2.2-0.8 2.1-0.9 2-0.9 2-1.1 2.1-1.2 1.9-1.3 1.9-1.4 1.7-1.4 1.6-1.6 1.5-1.6 1.4-1.7 1.2-1.7 1.2-1.9 1-1.9 1-1.9 0.8-2 0.8-2.1 0.6-2.1 0.7-2.1 0.4-2.2 0.4-2.2 0.4-2.2 0.2-2.3 0.2-1.8 0.2-1 0.6-0.3 1.3 0.3 1.3 0.6 1.1 0.7 1.1 0.7 0.9 0.8 1 0.9 0.8 1 0.9 0.9 0.7 2.1 1.3 1.1 0.5 1.1 0.5 1.1 0.5 1.2 0.5 1.2 0.3 1.2 0.3 1.2 0.3 1.2 0.3 1.2 0.2 1.2 0.1 1.2 0.2 2.6 0.1 2.7-0.1 2.6-0.1 2.5 0.5 1.4 0.5 0.7 0.5 0.2 0.8-0.3 1.2-0.4 1.3-0.5 1.1-0.5 1.1-0.6 0.9-0.7 0.8-0.7 0.7-0.7 0.6-0.9 0.5-0.8 0.4-0.9 0.4-0.9 0.2-1 0.2-1 0.2-1 0.1h-1.1l-1.1 0.1-1.1-0.1h-1.1l-1.2-0.1-1.1-0.2-1.9-0.2-1.8-0.3-1.7-0.3-1.5-0.3-1.6-0.4-1.4-0.5-1.5-0.5-1.4-0.5-1.3-0.6-1.3-0.7-1.3-0.7-1.2-0.8-1.3-0.8-1.2-1-1.2-0.9-1.2-1.1-1.2-1.2-1.2-1.2-1.2-1.2-1.2-1.4-2.1-2.8-3-4.3-1.8-2.8-7.3-18.8-0.6-1.9-0.3-1.2 0.2-0.8 0.5-0.7h0.2l0.9-0.7h0.7l1.2 0.5 13.4 7.4 1.9 0.8 2.1 0.5 2.2 0.4 2.3 0.1 2 0.2h1.7 1.8l1.7-0.2 1.7-0.3 1.6-0.4 1.6-0.5 1.5-0.6 1.6-0.7 1.4-0.8 1.4-1 1.3-1 1.2-1 1.3-1.2 1.1-1.2 1-1.3 0.9-1.4 0.9-1.5 0.8-1.6 0.7-1.5 0.6-1.7 0.2-0.7 0.3-0.8 0.2-0.8 0.3-0.8 0.2-0.9 0.3-0.8 0.2-0.9 0.2-0.9 0.2-0.8 0.1-0.9v-0.9l0.1-0.8v-0.8l-0.1-0.9-0.2-0.8-0.2-0.8-0.4-0.8-0.4-0.7-0.5-0.7-0.9-0.9-1.1-0.6-2.1-0.5-2.1-0.2-34.1 0.5-1.1 0.1-0.9 0.2-0.8 0.6-0.8 0.9-0.8 1.5-37.7 65.9-0.3 0.6-0.5 0.7-0.5 0.5-0.6 0.5-0.6 0.5-0.6 0.4-0.7 0.4-0.7 0.3-0.7 0.3-0.7 0.2-0.8 0.2-0.7 0.2-1.5 0.1-1.6 0.1-0.7-0.1h-0.8l-0.8-0.2-0.7-0.2-0.9-0.3-0.8-0.5-0.5-0.8-0.3-0.9v-1l0.4-1 34.2-60.3 0.9-1.9 0.8-2.1 0.4-1.9-0.2-1.3-1.1-1.2-1-0.3zm-97.4 40.2l-1.3 0.1-1.4 0.3-1.3 0.4-1.2 0.5-1.3 0.6-1.2 0.8-1.2 0.9-1.1 1-1 1-0.9 1.1-0.8 1.2-0.6 1.2-0.5 1.3-0.3 1.3-0.2 1.3 0.1 1.3 0.2 1.2 0.4 1.3 0.8 1.2 0.9 1.3 1.5 1.4 1.7 1 1.8 0.6 2 0.3h2.1l2.2-0.2 2.2-0.5 2.2-0.8 2.3-0.9 2.2-1.1 2.3-1.3 2.2-1.3 2-1.5 2-1.5 1.8-1.6 1.8-1.6 1.5-1.5 1.3-1.6 1.2-1.5 0.8-1.3 0.4-1 0.1-1-0.1-0.8-0.4-0.8-0.7-0.6-0.8-0.4-1-0.1zm864.2-71.4l0.9-0.1 0.9 0.2 0.8 0.1 0.8 0.2 0.9 0.3 0.9 0.3 0.8 0.3 0.8 0.5 0.8 0.4 0.7 0.5 0.7 0.6 0.7 0.5 0.6 0.6 0.5 0.8 0.6 0.6 0.4 0.8 0.4 0.8 0.4 0.8 0.2 0.8 0.2 0.9-0.1 2.9-0.6 2.7-0.6 2.8-0.1 1.3 0.2 0.8 0.6 0.5 1.1 0.3 2.9 0.5 3 0.3 2.9 0.1 3 0.1h2.9l203.3-2.3h1.9l2.2 0.4 1.8 0.7 0.8 0.8 0.3 0.8-0.3 1.2-0.3 1-0.5 0.9-0.5 0.7-0.6 0.6-0.6 0.5-0.7 0.4-0.8 0.3-0.8 0.3-0.8 0.2-0.8 0.2-0.9 0.2-0.9 0.1-0.8 0.2-0.9 0.3-1.8 0.9-1.5 1.4-37.7 67.7-0.5 1-0.8 1-0.8 0.9-0.9 0.8-1 0.7-1.1 0.5-1.2 0.4-1.1 0.2h-7.3l-1.9-0.1-1-0.3-0.7-1-0.1-0.2-0.4-0.9v-0.9l0.6-1.2 13.8-23.9 0.7-1.2 0.4-1 0.1-0.7-0.1-0.5-0.5-0.3-0.8-0.3-1.2-0.2-22.8-3.2h-1.4l-1.5 0.4-1.5 0.6-1.4 0.8-1.4 0.8-1.4 0.9-1.3 1-1.3 0.7-2 0.9-2.1 0.8-2 0.7-2.1 0.6-2 0.4-2.1 0.5-2.2 0.4-2.2 0.5-1.4 0.5-0.9 1.2-0.1 1.3 0.7 1.9 1.1 1.7 1.1 1.5 1.3 1.2 1.4 1 1.6 0.9 1.6 0.6 1.6 0.4 1.7 0.4 1.8 0.2 1.8 0.2h1.7 1.8l1.7-0.1h1.7l1.6-0.1 1.5-0.1h1.5 1.3l1.1 0.1 1.1 0.2 1.5 0.6 0.9 0.8 0.1 1.1-0.4 1.7-0.7 1.5-0.8 1.5-0.9 1.2-0.9 1.1-1 0.9-1.1 0.8-1.2 0.6-1.1 0.5-1.3 0.4-1.3 0.3-1.3 0.2-1.3 0.2h-1.5-1.4l-1.5-0.1-1.4-0.2-1.5-0.2-1.5-0.2-1.5-0.2-1.5-0.2-2.4-0.5-2.3-0.7-2.2-0.8-2.1-1-2-1.2-1.9-1.2-1.8-1.4-1.8-1.5-1.7-1.6-1.6-1.7-1.5-1.8-1.4-1.9-1.4-1.9-1.3-2-1.2-2-1.2-2.1-1.2-2.1-2.1-4.2-1-2.1-1-2-0.9-2.2-1-2.3-0.7-2.2-0.4-2.1-0.1-1.2 0.2-0.7 0.4-0.4 0.8-0.2 1.2 0.1 1.8 0.3 1.8 0.7 1.8 0.9 1.8 1 1.8 1 1.7 0.9 1.8 0.7 1.5 0.3 1.5 0.4 1.6 0.3 1.5 0.2 1.4 0.1h1.6 1.5l1.5-0.1 1.4-0.1 1.5-0.3 1.4-0.2 1.5-0.4 1.4-0.4 1.5-0.6 1.3-0.5 1.4-0.7 1.4-0.6 1.3-0.8 1.3-0.9 1.3-0.8 1-0.7 0.9-0.8 0.9-0.8 0.9-0.8 0.9-0.9 0.7-0.9 0.8-0.9 0.7-0.9 0.7-1 0.7-1.1 0.5-1 0.6-1.1 0.5-1.1 0.4-1.1 0.4-1.1 0.4-1.2 0.2-1.2 0.2-1.1 0.2-1.3 0.1-1.2-0.1-0.7v-0.8-0.7l-0.1-0.9v-0.7l-0.2-0.9-0.2-0.8-0.2-0.7-0.3-0.7-0.4-0.7-0.5-0.6-0.5-0.4-0.7-0.4-0.8-0.1-0.8-0.2-65 0.3-1.3 0.2-1.4 0.7-1.2 1-1.2 1-0.8 1.1-9 16.2-0.2 0.9 0.6 0.9 0.8 0.7 1-0.1 7.7-3.2 0.9-0.3 1.3-0.3 1.3-0.4 1.5-0.3 1.6-0.3 1.6-0.2 1.6-0.2 1.6-0.1h1.5 1.4l1.2 0.2 1 0.3 1.4 0.7 0.7 0.7 0.2 1-0.1 1.5-0.5 1.5-0.6 1.3-0.8 1.3-1 1.1-1.1 1.1-1.3 0.9-1.4 0.8-1.4 0.8-1.6 0.8-1.6 0.7-1.7 0.6-1.7 0.7-1.7 0.6-1.8 0.7-1.7 0.6-1.7 0.6-1.8 0.7-1.6 0.7-1.6 0.8-1.4 0.8-1.3 0.9-1.3 0.7-2.6 1.8-1.2 0.8-1.3 0.9-1.2 1-1.2 0.9-1.2 1.1-1.1 1-1.2 1-1.1 1.1-1.1 1.1-1.1 1.2-0.9 1.1-1 1.2-0.9 1.2-0.9 1.3-0.8 1.2-0.8 1.3-1.7 3.2-1.6 3.3-1.7 3.2-2 3-0.5 0.5-0.6 0.6-0.7 0.4-0.8 0.4-0.9 0.3-0.8 0.3-1 0.2-1 0.1-0.9 0.1h-2-0.9l-0.9-0.1-0.9-0.1-0.8-0.1-0.7-0.2-1.3-0.3-0.8-0.4-0.5-0.6-0.2-0.8-0.1-1.3-0.2-1.6-0.3-0.9-0.7-0.4h-1.2-1.3l-1.3 0.2-1.3 0.1-1.2 0.2-1.2 0.2-1.2 0.2-1.2 0.3-1.2 0.2-1.2 0.2-1.1 0.2-1.2 0.2-1.2 0.1-2.4 0.2h-2.5l-1.3-0.2-1.3-0.1-1.4-0.3-1.4-0.3-2.9-1-2.6-1.2-2.1-1.3-1.7-1.6-1.5-1.7-1-1.8-0.8-2-0.5-2.1-0.2-2.2v-2.2l0.3-2.2 0.4-2.4 0.6-2.3 0.8-2.3 0.9-2.3 0.9-2.3 1.2-2.1 1.1-2.1 1.2-2.1 1.2-1.9 1.3-1.8 1.6-1.7 1.7-1.7 1.9-1.5 2-1.6 2.2-1.3 2.3-1.4 2.5-1.2 2.4-1.2 2.6-1.1 2.5-0.9 2.7-1 2.6-0.8 2.6-0.7 2.6-0.6 2.6-0.5 2.4-0.5 2.4-0.3 2.3-0.3 2.2-0.1h1.3 1.3l1.2 0.1 1.4 0.1 1.4 0.2 2.9 0.2 1.4 0.1 1.3 0.1h1.4l1.4-0.2 1.2-0.2 1.2-0.2 1.1-0.5 1.1-0.6 0.9-0.7 0.8-0.9 0.7-1.2 0.6-1.3 0.3-1.5 0.1-1.5-0.4-1.1-1.1-1-0.9-0.3-53.7 0.2-1.4 0.1-0.9 0.2-0.7 0.4-0.7 0.8-0.7 1.2-37.5 68.5-0.4 0.7-0.5 0.6-0.5 0.5-0.7 0.5-0.7 0.3-0.7 0.4-0.8 0.2-0.8 0.3-0.8 0.2-0.9 0.1-0.8 0.2h-0.8l-0.9 0.1h-0.8l-0.9-0.1-0.7-0.1-0.7-0.1-0.8-0.1-0.9-0.4-0.7-0.5-0.5-0.6-0.3-0.7-0.1-0.9v-0.9l0.3-0.9 0.4-0.8 18.5-34.8 0.3-0.9 0.2-0.8v-0.7l-0.1-0.6-0.4-0.6-0.3-0.5-0.6-0.4-0.6-0.4-0.7-0.3-0.8-0.2-0.8-0.1h-0.8l-40.3 0.1h-1.6l-1.6 0.1-1.6 0.1-1.6 0.2-1.6 0.2-1.6 0.4-1.5 0.4-1.6 0.4-1.5 0.5-1.4 0.5-1.4 0.7-1.5 0.7-1.3 0.8-1.3 0.9-1.2 0.9-1.3 1.1-2.1 2.4-1 1.3-1 1.4-0.4 0.8-0.8 1.5-0.3 0.9-0.3 0.8-0.3 0.9-0.2 0.9-0.1 0.9-0.1 0.9-0.1 1-0.1 0.8 0.1 0.9 0.2 0.9 0.2 0.9 0.2 0.8 0.3 0.8 0.5 0.8 0.4 0.7 0.6 0.8 0.7 0.6 1.1 1 1.3 0.8 1.2 0.6 1.3 0.5 1.3 0.3 1.4 0.1 1.2 0.1 1.4-0.1 1.3-0.3 1.3-0.4 1.2-0.5 1.3-0.6 1.1-0.8 1.1-0.8 1-0.9 1.1-1 0.8-1.1 0.8-1.3 0.7-1.2 0.6-1.4 0.6-2.2 0.3-2.1v-2.1l-0.1-2.1-0.1-2.2 0.2-0.8 0.2-0.7 0.4-0.6 0.5-0.5 0.6-0.5 0.7-0.4 0.8-0.2 0.8-0.3 1-0.2h0.9l0.9-0.1 1 0.1 0.9 0.1 1 0.1 0.9 0.2 0.8 0.3 0.8 0.3 0.6 0.3 0.6 0.4 0.5 0.4 0.9 1.1 0.6 1 0.6 1.1 0.3 1.2 0.3 1.2 0.1 1.2-0.1 1.2-0.1 1.2-0.2 1.2-0.4 1.3-0.3 1.2-0.5 1.2-0.5 1.2-0.5 1.2-0.6 1.2-0.6 1.1-0.5 1-0.7 1.1-0.5 1-0.5 0.9-1.4 2.1-1.5 1.9-1.8 1.8-1.8 1.5-2 1.5-2.1 1.2-2.2 1-2.3 1-2.4 0.6-2.4 0.6-2.5 0.3-2.4 0.3h-2.5l-2.5-0.1-2.5-0.3-2.4-0.3-2.4-0.6-2.3-0.7-2.2-0.9-2.1-1.1-1.6-0.9-1.4-1.1-1.3-1.1-1.1-1.3-1-1.4-0.8-1.4-0.8-1.5-0.6-1.5-0.5-1.7-0.4-1.6-0.3-1.7-0.2-1.8v-1.7-1.7l0.2-1.8 0.2-1.7 0.3-1.7 0.4-1.6 0.5-1.6 0.5-1.6 1-2.1 1-2 1.2-2 1.3-1.9 1.4-1.9 1.5-1.7 1.7-1.8 1.7-1.5 1.8-1.6 1.9-1.3 2-1.4 2-1.1 2.1-1.1 2.1-0.9 2.2-0.9 2.3-0.6 2.2-0.6 2.3-0.4 2.3-0.2 2.3-0.1 56.8-0.2h0.9l1-0.1 1-0.2 0.9-0.4 0.9-0.3 0.9-0.5 0.8-0.5 0.8-0.5 0.8-0.7 0.7-0.6 0.7-0.8 0.6-0.7 0.6-0.8 0.5-0.9 0.5-0.9 0.4-0.9 0.4-1 0.2-0.9 0.2-1.1 0.1-1-0.1-1.1-0.6-1-0.8-0.6-1-0.4-1.3-0.1-80.5-0.4h-2.2-1.6l-1.3 0.1-0.9 0.2-0.8 0.3-0.6 0.5-0.4 0.5-0.5 0.7-38.3 70-0.6 1-0.5 0.8-0.5 0.6-0.6 0.4-0.7 0.2-0.9 0.2-1.1 0.1h-1.3-6.2l-1.4-0.1-0.8-0.3-0.7-1-0.2-0.5-0.6-1.4 0.5-1.3 35.3-64.6 0.3-0.9 0.2-1.1-0.1-1-0.2-1-0.6-0.8-0.7-0.7-0.9-0.3-0.8-0.1-0.9-0.1h-0.9-0.9-0.8l-0.9 0.2-0.8 0.2-0.8 0.3-0.8 0.4-0.7 0.5-0.6 0.5-0.7 0.7-0.4 0.8-36.6 66.5-0.7 1.2-0.7 1.1-0.5 0.8-0.5 0.6-0.6 0.4-0.6 0.3-0.8 0.2-0.8 0.1h-1-8.3l-1.2-0.1-0.8-0.4-0.6-0.9-0.5-1 0.1-0.9 0.7-1.5 35.3-65 0.7-1.4v-1l-0.4-1-0.1-0.2-0.9-1.1-1.4-0.2h-10.3l-1 0.1-0.7 0.2-0.7 0.5-0.8 0.8-0.8 1.3-1.1 1.9-10 17.8-0.6 0.9-0.8 0.8-0.9 0.5-0.9 0.4-1.1 0.3-1.1 0.1h-1.2l-1.2-0.1-1.3-0.1-1.3-0.3-1.4-0.3-1.3-0.4-1.3-0.3-1.4-0.4-1.2-0.3-1.3-0.4-1.2-0.3-1.1-0.2-1.1-0.2-0.9-0.2-2.5-0.2h-2.6-2.5l-2.8 0.1-2.7 0.1-2.7 0.3-2.7 0.4-2.7 0.5-2.6 0.7-2.6 0.8-2.6 0.9-2.4 1.1-2.3 1.2-2.2 1.4-2 1.6-1.9 1.7-1.8 2-1.4 2.2-1.3 2.3-1.1 2.7-0.2 0.7-0.2 0.7-0.2 0.8-0.1 0.7-0.1 0.8-0.1 0.8 0.1 1.6v0.8l0.1 0.7 0.1 0.8 0.3 0.8 0.2 0.7 0.2 0.7 0.4 0.7 0.3 0.7 0.4 0.6 0.5 0.6 0.5 0.6 0.5 0.6 1.6 1.2 1.4 1.1 1.5 0.9 1.5 0.8 1.6 0.7 1.5 0.6 1.6 0.4 1.6 0.3 1.6 0.3 1.7 0.1 1.7 0.1h1.7 1.6l1.7-0.2 1.8-0.1 1.7-0.3 1.7-0.2 1.8-0.2 1.8-0.4 1.7-0.2 3.4-0.9 3.4-0.9 3.5-0.6h1.2l0.8 0.2 0.4 0.4 0.1 0.8 0.1 1.2-0.2 1.1-0.1 1-0.4 0.9-0.3 0.9-0.3 0.8-0.5 0.8-0.5 0.7-0.6 0.7-0.5 0.7-0.7 0.6-0.7 0.6-0.7 0.5-0.7 0.6-0.7 0.4-0.8 0.6-0.8 0.4-0.8 0.5-0.9 0.4-0.8 0.4-0.8 0.5-1.4 1.1-0.8 1.6-0.3 1.8-0.2 1.9-0.4 1.8-1.1 1.6-0.8 0.6-1 0.3-1.1 0.2h-1.1l-1-0.1-1-0.3-0.9-0.4-0.9-0.5-0.8-0.6-0.9-0.8-0.7-0.8-0.9-0.8-0.8-0.2-1.4 0.5-3.1 1.2-1 0.4-1 0.4-0.9 0.3-1 0.3-0.9 0.3-0.9 0.3-1.1 0.2-0.9 0.1-1.1 0.1-1-0.1-1.1-0.1-1.2-0.1-1.1-0.3-1.1-0.4-0.7-0.5-0.3-0.7 0.2-0.6 0.3-0.8 0.6-0.7 0.8-0.7 0.7-0.6 0.7-0.6 0.6-0.6 0.5-0.8 0.3-0.6v-0.7l-0.2-0.7-0.6-0.6-0.9-0.6-1.6-0.7-1.6-0.8-1.6-0.7-1.6-0.8-1.5-0.7-1.6-0.9-1.5-1-1.4-1-1.4-1.1-1.3-1.2-1.1-1.2-0.9-1.3-0.9-1.3-0.7-1.3-0.6-1.4-0.5-1.4-0.4-1.5-0.4-1.4-0.2-1.5-0.2-1.4v-3l0.1-1.6 0.2-1.5 0.2-1.5 0.3-1.5 0.4-1.5 0.4-1.4 0.4-1.5 0.5-1.4 1.2-2.8 1.3-2.6 1.6-2.4 1.7-2.3 1.8-2.2 2-2 2.2-1.9 2.3-1.7 2.3-1.6 2.5-1.4 2.6-1.3 2.6-1.2 2.7-1 2.8-0.9 2.8-0.8 2.8-0.6 2.9-0.6 2.8-0.4 2.8-0.2 2.9-0.3 3.7-0.1h2 1.8 1.9l1.9 0.1 1.9 0.1 1.9 0.2 1.9 0.3 1.8 0.4 1.8 0.3 0.9 0.2h0.8 0.7l0.7-0.2 0.8-0.2 0.6-0.4 0.6-0.4 0.5-0.5 0.6-0.6 0.4-0.6 0.4-0.6 0.5-0.7 0.3-0.7 0.3-0.7 0.3-0.7 0.2-1.5-0.9-1.3-1.3-0.9-1.8-0.6-2-0.2-1.6-0.1-75.4 0.3h-1.4l-0.9 0.4-0.7 0.7-0.8 1.5-7.4 13.3-0.3 1.1 0.4 1 0.9 0.7h1.1l11.3-3.7 1.7-0.4 1.9-0.1h2.1l2 0.2 1.6 0.4 1.1 0.7 0.4 1.3 0.1 0.8v0.7l-0.2 0.7-0.1 0.7-0.2 0.8-0.3 0.8-0.3 0.7-0.4 0.8-0.4 0.7-0.5 0.7-0.5 0.7-0.5 0.7-0.5 0.6-1.2 1-0.6 0.5-0.6 0.4-0.6 0.3-0.7 0.3-2.3 0.8-2.2 0.7-2 0.8-2 0.7-2 0.8-1.8 0.7-1.8 0.8-1.7 0.9-1.7 0.8-1.6 0.9-1.6 1-1.6 1-1.5 1.1-1.6 1.2-1.5 1.3-1.6 1.4-1.6 1.4-1.6 1.7-1.7 1.7-1.7 1.9-1.2 1.5-1.1 1.6-1 1.6-1 1.8-0.9 1.7-0.9 1.8-0.8 1.7-0.9 1.7-0.9 1.7-1 1.6-1 1.5-1 1.3-1.2 1.3-1.3 1.1-1.4 0.9-1.6 0.7-1.7 0.5-2 0.2h-2.1l-2.3-0.3-1.1-0.2-0.7-0.4-0.4-0.6-0.3-1-0.1-1.4v-1.4l-0.1-1-0.4-0.7-0.7-0.5h-1.4l-1.4 0.1-1.4 0.2-1.5 0.1-1.4 0.2-1.5 0.1-1.4 0.1-1.4 0.1h-1.5-1.4l-1.4-0.1-1.4-0.2-1.5-0.3-1.4-0.4-1.3-0.5-1.3-0.7-1.2-0.7-1.2-0.8-1-0.9-1-1-1-1-0.9-1.1-0.9-1.1-1.1-1.9-1-1.9-0.6-1.9-0.3-1.9-0.2-1.9 0.1-1.9 0.3-1.9 0.5-2 0.7-1.9 0.7-1.8 1-2 1-1.7 1.1-1.8 1.2-1.8 1.3-1.6 1.3-1.6 1.3-1.5 1.3-1.4 1.4-1.4 1.3-1.3 1.3-1.2 1.5-1.1 1.5-1.2 1.5-1.1 1.5-1 1.7-1 1.6-0.8 1.8-0.9 1.6-0.8 1.8-0.7 3.6-1.3 1.7-0.5 1.9-0.5 1.8-0.5 1.8-0.3 1.8-0.3 1.9-0.3 1.9-0.1 1.8-0.2 2.2 0.1 2.3 0.2 2.4 0.4 2.4 0.5 2.3 0.4 2.1 0.2h1.8l1-0.3 1-0.5 1.1-1 1-1.2 0.9-1.3 0.7-1.4 0.6-1.5 0.3-1.5 0.3-1.3-0.3-0.8-0.8-0.7-1.9-0.9-2-0.4-43.4 0.1-1 0.1-0.8 0.1-0.7 0.3-0.6 0.5-0.7 0.8-0.7 1-0.8 1.5-37.7 67.3-0.9 1.5-0.8 0.9-0.7 0.5-1 0.3-1.2 0.1h-7.2l-1.4-0.1-0.9-0.4-0.6-0.9-0.2-0.3-0.6-1.4 0.5-1.4 13.1-23.9 0.8-1.6 0.4-1.5 0.3-1.3v-1.3l-0.2-1.1-0.4-1.2-0.5-0.9-0.7-1-0.8-0.7-1-0.7-1-0.6-1.2-0.5-1.2-0.4-1.3-0.3-1.3-0.1-1.3-0.1-1.4 0.1-1.4 0.1-1.2 0.3-1.3 0.4-1.6 0.6-1.4 0.8-1.3 0.8-1.2 0.9-1.1 1-0.9 1.1-0.9 1.1-0.8 1.1-0.8 1.1-0.7 1.2-0.7 1.2-0.6 1.1-0.7 1.1-0.6 1.1-0.7 1.1-0.7 1-0.7 1-0.9 0.8-0.9 0.7-0.9 0.8-1.1 0.5-1.3 0.3-1.4 0.2-1.6 0.2h-1.5l-1.6-0.2-1.4-0.2-1.4-0.2-1.2-0.3-1.5-0.5-0.6-0.6-0.1-1.2v-0.9l0.1-0.9 0.3-0.8 0.3-0.9 0.3-0.8 0.4-0.8 0.4-0.8 0.5-0.7 0.5-0.8 0.4-0.8 0.5-0.8 0.3-0.9 0.4-0.8 0.3-0.7 0.2-0.9 0.1-0.8 0.1-0.9-0.1-0.9-0.1-0.9-0.4-1-1.3-2.3-1.7-1.6-2.1-1-2.3-0.5-2.6 0.2-2.6 0.6-2.8 1-2.7 1.3-2.7 1.8-2.6 1.9-2.3 2.2-2.1 2.4-1.8 2.5-1.4 2.5-0.9 2.6-0.4 2.6 0.2 2.4 0.9 2.3 1.6 2.1 2.4 1.9 1.9 0.9 1.9 0.3 1.9 0.2 2 0.1 2 0.1 1.9 0.3 1.2 0.4 0.8 0.7v1l-0.3 1.5-1 2.4-1.2 2-1.5 1.6-1.6 1.1-1.8 1-2 0.5-2 0.3-2.1-0.1-2.1-0.3-2.3-0.5-2.1-0.8-2.1-1.1-2-1.1-1.9-1.4-1.9-1.5-1.6-1.6-1.4-1.9-1.2-1.8-1-2-0.7-2-0.7-3.7-0.1-3.8 0.4-3.5 1-3.5 1.3-3.3 1.7-3.2 2.2-3 2.4-2.8 2.8-2.6 3-2.4 3.3-2.2 3.4-1.9 3.6-1.6 3.6-1.3 3.8-1.1 3.7-0.6 3.8-0.4h3.6l3.6 0.4 3.5 0.8 2.3 0.9 2.1 1.2 2 1.4 2 1.6 2 1.5 1.4 0.7 1.5-0.1 1.6-0.7 1.7-0.7 1.6-0.7 1.8-0.7 3.6-1.4 1.8-0.6 1.8-0.6 1.9-0.4 1.8-0.4 1.9-0.3 1.9-0.1h1.9l1.8 0.1 1.8 0.2 1.7 0.5 1.7 0.7 1.7 0.8 1.6 1.1 1.6 1.3 0.8 0.7 0.9 0.2 1 0.1 0.9-0.3 0.8-0.5 0.8-0.7 0.6-1 9.1-16.8 0.3-0.9 0.2-0.8v-0.8l-0.3-0.7-0.4-0.6-0.5-0.6-0.6-0.5-0.8-0.3-0.8-0.2h-0.9l-90.8-0.3h-1.2l-0.9 0.1-0.7 0.3-0.6 0.4-0.7 0.7-0.6 1-0.7 1.3-10.3 19.1-0.5 0.7-0.5 0.5-0.6 0.5-0.7 0.3-0.6 0.2-0.7 0.1-0.8-0.1h-0.7l-0.8-0.2-0.8-0.2-0.7-0.3-0.7-0.4-0.6-0.3-0.7-0.4-0.5-0.3-1.3-0.8-1.1-0.6-1.3-0.6-1.3-0.6-1.3-0.3-1.3-0.4-1.4-0.3-1.3-0.2-1.4-0.2-1.4-0.2-1.4-0.2h-1.4l-1.3-0.1h-1.4l-1.5-0.1-2.7-0.1-1.4-0.1h-1.3l-1.3-0.1h-3.2l-1.5 0.1-2.6 0.3-1.5 0.3-1.5 0.6-1.4 0.7-1.3 0.9-1.1 1.1-0.8 1.2-0.2 1.2 0.2 1.3 0.8 1.1 1.3 1 1.5 0.8 1.6 0.6 1.9 0.4 2 0.1 2.2 0.2h2.2l2.3-0.1 2.4-0.1h2.3 2.4l2.4 0.1 2.3 0.1 2.3 0.4 2.2 0.6 2.1 0.7 2 0.9 1.8 1.3 1.6 1.6 1.5 2 1 1.9 0.8 2 0.5 2 0.2 2.1v2l-0.3 2.1-0.4 2-0.6 2-0.9 2-1 1.9-1.2 1.9-1.2 1.8-1.4 1.7-1.5 1.6-1.6 1.6-1.7 1.4-1.6 1.3-1.8 1.1-1.8 1-1.7 0.8-2.6 1-2.7 0.8-2.7 0.8-2.7 0.8-2.7 0.9-2.6 0.9-2.6 1.1-1.3 0.6-1.2 0.8-0.9 0.7-0.9 0.9-0.8 0.8-0.7 0.8-0.7 0.8-0.7 0.8-0.7 0.7-0.7 0.7-0.8 0.7-0.8 0.5-1 0.5-1 0.4-1.2 0.2-1.5 0.2-1.6-0.1-1.8-0.1-2-0.4-2.3-0.5-1.4-0.4-0.7-0.5-0.4-0.9-0.1-1.4 0.4-2.6 0.5-2.6v-1.4l-0.4-0.8-0.8-0.7-1.4-0.7-1.1-0.5-1-0.5-0.9-0.6-1-0.6-1-0.6-0.9-0.8-1.7-1.4-0.8-0.8-0.7-0.9-0.7-0.8-0.6-1-0.5-0.9-0.4-1.1-0.3-1-0.3-1.1-0.1-1.1v-1.2l0.1-1.1 0.3-1.3 0.3-1.4 0.5-1.7 0.6-1.6 0.8-1.5 0.8-1.3 1.1-1 2.1-1.4 2.1-1.2 2.3-1 2.4-0.9 2.5-0.7 2.6-0.5 2.5-0.4 2.7-0.2h2.6l2.7 0.2 2.6 0.3 2.6 0.6 2.5 0.7 2.3 0.9 2.3 1.2 2.1 1.3 2 1.6 1.8 1.8 1.6 1.9 1.4 2.2 1.1 1.6 1 0.7h1.3l1.5-0.7 0.8-0.6 0.6-0.7 0.6-0.7 0.5-0.7 0.5-0.8 0.4-0.9 0.3-0.8 0.1-0.9 0.2-0.8v-0.9l-0.1-0.9-0.2-0.8-0.3-0.8-0.3-0.8-0.5-0.7-0.5-0.7-0.7-0.6-0.7-0.5-0.9-0.5-1-0.4-1.8-0.5-2.2-0.4-2.4-0.2-2.7-0.3-3-0.3-3-0.2-3.2-0.3-3.1-0.3-3.2-0.5-2.9-0.6-2.9-0.7-2.7-0.9-2.3-1.1-2-1.3-1.6-1.6-1.2-1.8-0.7-2.2v-2.5l0.5-2.8 1.2-3.3 1.3-2.5 1.6-2.2 1.6-1.9 1.9-1.8 2.1-1.5 2.1-1.3 2.4-1.1 2.4-0.9 2.6-0.8 2.6-0.6 2.6-0.4 2.7-0.4 2.8-0.2h2.7l2.7-0.1 2.7 0.2 2.7 0.1 2.6 0.2 2.5 0.2 2.5 0.4 1.6 0.2 2 0.5 2.1 0.6 2.2 0.5 2 0.3 1.8 0.2 1.5-0.3 0.8-0.5 0.5-0.7 1.1-2.1 0.5-2.1-0.1-1.6-0.6-1.1-1.1-0.5-2-0.1-43.4-0.4h-0.8l-0.8-0.2-0.7-0.2-0.7-0.4-0.6-0.3-0.4-0.5-0.3-0.5-0.2-0.6-0.1-0.6 0.1-0.7 0.3-0.8 0.5-0.7 1.3-1.2 1.7-1.2 1.6-0.4 154.9 1.4h0.9l0.8-0.2 0.8-0.1 0.8-0.3 0.6-0.4 0.5-0.4 0.4-0.6 0.1-0.7-0.1-0.8-0.3-1-1.2-2.2-1.4-2-1.5-1.9-1.5-2.1-1.3-2.1-0.4-0.9-0.1-0.9 0.1-0.9 0.3-0.8 0.5-0.7 0.7-0.5 1.1-0.1 8.2-0.1 1.8 0.1 1.1 0.3 0.9 0.7 1 1.2 9.8 14 0.9 1.1 0.7 0.9 0.6 0.6 0.8 0.4 0.9 0.2 1 0.1h1.4l220.9 0.1h1.4l1-0.1 0.9-0.2 0.7-0.4 0.6-0.6 0.7-0.8 0.9-1.1 6.2-9.4 0.6-0.8 0.6-0.7 0.8-0.8 0.9-0.7 0.9-0.7 1-0.8 1-0.6 1.1-0.7 1.1-0.6 1.2-0.5 1.1-0.6 1.3-0.5 1.1-0.5 1.2-0.4 1.2-0.3 1.1-0.3 1.1-0.2 1.1-0.2 1-0.1 1-0.1zm-532.5 97.1l1.9-0.5 2-0.7 0.7-0.5 0.6-0.7 0.8-1.6 0.3-1.4v-1.3l-0.4-1.2-0.6-1.1-0.9-0.9-1.1-0.8-1.3-0.6-1.3-0.6-1.5-0.3-1.5-0.1h-1.5l-1.4 0.2-1.4 0.3-1.1 0.6-1 0.7-0.8 1-0.5 1.1-0.1 1.4 0.2 1.7 0.4 1 0.6 0.9 0.8 0.9 0.9 0.7 0.9 0.6 0.9 0.4 1 0.4 1.1 0.3 1.1 0.2h1.1zm574.4-42.6l-2-0.1-2.2 0.2-2.5 0.3-2.6 0.6-2.8 0.7-2.8 0.9-2.8 1.1-2.9 1.3-2.7 1.4-2.7 1.5-2.6 1.7-2.3 1.8-2.1 1.9-1.8 2-1.6 2.1-1.1 2.2-0.8 2.3-0.3 2.3 0.2 2.4 0.6 2.5 0.8 1.3 1.1 1.1 1.4 0.8 1.6 0.6 1.8 0.4 2 0.1h2.2l2.2-0.2 2.3-0.3 2.4-0.5 2.3-0.5 2.2-0.7 2.2-0.7 2.1-0.8 2-0.8 1.6-0.8 1.6-0.8 1.2-0.8 0.9-0.8 0.5-0.7 11.1-19.1 0.7-1.4 0.2-1-0.4-1-0.2-0.4-0.9-1.2-1.4-0.3zm-371.8 1.9l-2.1 1.1-2.1 1.2-2.1 1.2-2 1.5-1.7 1.6-0.7 0.6-0.7 0.9-0.9 0.9-0.9 1-0.8 1.2-0.9 1.1-0.9 1.2-0.8 1.3-0.8 1.3-0.7 1.4-0.6 1.3-0.4 1.3-0.2 1.2-0.2 1.3 0.1 1.2 0.4 1.1 0.6 1 0.9 0.9 1.1 0.8 1.5 0.7 0.9 0.4 1.1 0.2 1.1 0.2 1.1 0.1 1.2 0.1h1.2 1.3l1.2-0.1 1.3-0.2 1.3-0.2 1.3-0.2 1.2-0.3 1.2-0.4 1.3-0.3 1.1-0.4 1.1-0.6 1-0.4 1-0.6 0.9-0.6 0.8-0.6 1.3-1.2 1.2-1.3 1.1-1.4 1.1-1.5 1-1.5 0.9-1.5 1.7-3.2 0.9-1.5 0.9-1.7 1-1.6 0.9-1.8 0.8-1.8 0.6-1.8 0.3-1.9-0.4-1.5-1.3-1-0.6-0.3-0.7-0.2-0.8-0.2-0.9-0.1-1.1-0.1-1-0.1-1.1 0.1-1.2 0.1h-1.2l-1.3 0.2-1.1 0.2-1.2 0.2-1.2 0.2-1.1 0.2-1.1 0.2-1.1 0.3-0.9 0.3-0.8 0.3-0.8 0.3zm505.8-26.6h-1l-0.8 0.1-0.6 0.3-0.5 0.4-0.3 0.6-0.3 0.8-0.2 1.1-0.3 1.5-2.5 18.8-0.2 1.8 0.1 1 0.4 0.5 0.8 0.3 7.8 1.8 0.9 0.2h1.1 1.3l1.5-0.1 1.5-0.2 1.6-0.2 1.5-0.4 1.5-0.3 1.4-0.4 1.2-0.4 1-0.5 0.9-0.5 0.5-0.5 0.6-0.7 0.7-0.9 0.8-1.1 0.9-1.3 0.9-1.5 1-1.5 0.9-1.6 1-1.7 0.9-1.6 0.9-1.6 0.8-1.7 0.8-1.5 0.7-1.4 0.5-1.3 0.5-1.1 0.3-0.9 0.2-0.7-0.1-1.5-0.6-1.1-1-0.8-1.2-0.3zm-186.9-8.6l1.2-0.2 1.2-0.5 1-0.9 0.8-1 0.5-1.1 0.1-0.9-0.1-0.9-0.3-0.9-0.4-0.9-0.6-0.8-0.7-0.6-0.9-0.4-0.9-0.1-67.1-0.5h-1-1.2-2.3l-1.3-0.1-1.2 0.1h-1.3-1.2l-1.3 0.2-1.2 0.1-1.3 0.3-1.2 0.2-1.2 0.4-1 0.5-1.1 0.5-1 0.6-0.9 0.6-0.8 0.9-0.7 0.9-0.6 1-0.6 1.5 0.1 1 0.8 1 0.9 0.3zm-154.9-5.3l-2.1-0.3-2.3-0.7-2.1-0.9-1.1-0.7-0.8-1-0.4-1.3-0.3-1.6 0.1-1.4 0.3-1.4 0.4-1.3 0.6-1.4 0.6-1.3 1.1-1.7 1.7-1.3 1.1-0.5 1.3-0.4 1.4-0.2h1.3 1.4l1.4 0.2 1.2 0.3 1.2 0.4 1.3 1 0.6 1.5 0.4 1.7 0.6 1.7 0.5 1 0.6 0.4 1.1 0.2h1.9l2 0.2 1.9 0.1 2-0.1 1.9-0.2 1.8-0.6 1-0.6 0.9-0.5 0.8-0.6 0.8-0.6 0.7-0.6 0.7-0.6 0.7-0.7 0.7-0.6 0.8-0.5 0.7-0.6 0.7-0.5 0.7-0.5 0.9-0.4 0.8-0.3 0.9-0.3 1-0.1 1-0.1 1.1 0.1 1.2 0.2 1.4 0.3 1.5 0.6 0.8 0.9 0.2 1.2-0.3 1.6-0.4 1.1-0.5 1-0.6 1-0.6 1-0.7 0.9-0.7 0.9-0.7 0.8-0.8 0.8-0.9 0.8-0.9 0.6-0.9 0.7-2.1 1.1-1 0.4-1.1 0.4-1.1 0.4-1.1 0.2-1.1 0.2-1.1 0.1-1.2 0.1z"/>
			</g>
			<g id="g8686">
				<path id="path8688" class="s1" d="m25.9 289l-2.4 0.1-2.2-0.1h-2l-1.8 0.1h-1.7l-1.4 0.1-1.4 0.1h-1.1l-1.1 0.1-0.9 0.1-0.7 0.1-0.8 0.2-0.6 0.2-0.5 0.2-0.5 0.2-0.3 0.2-0.4 0.4-0.3 0.3-0.2 0.3-0.3 0.4-5 7.8-0.3 1 0.3 1.1 0.7 0.7 1 0.3 351.4 0.1 1.3-0.1 0.9-0.5 0.8-0.9 1-1.6 42.2-74.8 0.4-1.1-0.1-0.9-0.5-0.7-0.7-0.5-1-0.4-1-0.2-1-0.1h-101.2-1.6l-1.2 0.2-0.8 0.4-0.7 0.7-0.6 1.1-9.2 18.7-2.1 3.9-2.4 3.8-2.6 3.7-2.8 3.7-3.1 3.4-3.4 3.3-3.4 3.1-3.6 3.1-3.9 2.7-3.9 2.6-4.1 2.5-4.2 2.2-4.3 1.9-4.3 1.8-4.4 1.5-4.4 1.3-4.5 1-4.5 0.7-4.5 0.5-4.4 0.1z"/>
			</g>
			<g id="g8690">
				<path id="path8692" class="s1" d="m491.1 291.6l-4.7-0.1-4.8-0.2-4.7-0.2-4.8-0.2h-4.7-4.7l-4.9 0.1h-4.8l-4.7 0.1h-4.8-4.9-4.8-4.7-4.8l-4.9-0.1-4.7-0.1-4.8-0.1-1.1-0.1h-1.2l-1.4-0.1-1.4-0.1-1.6-0.1h-1.5l-1.6-0.1h-1.6-1.6-1.6l-1.6 0.1-1.6 0.2-1.5 0.1-1.4 0.3-1.4 0.3-1.2 0.4-1.1 0.6-1 0.6-0.9 0.7-0.7 0.8-0.4 0.8-0.3 0.8-0.1 0.9 0.1 0.7 0.3 0.7 0.4 0.6 0.6 0.3 0.9 0.4 0.9 0.1 1096.4-0.6 1.4-0.2 1.2-0.6 1.1-0.9 1-1 0.5-0.9v-1l-0.6-1.2-0.7-1.4-0.7-0.8-0.9-0.3h-1.4l-9 0.1h-9.1l-9 0.1h-9.1-9.1l-9-0.1h-9.1l-9-0.1h-9.1l-9-0.1-9.1-0.1-9-0.1-9.1-0.1-9.1-0.1-8.9-0.1h-9.1-9l-9-0.1h-9-9z"/>
			</g>
			<g id="g8694">
				<path id="path8696" class="s1" d="m92.3 145.4h-0.8l-0.7 0.1-0.8 0.3-0.8 0.3-0.8 0.3-0.8 0.4-0.8 0.5-0.7 0.5-0.8 0.6-0.7 0.6-0.6 0.7-0.7 0.7-0.5 0.7-0.5 0.7-0.4 0.8-0.4 0.8-0.2 0.8-0.3 0.8v0.9l-0.1 0.7 0.3 1.3 1 0.3 1.5 0.4 1.6 0.2 179.6 0.6h1.9l1.8 0.2 1.8 0.3 2 0.4 1.9 0.6 1.8 0.6 1.9 0.7 1.8 0.8 1.7 1 1.7 1.1 1.7 1.1 1.5 1.2 1.5 1.3 1.5 1.4 1.2 1.5 1.2 1.4 1 1.7 1 1.7 0.7 1.7 0.6 1.8 3.4 11.4 0.4 1.1 0.5 0.6 0.7 0.3 1.3 0.1 112.6 0.5h1.2l1-0.2 0.7-0.3 0.7-0.6 0.6-0.8 0.8-1.3 42.4-74.7 0.5-1.2-0.2-1.1-0.7-0.6-1.6-0.6-2.5-0.5-2.6-0.1-100.2 0.1-1.1 0.1-0.9 0.4-1 1-14.3 15.2-2.5 2.1-2.9 1.9-1.4 1.1-1.5 1-1.5 1-1.6 0.9-1.7 0.8-1.6 0.8-1.8 0.8-1.7 0.8-1.8 0.7-1.9 0.7-1.8 0.6-1.8 0.6-1.9 0.6-1.9 0.4-1.9 0.5-1.9 0.4-1.9 0.4-1.9 0.2-1.8 0.3-1.9 0.1-1.8 0.1h-1.8z"/>
			</g>
			<g id="g8698">
				<path id="path8700" class="s1" d="m179.3 1h-1.2l-1.9 0.1-2.2 0.1-2.4 0.2-2.1 0.4-1.7 0.4-0.8 0.6-5 8.2-0.8 1.7-0.2 1.1 0.4 1 0.5 0.8 0.8 0.4 1.3 0.2h2.1l153.8 0.3 1.2-0.1 1.2 0.1h1.2l1.2 0.1h1.2l1.3 0.2 1.1 0.1 1.3 0.1 1.2 0.2 1.3 0.1 1.1 0.3 1.3 0.2 1.2 0.3 1.2 0.3 1.2 0.3 1.2 0.3 1.1 0.4 1.1 0.4 1.1 0.5 1.1 0.4 2.5 1.2 2.3 1.4 2.3 1.7 2.2 1.8 2.1 1.9 1.9 2.2 1.8 2.2 1.7 2.4 1.5 2.5 1.4 2.6 1.2 2.6 1.1 2.8 0.9 2.7 0.7 2.9 0.6 2.8 0.3 2.9 0.2 2.9-0.1 2.7-0.2 2.8-0.5 2.8-2.9 13.5-0.2 1.2 0.3 0.7 0.8 0.3 1.6 0.1 108.4 1 1.3-0.1 1-0.2 0.7-0.4 0.8-0.8 0.7-1.2 43.2-74.9 0.5-1 0.3-1v-1l-0.3-0.9-0.7-0.6-1-0.4-4.8-0.3-4.9-0.1-4.8-0.1z"/>
			</g>
		</g>
	</g>
</svg>