<?xml version="1.0" encoding="UTF-8"?>
<svg version="1.1" xmlns="http://www.w3.org/2000/svg" width="242" height="72">
<path d="M0 0 C0.66 0.33 1.32 0.66 2 1 C2.40729228 3.32156597 2.74438677 5.6568787 3 8 C3.99 8.33 4.98 8.66 6 9 C6 6.36 6 3.72 6 1 C6.99 0.67 7.98 0.34 9 0 C9.66 2.64 10.32 5.28 11 8 C13.31 8 15.62 8 18 8 C18.33 5.69 18.66 3.38 19 1 C19.763125 1.20625 20.52625 1.4125 21.3125 1.625 C24.21885944 2.33391203 24.21885944 2.33391203 27 0 C27.66 1.98 28.32 3.96 29 6 C29.66 5.67 30.32 5.34 31 5 C32.70702735 4.93003986 34.41668003 4.91559846 36.125 4.9375 C37.03507812 4.94652344 37.94515625 4.95554687 38.8828125 4.96484375 C39.93082031 4.98224609 39.93082031 4.98224609 41 5 C41.33 3.68 41.66 2.36 42 1 C42.66 1 43.32 1 44 1 C44.06058594 1.74765625 44.12117188 2.4953125 44.18359375 3.265625 C44.26738281 4.25046875 44.35117187 5.2353125 44.4375 6.25 C44.51871094 7.22453125 44.59992187 8.1990625 44.68359375 9.203125 C44.95074584 11.56461753 45.35371968 13.71901065 46 16 C45.36191406 16.20496094 44.72382812 16.40992187 44.06640625 16.62109375 C43.24011719 16.89050781 42.41382813 17.15992187 41.5625 17.4375 C40.73878906 17.70433594 39.91507813 17.97117187 39.06640625 18.24609375 C37.03780412 18.82155494 37.03780412 18.82155494 36 20 C34.33382885 20.04063832 32.66611905 20.042721 31 20 C31.42152344 20.54269531 31.84304687 21.08539062 32.27734375 21.64453125 C32.82519531 22.35996094 33.37304688 23.07539063 33.9375 23.8125 C34.48277344 24.52019531 35.02804688 25.22789063 35.58984375 25.95703125 C37 28 37 28 38 31 C38.10957031 30.30132812 38.21914063 29.60265625 38.33203125 28.8828125 C38.49058594 27.97273438 38.64914063 27.06265625 38.8125 26.125 C38.96332031 25.22007813 39.11414062 24.31515625 39.26953125 23.3828125 C40 21 40 21 43 19 C43.99 19.66 44.98 20.32 46 21 C45.01 21 44.02 21 43 21 C43.08378906 21.61488281 43.16757812 22.22976562 43.25390625 22.86328125 C43.40666016 24.07564453 43.40666016 24.07564453 43.5625 25.3125 C43.66691406 26.11300781 43.77132812 26.91351562 43.87890625 27.73828125 C44 30 44 30 43 33 C43.66 33 44.32 33 45 33 C44.67 33.99 44.34 34.98 44 36 C42.02 36 40.04 36 38 36 C38 36.99 38 37.98 38 39 C40.64 39.33 43.28 39.66 46 40 C46 40.66 46 41.32 46 42 C44.68 42 43.36 42 42 42 C42 44.31 42 46.62 42 49 C46.44496375 49.91593193 50.24293267 49.94866734 54.75 49.5 C60.52603502 49.02886155 66.31109996 48.64829854 72 50 C72.66 50.66 73.32 51.32 74 52 C74.99 51.34 75.98 50.68 77 50 C79.76655324 49.85754103 82.42653306 49.81230555 85.1875 49.875 C85.93708984 49.88402344 86.68667969 49.89304688 87.45898438 49.90234375 C89.30612654 49.92587422 91.15310412 49.96174439 93 50 C92.67 51.65 92.34 53.3 92 55 C93.98 55 95.96 55 98 55 C97.67 53.35 97.34 51.7 97 50 C98.98 50 100.96 50 103 50 C103 53.3 103 56.6 103 60 C103.66 60 104.32 60 105 60 C104.67 56.7 104.34 53.4 104 50 C108.8262665 50.55157331 111.6074855 52.6074855 115 56 C114.505 53.03 114.505 53.03 114 50 C117.75 48.875 117.75 48.875 120 50 C120 50.99 120 51.98 120 53 C120.495 52.505 120.99 52.01 121.5 51.5 C124.94108722 49.43534767 128.13895796 49.14368969 132 50 C135 52.5 135 52.5 137 55 C135.25 60.75 135.25 60.75 133 63 C127.62364396 64.62540997 124.81006205 63.40503103 120 61 C119.01 61.99 118.02 62.98 117 64 C115.515 63.01 115.515 63.01 114 62 C114 61.34 114 60.68 114 60 C113.34 60 112.68 60 112 60 C110.375 58 110.375 58 109 56 C109.20625 57.11375 109.4125 58.2275 109.625 59.375 C109.74875 60.57125 109.8725 61.7675 110 63 C107.39295102 65.60704898 105.52661759 65.23905333 101.97265625 65.265625 C100 65 100 65 97 63 C97.33 61.35 97.66 59.7 98 58 C96.02 58 94.04 58 92 58 C92.495 60.475 92.495 60.475 93 63 C89.71023192 64.09658936 88.28696233 63.79953138 85 63 C84.67 63.66 84.34 64.32 84 65 C83.37351562 64.7834375 82.74703125 64.566875 82.1015625 64.34375 C81.28429687 64.0653125 80.46703125 63.786875 79.625 63.5 C78.81289062 63.2215625 78.00078125 62.943125 77.1640625 62.65625 C75.05790758 61.90326695 75.05790758 61.90326695 73 62 C72.67 62.99 72.34 63.98 72 65 C70.5629191 65.05422947 69.12524538 65.09289723 67.6875 65.125 C66.48673828 65.15980469 66.48673828 65.15980469 65.26171875 65.1953125 C63 65 63 65 60 63 C59.59156077 60.28796348 59.86663133 57.7562858 60 55 C59.34 54.67 58.68 54.34 58 54 C58 53.34 58 52.68 58 52 C57.34 52 56.68 52 56 52 C56.495 57.445 56.495 57.445 57 63 C55.02 63 53.04 63 51 63 C51 59.7 51 56.4 51 53 C49.02 53.495 49.02 53.495 47 54 C47 53.34 47 52.68 47 52 C44.69 52 42.38 52 40 52 C40.18129815 55.43793339 40.18129815 55.43793339 41 59 C42.93597032 60.51294288 42.93597032 60.51294288 45 61 C43 63 43 63 39.98828125 63.01171875 C38.77527344 62.90472656 37.56226563 62.79773438 36.3125 62.6875 C35.05566406 62.58050781 33.79882812 62.47351563 32.50390625 62.36328125 C29.90053545 62.09336655 27.33299533 61.78630499 24.75 61.375 C22.04447912 60.74277642 22.04447912 60.74277642 20 62 C19.16275391 61.76603516 19.16275391 61.76603516 18.30859375 61.52734375 C14.06495364 60.55798433 9.70234722 61.49612013 5.41015625 61.94140625 C0.75447426 62.02140079 -1.81881548 61.02156499 -5.3125 58 C-7 56 -7 56 -7 54 C-6.34 54 -5.68 54 -5 54 C-5 51.36 -5 48.72 -5 46 C-6.32 45.34 -7.64 44.68 -9 44 C-9 42 -9 42 -7 40 C-7.66 39.67 -8.32 39.34 -9 39 C-9 37.02 -9 35.04 -9 33 C-6.03 32.505 -6.03 32.505 -3 32 C-3.33 28.7 -3.66 25.4 -4 22 C-5.98 21.34 -7.96 20.68 -10 20 C-10 19.67 -10 19.34 -10 19 C-7.69 19 -5.38 19 -3 19 C-2.01 15.535 -2.01 15.535 -1 12 C-3.97 11.67 -6.94 11.34 -10 11 C-10 10.34 -10 9.68 -10 9 C-7.36 8.34 -4.72 7.68 -2 7 C-2.04125 6.21625 -2.0825 5.4325 -2.125 4.625 C-2 2 -2 2 0 0 Z M39 10 C39 11.32 39 12.64 39 14 C39.99 14.33 40.98 14.66 42 15 C41.67 13.35 41.34 11.7 41 10 C40.34 10 39.68 10 39 10 Z M27 11 C27 11.66 27 12.32 27 13 C27.66 13 28.32 13 29 13 C29 12.34 29 11.68 29 11 C28.34 11 27.68 11 27 11 Z M33 14 C33.66 14.66 34.32 15.32 35 16 C35 15.34 35 14.68 35 14 C34.34 14 33.68 14 33 14 Z M8 17 C8.33 18.32 8.66 19.64 9 21 C11.38564077 20.42415568 13.66682784 19.77772405 16 19 C16 18.01 16 17.02 16 16 C11.82189931 14.81068813 11.82189931 14.81068813 8 17 Z M3 16 C4 18 4 18 4 18 Z M3 21 C1.66695302 23.89186786 1.66695302 23.89186786 2.9375 26.1875 C3.288125 26.785625 3.63875 27.38375 4 28 C6.35953094 25.64046906 6.49141413 24.22104383 7 21 C5.68 21 4.36 21 3 21 Z M8 26 C5.74628025 29.97083957 5.60443566 33.49056654 6 38 C7.3848399 42.0006486 8.34978104 43.58496662 11.9375 45.875 C15.08201388 47.22987831 15.08201388 47.22987831 19 47 C18.91345762 40.88864936 18.91345762 40.88864936 16 35.8125 C15.34 35.214375 14.68 34.61625 14 34 C13.25 30.75 13.25 30.75 13 28 C13.99 28 14.98 28 16 28 C16 26.02 16 24.04 16 22 C12.00523669 22 10.8578664 23.28869085 8 26 Z M19 22 C19 23.98 19 25.96 19 28 C19.99 27.67 20.98 27.34 22 27 C22 25.35 22 23.7 22 22 C21.01 22 20.02 22 19 22 Z M25 22 C25 23.65 25 25.3 25 27 C25.99 27.33 26.98 27.66 28 28 C27.54857119 29.29409592 27.08858979 30.58521059 26.625 31.875 C26.36976562 32.59429687 26.11453125 33.31359375 25.8515625 34.0546875 C25 36 25 36 23 38 C22.75787127 39.98128508 22.75787127 39.98128508 22.875 42.125 C22.91625 43.40375 22.9575 44.6825 23 46 C27.97034428 46 29.63697567 45.24943897 33.25 41.9375 C35.6581177 37.89530243 35.69135214 34.59790821 35 30 C33.9363351 26.99879395 33.9363351 26.99879395 32 25 C29.94074861 24.27617533 29.94074861 24.27617533 28 24 C27.67 23.34 27.34 22.68 27 22 C26.34 22 25.68 22 25 22 Z M-1 36 C-0.72965366 38.43717258 -0.72965366 38.43717258 0 41 C1.485 41.99 1.485 41.99 3 43 C3.51171875 45.3828125 3.51171875 45.3828125 3.6875 48.125 C3.75324219 49.03507812 3.81898437 49.94515625 3.88671875 50.8828125 C3.92410156 51.58148438 3.96148438 52.28015625 4 53 C4.99 53.33 5.98 53.66 7 54 C7.66 53.67 8.32 53.34 9 53 C11.6723621 52.86584528 14.32250488 52.95681459 17 53 C17 52.01 17 51.02 17 50 C16.45730469 49.75765625 15.91460937 49.5153125 15.35546875 49.265625 C8.11221122 45.87238724 8.11221122 45.87238724 6 42 C5.71125 41.113125 5.4225 40.22625 5.125 39.3125 C4.568125 38.1678125 4.568125 38.1678125 4 37 C1.45224694 36.10613836 1.45224694 36.10613836 -1 36 Z M35 43 C34.46375 43.598125 33.9275 44.19625 33.375 44.8125 C31 47 31 47 27.3125 48.5 C23.8774002 49.60657573 23.8774002 49.60657573 23.0625 52.1875 C23.041875 52.785625 23.02125 53.38375 23 54 C27.43093198 55.81301758 27.43093198 55.81301758 32 55 C32.33 53.35 32.66 51.7 33 50 C33.99 50 34.98 50 36 50 C36 47.69 36 45.38 36 43 C35.67 43 35.34 43 35 43 Z M65 52 C65 52.99 65 53.98 65 55 C66.65 54.67 68.3 54.34 70 54 C69.67 53.34 69.34 52.68 69 52 C67.68 52 66.36 52 65 52 Z M77.1875 53.1875 C75.81161597 54.92638902 75.81161597 54.92638902 76 57.0625 C76.88984334 59.18927646 76.88984334 59.18927646 79.1875 60.375 C82.72500893 61.1611131 84.70438407 60.37956016 88 59 C87.67 57.35 87.34 55.7 87 54 C86.4225 53.855625 85.845 53.71125 85.25 53.5625 C83 53 83 53 80.9375 52.25 C78.91417139 51.77534994 78.91417139 51.77534994 77.1875 53.1875 Z M87 52 C88 54 88 54 88 54 Z M124.0625 53.125 C122.73619725 55.03554076 122.73619725 55.03554076 123.3125 57.6875 C123.539375 58.450625 123.76625 59.21375 124 60 C128.09542781 61.14203952 128.09542781 61.14203952 131.9375 59.875 C133.26380275 57.96445924 133.26380275 57.96445924 132.6875 55.3125 C132.3471875 54.1678125 132.3471875 54.1678125 132 53 C127.90457219 51.85796048 127.90457219 51.85796048 124.0625 53.125 Z M35 54 C35 54.66 35 55.32 35 56 C35.66 56 36.32 56 37 56 C37 55.34 37 54.68 37 54 C36.34 54 35.68 54 35 54 Z M72 53 C71.34 53.66 70.68 54.32 70 55 C70.99 56.32 71.98 57.64 73 59 C73 57.02 73 55.04 73 53 C72.67 53 72.34 53 72 53 Z M70 56 C71 58 71 58 71 58 Z M35 57 C35 57.99 35 58.98 35 60 C35.66 59.34 36.32 58.68 37 58 C36.34 57.67 35.68 57.34 35 57 Z M65 58 C65 58.99 65 59.98 65 61 C66.65 60.67 68.3 60.34 70 60 C69.34 59.34 68.68 58.68 68 58 C67.01 58 66.02 58 65 58 Z " fill="#BCDDD0" transform="translate(19,4)"/>
<path d="M0 0 C1.7734375 1.4375 1.7734375 1.4375 3 3 C2.6875 5.6875 2.6875 5.6875 2 8 C0.68 8.33 -0.64 8.66 -2 9 C-1.67 11.31 -1.34 13.62 -1 16 C1.64 16 4.28 16 7 16 C7.66 13.69 8.32 11.38 9 9 C6.525 8.01 6.525 8.01 4 7 C3.625 4.75 3.625 4.75 4 2 C10.18080748 -3.17462952 16.27663267 -3.4731006 24 -3 C31.4541125 -2.13347173 31.4541125 -2.13347173 35 -1 C37 2 37 2 36.625 5.1875 C36.41875 6.115625 36.2125 7.04375 36 8 C35.01 8.33 34.02 8.66 33 9 C32.88405416 12.93725326 32.81283536 16.87406923 32.75 20.8125 C32.71648437 21.93205078 32.68296875 23.05160156 32.6484375 24.20507812 C32.63554687 25.27822266 32.62265625 26.35136719 32.609375 27.45703125 C32.58842773 28.44678955 32.56748047 29.43654785 32.54589844 30.45629883 C32.74884672 33.14867524 32.74884672 33.14867524 34.98535156 34.6940918 C35.65018555 35.1250415 36.31501953 35.55599121 37 36 C37.625 38.4375 37.625 38.4375 37 41 C32.17476316 45.07413866 28.1868664 45.74700057 22.125 46 C21.36058594 46.06316406 20.59617188 46.12632813 19.80859375 46.19140625 C14.27166179 46.48282372 9.40708516 45.58260648 5 42 C4 38.25 4 38.25 4 35 C5.98 34.505 5.98 34.505 8 34 C8.33 31.03 8.66 28.06 9 25 C5.37 25 1.74 25 -2 25 C-1.75368443 29.05085679 -1.75368443 29.05085679 -1 33 C0.92064793 34.5899433 0.92064793 34.5899433 3 35 C3.375 37.1875 3.375 37.1875 3 40 C-0.45986165 43.85951563 -2.7654707 45.30339628 -7.96875 45.62890625 C-9.81262862 45.63286307 -11.6567306 45.61005995 -13.5 45.5625 C-14.42425781 45.57345703 -15.34851563 45.58441406 -16.30078125 45.59570312 C-22.110022 45.53337222 -25.61580919 44.91625583 -30 41 C-30.5625 38.4375 -30.5625 38.4375 -30 36 C-29.50467773 35.55333984 -29.00935547 35.10667969 -28.49902344 34.64648438 C-26.51763458 32.47018364 -26.56529634 31.13076252 -26.453125 28.21875 C-26.39318359 26.83236328 -26.39318359 26.83236328 -26.33203125 25.41796875 C-26.29142578 23.97357422 -26.29142578 23.97357422 -26.25 22.5 C-26.20746094 21.53707031 -26.16492188 20.57414062 -26.12109375 19.58203125 C-25.87107991 14.20784019 -25.87107991 14.20784019 -27 9 C-28.99665314 7.31461399 -28.99665314 7.31461399 -31 6 C-30.05439197 2.81931844 -29.36909169 1.27931263 -26.6875 -0.75 C-18.37971226 -4.61408732 -8.16769597 -4.0587937 0 0 Z " fill="#F59B23" transform="translate(98,4)"/>
<path d="M0 0 C1.12378052 0.00628418 1.12378052 0.00628418 2.27026367 0.01269531 C8.85420695 0.14775056 13.52230476 1.12979572 19 5.0625 C21.19216849 8.21922262 21.5625 10.48380687 21.5625 14.3125 C19.75 17.25 19.75 17.25 17.5625 19.3125 C16.9025 19.3125 16.2425 19.3125 15.5625 19.3125 C16.05621094 19.86679687 16.54992187 20.42109375 17.05859375 20.9921875 C17.69925781 21.71664063 18.33992188 22.44109375 19 23.1875 C19.95712891 24.26644531 19.95712891 24.26644531 20.93359375 25.3671875 C23.48779437 28.41752781 23.72097032 30.27429942 23.75 34.1875 C23.76417969 35.05117188 23.77835938 35.91484375 23.79296875 36.8046875 C23.47021801 40.31665318 22.61179026 42.40160534 19.93359375 44.7265625 C10.98795958 50.32887885 2.92677848 51.02150337 -7.4375 49.3125 C-12.04029197 48.13440444 -16.21937025 46.48747315 -20.4375 44.3125 C-20.4375 43.6525 -20.4375 42.9925 -20.4375 42.3125 C-21.0975 42.3125 -21.7575 42.3125 -22.4375 42.3125 C-22.4375 41.3225 -22.4375 40.3325 -22.4375 39.3125 C-23.0975 39.3125 -23.7575 39.3125 -24.4375 39.3125 C-24.6670711 35.94545715 -24.77693529 33.89879732 -23.0625 30.9375 C-22.52625 30.40125 -21.99 29.865 -21.4375 29.3125 C-20.7775 29.3125 -20.1175 29.3125 -19.4375 29.3125 C-19.72625 28.8278125 -20.015 28.343125 -20.3125 27.84375 C-23.17458576 22.67609515 -24.10392328 19.21510616 -23.4375 13.3125 C-21.69318665 8.63039574 -19.30230974 5.47461706 -15.4375 2.3125 C-10.19874229 0.44476899 -5.48968883 -0.04176069 0 0 Z M-5.4375 10.3125 C-4.7775 11.6325 -4.1175 12.9525 -3.4375 14.3125 C-1.7875 14.3125 -0.1375 14.3125 1.5625 14.3125 C1.8925 12.9925 2.2225 11.6725 2.5625 10.3125 C-0.49013664 9.33129536 -2.38486336 9.33129536 -5.4375 10.3125 Z M-8.4375 34.3125 C-7.7775 35.6325 -7.1175 36.9525 -6.4375 38.3125 C-3.7975 38.3125 -1.1575 38.3125 1.5625 38.3125 C1.5625 37.6525 1.5625 36.9925 1.5625 36.3125 C-1.94526784 34.70894899 -4.58104879 34.09213136 -8.4375 34.3125 Z " fill="#F59B23" transform="translate(159.4375,0.6875)"/>
<path d="M0 0 C0.33 1.32 0.66 2.64 1 4 C1.556875 3.484375 2.11375 2.96875 2.6875 2.4375 C5 1 5 1 7.625 1.125 C10 2 10 2 12 5 C11.01 5.495 11.01 5.495 10 6 C9.49096745 8.71236251 9.49096745 8.71236251 9.3125 11.875 C9.22613281 12.94492187 9.13976562 14.01484375 9.05078125 15.1171875 C8.8387563 18.07108114 8.8387563 18.07108114 10 21 C10.66 20.67 11.32 20.34 12 20 C11.67 24.95 11.34 29.9 11 35 C12.32 35.33 13.64 35.66 15 36 C15.33 37.32 15.66 38.64 16 40 C10.24547579 42.49428183 4.76938083 42.22806703 -1.375 42.125 C-2.39722656 42.11597656 -3.41945313 42.10695312 -4.47265625 42.09765625 C-6.98201522 42.0742043 -9.49088336 42.04138355 -12 42 C-12.66 40.35 -13.32 38.7 -14 37 C-13.360625 36.79375 -12.72125 36.5875 -12.0625 36.375 C-9.74578687 35.14966046 -9.74578687 35.14966046 -9.25 32.4375 C-8.73230015 26.21629177 -8.73230015 26.21629177 -9 20 C-9.66 19.34 -10.32 18.68 -11 18 C-11.1953125 15.3984375 -11.1953125 15.3984375 -11.125 12.375 C-11.10695313 11.37210938 -11.08890625 10.36921875 -11.0703125 9.3359375 C-11.04710938 8.56507812 -11.02390625 7.79421875 -11 7 C-11.99 6.67 -12.98 6.34 -14 6 C-13.08486681 3.71216703 -12.34515354 2.26550272 -10.375 0.75 C-6.86146845 -0.35953628 -3.67700382 -0.12256679 0 0 Z " fill="#F69B20" transform="translate(83,4)"/>
<path d="M0 0 C1.12378052 0.00628418 1.12378052 0.00628418 2.27026367 0.01269531 C8.85420695 0.14775056 13.52230476 1.12979572 19 5.0625 C21.19216849 8.21922262 21.5625 10.48380687 21.5625 14.3125 C19.75 17.25 19.75 17.25 17.5625 19.3125 C16.9025 19.3125 16.2425 19.3125 15.5625 19.3125 C16.05621094 19.86679687 16.54992187 20.42109375 17.05859375 20.9921875 C17.69925781 21.71664063 18.33992188 22.44109375 19 23.1875 C19.95712891 24.26644531 19.95712891 24.26644531 20.93359375 25.3671875 C23.48779437 28.41752781 23.72097032 30.27429942 23.75 34.1875 C23.76417969 35.05117188 23.77835938 35.91484375 23.79296875 36.8046875 C23.47021801 40.31665318 22.61179026 42.40160534 19.93359375 44.7265625 C10.98795958 50.32887885 2.92677848 51.02150337 -7.4375 49.3125 C-12.04029197 48.13440444 -16.21937025 46.48747315 -20.4375 44.3125 C-20.4375 43.6525 -20.4375 42.9925 -20.4375 42.3125 C-21.0975 42.3125 -21.7575 42.3125 -22.4375 42.3125 C-22.4375 41.3225 -22.4375 40.3325 -22.4375 39.3125 C-23.0975 39.3125 -23.7575 39.3125 -24.4375 39.3125 C-24.6670711 35.94545715 -24.77693529 33.89879732 -23.0625 30.9375 C-22.52625 30.40125 -21.99 29.865 -21.4375 29.3125 C-20.7775 29.3125 -20.1175 29.3125 -19.4375 29.3125 C-19.72625 28.8278125 -20.015 28.343125 -20.3125 27.84375 C-23.17458576 22.67609515 -24.10392328 19.21510616 -23.4375 13.3125 C-21.69318665 8.63039574 -19.30230974 5.47461706 -15.4375 2.3125 C-10.19874229 0.44476899 -5.48968883 -0.04176069 0 0 Z M-19.125 7.6875 C-21.95841417 11.19553659 -22.50575207 13.61860396 -22.0625 18.125 C-21.85625 19.176875 -21.65 20.22875 -21.4375 21.3125 C-20.4475 21.3125 -19.4575 21.3125 -18.4375 21.3125 C-18.458125 22.199375 -18.47875 23.08625 -18.5 24 C-17.304359 27.72758665 -16.85925063 28.06350279 -13.625 29.9375 C-8.88296111 32.31997364 -3.93736261 33.86683213 1.15625 35.3203125 C2.34734375 35.81144531 2.34734375 35.81144531 3.5625 36.3125 C3.8925 37.3025 4.2225 38.2925 4.5625 39.3125 C2.2525 40.6325 -0.0575 41.9525 -2.4375 43.3125 C-2.4375 43.9725 -2.4375 44.6325 -2.4375 45.3125 C5.0443902 45.75942707 12.58771747 45.27016095 19.5625 42.3125 C22.14343966 38.68091234 22.13641903 34.62117568 21.5625 30.3125 C20.1663245 27.39322396 18.84047004 25.59047004 16.5625 23.3125 C14.03886087 22.70303267 14.03886087 22.70303267 11.1875 22.3125 C7.53824636 21.76166926 4.8312902 20.98166947 1.5625 19.3125 C0.5725 19.3125 -0.4175 19.3125 -1.4375 19.3125 C-1.4375 18.6525 -1.4375 17.9925 -1.4375 17.3125 C-2.076875 17.085625 -2.71625 16.85875 -3.375 16.625 C-5.4375 15.3125 -5.4375 15.3125 -6.1875 12.6875 C-6.27 11.90375 -6.3525 11.12 -6.4375 10.3125 C-3.91274538 9.05012269 -2.12549534 9.21393596 0.6875 9.25 C1.59757812 9.25902344 2.50765625 9.26804687 3.4453125 9.27734375 C4.49332031 9.29474609 4.49332031 9.29474609 5.5625 9.3125 C5.8925 11.6225 6.2225 13.9325 6.5625 16.3125 C7.2225 16.3125 7.8825 16.3125 8.5625 16.3125 C8.5625 16.9725 8.5625 17.6325 8.5625 18.3125 C13.42309927 18.59939921 13.42309927 18.59939921 18 17.1875 C19.82727634 15.32685236 19.82727634 15.32685236 20 12.3125 C19.80538732 9.33650127 19.80538732 9.33650127 18.1875 7.4375 C16.61783986 6.12276334 16.61783986 6.12276334 14.5625 6.3125 C14.5625 5.6525 14.5625 4.9925 14.5625 4.3125 C12.68993583 3.80345343 10.81430659 3.30567545 8.9375 2.8125 C7.89335937 2.5340625 6.84921875 2.255625 5.7734375 1.96875 C-3.21110491 0.13249316 -11.99656479 1.87914538 -19.125 7.6875 Z M-5.4375 10.3125 C-4.7775 11.6325 -4.1175 12.9525 -3.4375 14.3125 C-1.7875 14.3125 -0.1375 14.3125 1.5625 14.3125 C1.8925 12.9925 2.2225 11.6725 2.5625 10.3125 C-0.49013664 9.33129536 -2.38486336 9.33129536 -5.4375 10.3125 Z M-8.4375 34.3125 C-7.7775 35.6325 -7.1175 36.9525 -6.4375 38.3125 C-3.7975 38.3125 -1.1575 38.3125 1.5625 38.3125 C1.5625 37.6525 1.5625 36.9925 1.5625 36.3125 C-1.94526784 34.70894899 -4.58104879 34.09213136 -8.4375 34.3125 Z " fill="#F19B29" transform="translate(159.4375,0.6875)"/>
<path d="M0 0 C0.66 0.66 1.32 1.32 2 2 C2.99 1.34 3.98 0.68 5 0 C7.76655324 -0.14245897 10.42653306 -0.18769445 13.1875 -0.125 C13.93708984 -0.11597656 14.68667969 -0.10695312 15.45898438 -0.09765625 C17.30612654 -0.07412578 19.15310412 -0.03825561 21 0 C20.67 1.65 20.34 3.3 20 5 C21.98 5 23.96 5 26 5 C25.505 2.525 25.505 2.525 25 0 C26.98 0 28.96 0 31 0 C31 3.3 31 6.6 31 10 C31.66 10 32.32 10 33 10 C32.67 6.7 32.34 3.4 32 0 C36.8262665 0.55157331 39.6074855 2.6074855 43 6 C42.505 3.03 42.505 3.03 42 0 C45.75 -1.125 45.75 -1.125 48 0 C48 0.99 48 1.98 48 3 C48.495 2.505 48.99 2.01 49.5 1.5 C52.94108722 -0.56465233 56.13895796 -0.85631031 60 0 C63 2.5 63 2.5 65 5 C63.25 10.75 63.25 10.75 61 13 C55.62364396 14.62540997 52.81006205 13.40503103 48 11 C47.01 11.99 46.02 12.98 45 14 C44.01 13.34 43.02 12.68 42 12 C42 11.34 42 10.68 42 10 C41.34 10 40.68 10 40 10 C38.375 8 38.375 8 37 6 C37.20625 7.11375 37.4125 8.2275 37.625 9.375 C37.74875 10.57125 37.8725 11.7675 38 13 C35.39295102 15.60704898 33.52661759 15.23905333 29.97265625 15.265625 C28 15 28 15 25 13 C25.33 11.35 25.66 9.7 26 8 C24.02 8 22.04 8 20 8 C20.495 10.475 20.495 10.475 21 13 C17.71023192 14.09658936 16.28696233 13.79953138 13 13 C12.67 13.66 12.34 14.32 12 15 C11.37351563 14.7834375 10.74703125 14.566875 10.1015625 14.34375 C9.28429687 14.0653125 8.46703125 13.786875 7.625 13.5 C6.81289062 13.2215625 6.00078125 12.943125 5.1640625 12.65625 C3.05790758 11.90326695 3.05790758 11.90326695 1 12 C0.67 12.99 0.34 13.98 0 15 C-1.4370809 15.05422947 -2.87475462 15.09289723 -4.3125 15.125 C-5.51326172 15.15980469 -5.51326172 15.15980469 -6.73828125 15.1953125 C-9 15 -9 15 -12 13 C-12.40843923 10.28796348 -12.13336867 7.7562858 -12 5 C-12.66 4.67 -13.32 4.34 -14 4 C-14 3.34 -14 2.68 -14 2 C-14.66 2 -15.32 2 -16 2 C-15.67 5.63 -15.34 9.26 -15 13 C-16.98 13 -18.96 13 -21 13 C-21 9.7 -21 6.4 -21 3 C-22.32 3.33 -23.64 3.66 -25 4 C-24.67 2.68 -24.34 1.36 -24 0 C-16.02551101 -0.82407279 -7.92331767 -1.65971135 0 0 Z M-7 2 C-7 2.99 -7 3.98 -7 5 C-5.35 4.67 -3.7 4.34 -2 4 C-2.33 3.34 -2.66 2.68 -3 2 C-4.32 2 -5.64 2 -7 2 Z M5.1875 3.1875 C3.81161597 4.92638902 3.81161597 4.92638902 4 7.0625 C4.88984334 9.18927646 4.88984334 9.18927646 7.1875 10.375 C10.72500893 11.1611131 12.70438407 10.37956016 16 9 C15.67 7.35 15.34 5.7 15 4 C14.4225 3.855625 13.845 3.71125 13.25 3.5625 C11 3 11 3 8.9375 2.25 C6.91417139 1.77534994 6.91417139 1.77534994 5.1875 3.1875 Z M15 2 C16 4 16 4 16 4 Z M52.0625 3.125 C50.73619725 5.03554076 50.73619725 5.03554076 51.3125 7.6875 C51.539375 8.450625 51.76625 9.21375 52 10 C56.09542781 11.14203952 56.09542781 11.14203952 59.9375 9.875 C61.26380275 7.96445924 61.26380275 7.96445924 60.6875 5.3125 C60.3471875 4.1678125 60.3471875 4.1678125 60 3 C55.90457219 1.85796048 55.90457219 1.85796048 52.0625 3.125 Z M0 3 C-0.66 3.66 -1.32 4.32 -2 5 C-1.01 6.32 -0.02 7.64 1 9 C1 7.02 1 5.04 1 3 C0.67 3 0.34 3 0 3 Z M-2 6 C-1 8 -1 8 -1 8 Z M-7 8 C-7 8.99 -7 9.98 -7 11 C-5.35 10.67 -3.7 10.34 -2 10 C-2.66 9.34 -3.32 8.68 -4 8 C-4.99 8 -5.98 8 -7 8 Z " fill="#1D2535" transform="translate(91,54)"/>
<path d="M0 0 C0.66 0.66 1.32 1.32 2 2 C4.58354218 2.16687448 4.58354218 2.16687448 7 2 C7 2.99 7 3.98 7 5 C2.65395988 7.04519535 -0.13603617 8.20161508 -5 8 C-4.57847656 8.54269531 -4.15695313 9.08539063 -3.72265625 9.64453125 C-3.17480469 10.35996094 -2.62695312 11.07539063 -2.0625 11.8125 C-1.51722656 12.52019531 -0.97195312 13.22789063 -0.41015625 13.95703125 C1 16 1 16 2 19 C2.10957031 18.30132812 2.21914063 17.60265625 2.33203125 16.8828125 C2.49058594 15.97273438 2.64914063 15.06265625 2.8125 14.125 C2.96332031 13.22007813 3.11414063 12.31515625 3.26953125 11.3828125 C4 9 4 9 7 7 C7.99 7.66 8.98 8.32 10 9 C9.01 9 8.02 9 7 9 C7.12568359 9.92232422 7.12568359 9.92232422 7.25390625 10.86328125 C7.35574219 11.67152344 7.45757812 12.47976562 7.5625 13.3125 C7.66691406 14.11300781 7.77132812 14.91351563 7.87890625 15.73828125 C8 18 8 18 7 21 C7.66 21 8.32 21 9 21 C8.67 21.99 8.34 22.98 8 24 C6.02 24 4.04 24 2 24 C2 24.66 2 25.32 2 26 C1.34 26 0.68 26 0 26 C-0.103125 26.556875 -0.20625 27.11375 -0.3125 27.6875 C-1.46663735 31.56959836 -2.51252472 34.18360593 -6.19921875 36.20703125 C-8.44597525 37.20519779 -10.69849652 38.13633308 -13 39 C-13.495 37.515 -13.495 37.515 -14 36 C-15.98 36 -17.96 36 -20 36 C-18.515 35.505 -18.515 35.505 -17 35 C-17.93633212 29.23416539 -18.73376408 26.12402806 -23 22 C-23.25 18.75 -23.25 18.75 -23 16 C-22.01 16 -21.02 16 -20 16 C-20 14.35 -20 12.7 -20 11 C-19.01 11 -18.02 11 -17 11 C-17 12.65 -17 14.3 -17 16 C-16.34 15.67 -15.68 15.34 -15 15 C-14.34227572 11.97065509 -14.34227572 11.97065509 -14 9 C-13.34 9 -12.68 9 -12 9 C-12 8.34 -12 7.68 -12 7 C-10.35 7 -8.7 7 -7 7 C-7.66 5.68 -8.32 4.36 -9 3 C-8.030625 2.855625 -7.06125 2.71125 -6.0625 2.5625 C-3.13513227 2.32437659 -3.13513227 2.32437659 -2 1 C-1.34 0.67 -0.68 0.34 0 0 Z M-11 10 C-11 11.65 -11 13.3 -11 15 C-10.01 15.33 -9.02 15.66 -8 16 C-8.45142881 17.29409592 -8.91141021 18.58521059 -9.375 19.875 C-9.63023438 20.59429687 -9.88546875 21.31359375 -10.1484375 22.0546875 C-11 24 -11 24 -13 26 C-13.24212873 27.98128508 -13.24212873 27.98128508 -13.125 30.125 C-13.08375 31.40375 -13.0425 32.6825 -13 34 C-8.02965572 34 -6.36302433 33.24943897 -2.75 29.9375 C-0.3418823 25.89530243 -0.30864786 22.59790821 -1 18 C-2.0636649 14.99879395 -2.0636649 14.99879395 -4 13 C-6.05925139 12.27617533 -6.05925139 12.27617533 -8 12 C-8.33 11.34 -8.66 10.68 -9 10 C-9.66 10 -10.32 10 -11 10 Z " fill="#B2CBC1" transform="translate(55,16)"/>
<path d="M0 0 C1.7734375 1.4375 1.7734375 1.4375 3 3 C2.6875 5.6875 2.6875 5.6875 2 8 C0.68 8.33 -0.64 8.66 -2 9 C-1.67 11.31 -1.34 13.62 -1 16 C1.64 16 4.28 16 7 16 C7.66 13.69 8.32 11.38 9 9 C6.525 8.01 6.525 8.01 4 7 C3.625 4.75 3.625 4.75 4 2 C10.18080748 -3.17462952 16.27663267 -3.4731006 24 -3 C31.4541125 -2.13347173 31.4541125 -2.13347173 35 -1 C37 2 37 2 36.625 5.1875 C36.41875 6.115625 36.2125 7.04375 36 8 C35.01 8.33 34.02 8.66 33 9 C32.88405416 12.93725326 32.81283536 16.87406923 32.75 20.8125 C32.71648437 21.93205078 32.68296875 23.05160156 32.6484375 24.20507812 C32.63554687 25.27822266 32.62265625 26.35136719 32.609375 27.45703125 C32.58842773 28.44678955 32.56748047 29.43654785 32.54589844 30.45629883 C32.74884672 33.14867524 32.74884672 33.14867524 34.98535156 34.6940918 C35.65018555 35.1250415 36.31501953 35.55599121 37 36 C37.625 38.4375 37.625 38.4375 37 41 C32.15279557 45.13392909 28.12136069 45.69158321 21.875 45.875 C21.07707031 45.92140625 20.27914062 45.9678125 19.45703125 46.015625 C12.33402133 46.32480406 12.33402133 46.32480406 9 44 C9 43.67 9 43.34 9 43 C16.59 42.67 24.18 42.34 32 42 C32.66 40.35 33.32 38.7 34 37 C32.68 36.67 31.36 36.34 30 36 C30 26.1 30 16.2 30 6 C31.32 6 32.64 6 34 6 C34 5.01 34 4.02 34 3 C28.55505749 1.18501916 23.40802521 0.78083841 17.6875 0.75 C16.98173828 0.74097656 16.27597656 0.73195313 15.54882812 0.72265625 C11.82204516 0.74409508 10.17753516 0.88164323 7 3 C6.27617533 5.05925139 6.27617533 5.05925139 6 7 C6.639375 7.12375 7.27875 7.2475 7.9375 7.375 C8.618125 7.58125 9.29875 7.7875 10 8 C11.60725635 11.21451269 11.05748185 14.43612536 11 18 C6.05 18 1.1 18 -4 18 C-4.125 10.375 -4.125 10.375 -3 7 C-2.01 7 -1.02 7 0 7 C0 5.35 0 3.7 0 2 C-4.6896035 0.81575669 -9.25891962 0.81637698 -14.0625 0.8125 C-15.26616211 0.79413086 -15.26616211 0.79413086 -16.49414062 0.77539062 C-22.08632847 0.64085033 -22.08632847 0.64085033 -27 3 C-27.33 3.99 -27.66 4.98 -28 6 C-27.34 6.33 -26.68 6.66 -26 7 C-26.33 7.66 -26.66 8.32 -27 9 C-28.32 8.01 -29.64 7.02 -31 6 C-30.05439197 2.81931844 -29.36909169 1.27931263 -26.6875 -0.75 C-18.37971226 -4.61408732 -8.16769597 -4.0587937 0 0 Z " fill="#E0AB56" transform="translate(98,4)"/>
<path d="M0 0 C3.03429499 0.54163039 5.95963645 0.42735458 9.03515625 0.36328125 C9.03515625 4.65328125 9.03515625 8.94328125 9.03515625 13.36328125 C7.05515625 13.36328125 5.07515625 13.36328125 3.03515625 13.36328125 C3.03515625 11.71328125 3.03515625 10.06328125 3.03515625 8.36328125 C2.72578125 9.14703125 2.41640625 9.93078125 2.09765625 10.73828125 C1.03515625 13.36328125 1.03515625 13.36328125 0.03515625 15.36328125 C-1.40494856 15.1066588 -2.84191245 14.83237304 -4.27734375 14.55078125 C-5.47810547 14.32455078 -5.47810547 14.32455078 -6.703125 14.09375 C-9.19929962 13.28755889 -10.28906481 12.34276123 -11.96484375 10.36328125 C-12.39796875 10.85828125 -12.83109375 11.35328125 -13.27734375 11.86328125 C-14.96484375 13.36328125 -14.96484375 13.36328125 -17.96484375 13.36328125 C-18.29484375 14.02328125 -18.62484375 14.68328125 -18.96484375 15.36328125 C-20.07859375 14.86828125 -21.19234375 14.37328125 -22.33984375 13.86328125 C-25.61900124 12.23583065 -25.61900124 12.23583065 -27.96484375 12.36328125 C-28.95484375 13.02328125 -29.94484375 13.68328125 -30.96484375 14.36328125 C-33.90234375 15.17578125 -33.90234375 15.17578125 -36.96484375 15.36328125 C-38.28484375 14.37328125 -39.60484375 13.38328125 -40.96484375 12.36328125 C-40.30484375 9.06328125 -39.64484375 5.76328125 -38.96484375 2.36328125 C-39.62484375 2.03328125 -40.28484375 1.70328125 -40.96484375 1.36328125 C-39.96484375 0.36328125 -39.96484375 0.36328125 -36.90234375 0.30078125 C-35.44828125 0.33171875 -35.44828125 0.33171875 -33.96484375 0.36328125 C-33.96484375 3.66328125 -33.96484375 6.96328125 -33.96484375 10.36328125 C-32.64484375 10.36328125 -31.32484375 10.36328125 -29.96484375 10.36328125 C-29.59359375 9.00203125 -29.59359375 9.00203125 -29.21484375 7.61328125 C-27.86133629 4.09416184 -27.07124603 2.48871439 -23.96484375 0.36328125 C-19.97434579 -0.36748895 -16.96608894 -0.23746586 -13.46484375 1.86328125 C-12.96984375 2.35828125 -12.47484375 2.85328125 -11.96484375 3.36328125 C-11.13984375 2.68265625 -10.31484375 2.00203125 -9.46484375 1.30078125 C-6.20079648 -0.88805045 -3.88593154 -0.74124706 0 0 Z M2.03515625 1.36328125 C2.36515625 3.01328125 2.69515625 4.66328125 3.03515625 6.36328125 C3.36515625 5.04328125 3.69515625 3.72328125 4.03515625 2.36328125 C3.37515625 2.03328125 2.71515625 1.70328125 2.03515625 1.36328125 Z M-23.77734375 3.55078125 C-25.25368025 5.38174302 -25.25368025 5.38174302 -24.65234375 8.05078125 C-24.42546875 8.81390625 -24.19859375 9.57703125 -23.96484375 10.36328125 C-21.10706342 11.04821498 -21.10706342 11.04821498 -17.96484375 11.36328125 C-16.97484375 10.70328125 -15.98484375 10.04328125 -14.96484375 9.36328125 C-14.46484375 6.86328125 -14.46484375 6.86328125 -14.96484375 4.36328125 C-18.20690536 2.20190684 -20.29682686 1.2704426 -23.77734375 3.55078125 Z M-5.96484375 2.36328125 C-8.2032939 4.19243766 -8.2032939 4.19243766 -8.27734375 6.86328125 C-8.17421875 7.68828125 -8.07109375 8.51328125 -7.96484375 9.36328125 C-5.24935221 11.6700004 -5.24935221 11.6700004 -2.77734375 10.98828125 C-2.17921875 10.78203125 -1.58109375 10.57578125 -0.96484375 10.36328125 C-0.96484375 7.25070556 -1.13845999 5.2556244 -1.96484375 2.36328125 C-3.28484375 2.36328125 -4.60484375 2.36328125 -5.96484375 2.36328125 Z " fill="#181F2E" transform="translate(195.96484375,53.63671875)"/>
<path d="M0 0 C0.66 0.33 1.32 0.66 2 1 C2.38749213 3.32495277 2.71758117 5.6599583 3 8 C3.33 8.99 3.66 9.98 4 11 C4.928125 11.2165625 4.928125 11.2165625 5.875 11.4375 C8.7073715 12.1872454 9.44987517 13.59730651 11 16 C10.34 16.33 9.68 16.66 9 17 C9 17.99 9 18.98 9 20 C9.61488281 19.89300781 10.22976562 19.78601563 10.86328125 19.67578125 C11.67152344 19.55589844 12.47976562 19.43601562 13.3125 19.3125 C14.51326172 19.12107422 14.51326172 19.12107422 15.73828125 18.92578125 C18 19 18 19 19.79296875 20.48046875 C20.19128906 20.98191406 20.58960937 21.48335937 21 22 C17.59437148 22.77842938 14.49234244 23.09978121 11 23 C10.67 23.99 10.34 24.98 10 26 C9.34 26 8.68 26 8 26 C6.82672797 30.83974712 6.0697687 35.73256121 8 40.4375 C8.33 40.953125 8.66 41.46875 9 42 C7.515 42.495 7.515 42.495 6 43 C5.34 41.02 4.68 39.04 4 37 C3.34 37 2.68 37 2 37 C2 36.34 2 35.68 2 35 C1.34 35 0.68 35 0 35 C-0.12375 34.195625 -0.2475 33.39125 -0.375 32.5625 C-0.58125 31.716875 -0.7875 30.87125 -1 30 C-1.66 29.67 -2.32 29.34 -3 29 C-3.40729228 26.67843403 -3.74438677 24.3431213 -4 22 C-5.98 21.34 -7.96 20.68 -10 20 C-10 19.67 -10 19.34 -10 19 C-7.69 19 -5.38 19 -3 19 C-2.01 15.535 -2.01 15.535 -1 12 C-3.97 11.67 -6.94 11.34 -10 11 C-10 10.34 -10 9.68 -10 9 C-7.36 8.34 -4.72 7.68 -2 7 C-2.04125 6.21625 -2.0825 5.4325 -2.125 4.625 C-2 2 -2 2 0 0 Z M3 16 C4 18 4 18 4 18 Z M3 21 C1.66695302 23.89186786 1.66695302 23.89186786 2.9375 26.1875 C3.288125 26.785625 3.63875 27.38375 4 28 C6.35953094 25.64046906 6.49141413 24.22104383 7 21 C5.68 21 4.36 21 3 21 Z " fill="#B9D7CA" transform="translate(19,4)"/>
<path d="M0 0 C1.12378052 0.00628418 1.12378052 0.00628418 2.27026367 0.01269531 C8.85420695 0.14775056 13.52230476 1.12979572 19 5.0625 C21.08692325 8.06766948 21.28544007 10.71072093 21.5625 14.3125 C20.9025 14.6425 20.2425 14.9725 19.5625 15.3125 C19.294375 14.19875 19.02625 13.085 18.75 11.9375 C17.90440981 8.09409049 17.90440981 8.09409049 14.5625 6.3125 C14.5625 5.6525 14.5625 4.9925 14.5625 4.3125 C12.41839401 4.074266 10.27409454 3.83765795 8.12890625 3.609375 C6.50780128 3.42184992 4.88944517 3.20665206 3.27734375 2.953125 C-3.46965458 1.95356969 -9.0969927 2.7874858 -15.3125 5.625 C-18.83419391 8.42163928 -20.16564583 11.15711978 -21.1875 15.5 C-21.68095475 18.26279852 -21.68095475 18.26279852 -20.4375 20.3125 C-19.4475 20.6425 -18.4575 20.9725 -17.4375 21.3125 C-17.4375 22.22 -17.4375 23.1275 -17.4375 24.0625 C-16.72160179 27.64585634 -16.72160179 27.64585634 -13.0625 29.4375 C-7.95711674 31.64673857 -2.69350652 33.49608598 2.5625 35.3125 C2.5625 36.6325 2.5625 37.9525 2.5625 39.3125 C0.04196405 40.57276798 -1.2917098 40.23124445 -4.0625 39.875 C-4.87976563 39.77316406 -5.69703125 39.67132813 -6.5390625 39.56640625 C-7.16554687 39.48261719 -7.79203125 39.39882813 -8.4375 39.3125 C-9.4275 35.8475 -9.4275 35.8475 -10.4375 32.3125 C-15.71949593 31.11261955 -15.71949593 31.11261955 -20.4375 33.3125 C-20.86093826 36.55885996 -20.88709586 38.54052511 -19.22265625 41.3984375 C-15.19922697 45.71239887 -8.56610633 46.1577987 -2.91943359 46.43701172 C2.91140949 46.56365541 8.73310404 46.46802736 14.5625 46.3125 C14.0675 47.3025 14.0675 47.3025 13.5625 48.3125 C1.79556933 51.97760955 -9.64335324 49.87823192 -20.4375 44.3125 C-20.4375 43.6525 -20.4375 42.9925 -20.4375 42.3125 C-21.0975 42.3125 -21.7575 42.3125 -22.4375 42.3125 C-22.4375 41.3225 -22.4375 40.3325 -22.4375 39.3125 C-23.0975 39.3125 -23.7575 39.3125 -24.4375 39.3125 C-24.6670711 35.94545715 -24.77693529 33.89879732 -23.0625 30.9375 C-22.52625 30.40125 -21.99 29.865 -21.4375 29.3125 C-20.7775 29.3125 -20.1175 29.3125 -19.4375 29.3125 C-19.72625 28.8278125 -20.015 28.343125 -20.3125 27.84375 C-23.17458576 22.67609515 -24.10392328 19.21510616 -23.4375 13.3125 C-21.69318665 8.63039574 -19.30230974 5.47461706 -15.4375 2.3125 C-10.19874229 0.44476899 -5.48968883 -0.04176069 0 0 Z M-8.4375 34.3125 C-7.7775 35.6325 -7.1175 36.9525 -6.4375 38.3125 C-3.7975 38.3125 -1.1575 38.3125 1.5625 38.3125 C1.5625 37.6525 1.5625 36.9925 1.5625 36.3125 C-1.94526784 34.70894899 -4.58104879 34.09213136 -8.4375 34.3125 Z " fill="#E3A648" transform="translate(159.4375,0.6875)"/>
<path d="M0 0 C4.95 0.99 4.95 0.99 10 2 C10 2.66 10 3.32 10 4 C8.68 4 7.36 4 6 4 C6 6.31 6 8.62 6 11 C8.475 11.99 8.475 11.99 11 13 C11 13.33 11 13.66 11 14 C8.69 14 6.38 14 4 14 C4.18129815 17.43793339 4.18129815 17.43793339 5 21 C6.93597032 22.51294288 6.93597032 22.51294288 9 23 C7 25 7 25 3.98828125 25.01171875 C2.77527344 24.90472656 1.56226563 24.79773438 0.3125 24.6875 C-1.57275391 24.52701172 -1.57275391 24.52701172 -3.49609375 24.36328125 C-6.09946455 24.09336655 -8.66700467 23.78630499 -11.25 23.375 C-13.95552088 22.74277642 -13.95552088 22.74277642 -16 24 C-16.55816406 23.84402344 -17.11632812 23.68804687 -17.69140625 23.52734375 C-21.93504636 22.55798433 -26.29765278 23.49612013 -30.58984375 23.94140625 C-34.04601027 24.00079055 -35.9843348 23.63440249 -39 22 C-40.3125 19.875 -40.3125 19.875 -41 18 C-40.01 18.33 -39.02 18.66 -38 19 C-38 19.66 -38 20.32 -38 21 C-36.77410156 20.75443359 -36.77410156 20.75443359 -35.5234375 20.50390625 C-31.51231824 19.93025394 -27.66751879 19.88998396 -23.625 19.9375 C-22.88894531 19.94201172 -22.15289062 19.94652344 -21.39453125 19.95117188 C-19.59631842 19.96284858 -17.79814803 19.98077989 -16 20 C-15.67 18.68 -15.34 17.36 -15 16 C-14.01 16.33 -13.02 16.66 -12 17 C-11.34 16.67 -10.68 16.34 -10 16 C-8.32345271 16.27942455 -6.65391846 16.60828247 -5 17 C-4.67 15.35 -4.34 13.7 -4 12 C-3.01 11.67 -2.02 11.34 -1 11 C-1 10.236875 -1 9.47375 -1 8.6875 C-1 3 -1 3 0 0 Z M-1 16 C-1 16.66 -1 17.32 -1 18 C-0.34 18 0.32 18 1 18 C1 17.34 1 16.68 1 16 C0.34 16 -0.32 16 -1 16 Z M-1 19 C-1 19.99 -1 20.98 -1 22 C-0.34 21.34 0.32 20.68 1 20 C0.34 19.67 -0.32 19.34 -1 19 Z " fill="#B5D4CC" transform="translate(55,42)"/>
<path d="M0 0 C2.56016973 0.33708901 4.90899698 0.5625 7.5 0.5625 C10.16666667 0.5625 12.83333333 0.5625 15.5 0.5625 C16.16 1.8825 16.82 3.2025 17.5 4.5625 C16.84 5.2225 16.18 5.8825 15.5 6.5625 C16.16 7.2225 16.82 7.8825 17.5 8.5625 C17.5 9.8825 17.5 11.2025 17.5 12.5625 C12.10490463 15.6278951 12.10490463 15.6278951 9.1875 15.3125 C7.5 14.5625 7.5 14.5625 6.5 13.5625 C6.17 14.2225 5.84 14.8825 5.5 15.5625 C-0.44 15.5625 -6.38 15.5625 -12.5 15.5625 C-12.5 15.2325 -12.5 14.9025 -12.5 14.5625 C-10.85 14.2325 -9.2 13.9025 -7.5 13.5625 C-7.5 9.2725 -7.5 4.9825 -7.5 0.5625 C-4.43502117 -0.45915961 -3.1158652 -0.4206418 0 0 Z M-2.5 2.5625 C-2.83 3.5525 -3.16 4.5425 -3.5 5.5625 C-2.18 5.2325 -0.86 4.9025 0.5 4.5625 C-0.16 4.5625 -0.82 4.5625 -1.5 4.5625 C-1.83 3.9025 -2.16 3.2425 -2.5 2.5625 Z M9.5 2.5625 C10.49 3.0575 10.49 3.0575 11.5 3.5625 C11.5 4.2225 11.5 4.8825 11.5 5.5625 C12.16 5.5625 12.82 5.5625 13.5 5.5625 C13.17 4.5725 12.84 3.5825 12.5 2.5625 C11.51 2.5625 10.52 2.5625 9.5 2.5625 Z M4.5 3.5625 C4.17 4.2225 3.84 4.8825 3.5 5.5625 C4.16 5.5625 4.82 5.5625 5.5 5.5625 C5.17 4.9025 4.84 4.2425 4.5 3.5625 Z M2.5 5.5625 C3.5 7.5625 3.5 7.5625 3.5 7.5625 Z M4.5 6.5625 C4.5 7.2225 4.5 7.8825 4.5 8.5625 C5.49 8.2325 6.48 7.9025 7.5 7.5625 C6.51 7.2325 5.52 6.9025 4.5 6.5625 Z M8.5 7.5625 C8.83 8.8825 9.16 10.2025 9.5 11.5625 C11.15 11.2325 12.8 10.9025 14.5 10.5625 C13.88125 10.253125 13.2625 9.94375 12.625 9.625 C11.25 8.9375 9.875 8.25 8.5 7.5625 Z M0.5 9.5625 C0.83 10.2225 1.16 10.8825 1.5 11.5625 C1.83 10.9025 2.16 10.2425 2.5 9.5625 C1.84 9.5625 1.18 9.5625 0.5 9.5625 Z " fill="#1C2332" transform="translate(213.5,53.4375)"/>
<path d="M0 0 C0 0.99 0 1.98 0 3 C0.495 2.505 0.99 2.01 1.5 1.5 C4.94108722 -0.56465233 8.13895796 -0.85631031 12 0 C15 2.5 15 2.5 17 5 C15.25 10.75 15.25 10.75 13 13 C7.62364396 14.62540997 4.81006205 13.40503103 0 11 C-0.99 11.99 -1.98 12.98 -3 14 C-3.99 13.34 -4.98 12.68 -6 12 C-6 11.34 -6 10.68 -6 10 C-6.66 10 -7.32 10 -8 10 C-9.625 8 -9.625 8 -11 6 C-10.79375 7.11375 -10.5875 8.2275 -10.375 9.375 C-10.25125 10.57125 -10.1275 11.7675 -10 13 C-12 15 -12 15 -13.9453125 15.1953125 C-15.96354167 15.13020833 -17.98177083 15.06510417 -20 15 C-18.625 12.5 -18.625 12.5 -17 10 C-16.34 10 -15.68 10 -15 10 C-15.33 6.7 -15.66 3.4 -16 0 C-11.1737335 0.55157331 -8.3925145 2.6074855 -5 6 C-5.33 4.02 -5.66 2.04 -6 0 C-3.50907189 -1.24546405 -2.58919267 -0.7767578 0 0 Z M4.0625 3.125 C2.73619725 5.03554076 2.73619725 5.03554076 3.3125 7.6875 C3.539375 8.450625 3.76625 9.21375 4 10 C8.09542781 11.14203952 8.09542781 11.14203952 11.9375 9.875 C13.26380275 7.96445924 13.26380275 7.96445924 12.6875 5.3125 C12.3471875 4.1678125 12.3471875 4.1678125 12 3 C7.90457219 1.85796048 7.90457219 1.85796048 4.0625 3.125 Z " fill="#111A29" transform="translate(139,54)"/>
<path d="M0 0 C0.99 0.33 1.98 0.66 3 1 C3.21802745 7.01998014 3.28020848 12.35948428 1 18 C0.01 18.33 -0.98 18.66 -2 19 C-1.67 20.32 -1.34 21.64 -1 23 C2.5624827 23.02913821 6.12493454 23.04684529 9.6875 23.0625 C10.69490234 23.07087891 11.70230469 23.07925781 12.74023438 23.08789062 C13.71669922 23.09111328 14.69316406 23.09433594 15.69921875 23.09765625 C16.59471436 23.10289307 17.49020996 23.10812988 18.4128418 23.11352539 C21.03641759 22.99840198 23.44293053 22.58234285 26 22 C25.73323796 20.01508358 25.73323796 20.01508358 25 18 C24.01 17.67 23.02 17.34 22 17 C22 13.04 22 9.08 22 5 C26.95 5 31.9 5 37 5 C37 8.63 37 12.26 37 16 C36.34 16 35.68 16 35 16 C35 16.66 35 17.32 35 18 C34.01 18 33.02 18 32 18 C32.66 20.31 33.32 22.62 34 25 C33.01 24.67 32.02 24.34 31 24 C30.505 20.535 30.505 20.535 30 17 C31.32 16.67 32.64 16.34 34 16 C34.33 13.03 34.66 10.06 35 7 C31.37 7 27.74 7 24 7 C24.24631557 11.05085679 24.24631557 11.05085679 25 15 C26.92064793 16.5899433 26.92064793 16.5899433 29 17 C29.375 19.1875 29.375 19.1875 29 22 C25.54013835 25.85951563 23.2345293 27.30339628 18.03125 27.62890625 C16.18737138 27.63286307 14.3432694 27.61005995 12.5 27.5625 C11.57574219 27.57345703 10.65148437 27.58441406 9.69921875 27.59570312 C3.889978 27.53337222 0.38419081 26.91625583 -4 23 C-4.5625 20.4375 -4.5625 20.4375 -4 18 C-3.50757812 17.61328125 -3.01515625 17.2265625 -2.5078125 16.828125 C-0.17432297 13.99892008 -0.42750285 10.83158712 -0.3125 7.3125 C-0.27833984 6.61060547 -0.24417969 5.90871094 -0.20898438 5.18554688 C-0.12670053 3.45758613 -0.0616676 1.72881928 0 0 Z " fill="#D59C4B" transform="translate(72,22)"/>
<path d="M0 0 C0.66 0.33 1.32 0.66 2 1 C2.40729228 3.32156597 2.74438677 5.6568787 3 8 C3.66 8 4.32 8 5 8 C5 8.66 5 9.32 5 10 C6.45903258 9.69078116 7.91720722 9.37751201 9.375 9.0625 C10.18710938 8.88847656 10.99921875 8.71445312 11.8359375 8.53515625 C14.029463 8.07669307 14.029463 8.07669307 16 7 C15.34 8.32 14.68 9.64 14 11 C13.34 11 12.68 11 12 11 C12.49371094 11.55429687 12.98742187 12.10859375 13.49609375 12.6796875 C14.13675781 13.40414063 14.77742188 14.12859375 15.4375 14.875 C16.07558594 15.59429687 16.71367187 16.31359375 17.37109375 17.0546875 C19.92529437 20.10502781 20.15847032 21.96179942 20.1875 25.875 C20.20167969 26.73867188 20.21585938 27.60234375 20.23046875 28.4921875 C19.89016237 32.19518234 18.80758886 34.2705649 16.0625 36.75 C14 38 14 38 11 38 C11 37.34 11 36.68 11 36 C11.61875 35.7525 12.2375 35.505 12.875 35.25 C15.51939985 33.69447068 16.07669938 32.92378529 17 30 C17.43090803 24.57055878 17.39154272 21.47683639 14 17 C12.33987188 15.33987188 10.14780274 15.47799661 7.875 15.125 C3.15537863 14.31275747 -0.70954906 13.09755379 -5 11 C-5 10.34 -5 9.68 -5 9 C-5.804375 8.773125 -6.60875 8.54625 -7.4375 8.3125 C-8.283125 7.879375 -9.12875 7.44625 -10 7 C-10.8125 4.375 -10.8125 4.375 -11 2 C-6.94641576 -0.70238949 -4.81689896 -0.22937614 0 0 Z M-9 2 C-8.34 3.32 -7.68 4.64 -7 6 C-5.35 6 -3.7 6 -2 6 C-1.67 4.68 -1.34 3.36 -1 2 C-4.05263664 1.01879536 -5.94736336 1.01879536 -9 2 Z " fill="#E79C2F" transform="translate(163,9)"/>
<path d="M0 0 C0.99 0 1.98 0 3 0 C3 1.65 3 3.3 3 5 C3.66 4.67 4.32 4.34 5 4 C5.65213292 1.97536745 5.65213292 1.97536745 6 0 C6.99 0 7.98 0 9 0 C9.12375 0.639375 9.2475 1.27875 9.375 1.9375 C9.58125 2.618125 9.7875 3.29875 10 4 C10.66 4.33 11.32 4.66 12 5 C11.56732408 9.58636471 11.29776257 11.84561842 8 15 C7.95834635 16.66614608 7.95834635 18.33385392 8 20 C7.34 20.99 6.68 21.98 6 23 C5.01 23 4.02 23 3 23 C2.81824219 22.38511719 2.63648438 21.77023438 2.44921875 21.13671875 C2.19785156 20.32847656 1.94648437 19.52023438 1.6875 18.6875 C1.44386719 17.88699219 1.20023438 17.08648437 0.94921875 16.26171875 C0.14369657 13.94268765 0.14369657 13.94268765 -1.59375 12.40625 C-3 11 -3 11 -3.1875 7.8125 C-3.125625 6.884375 -3.06375 5.95625 -3 5 C-2.01 5 -1.02 5 0 5 C0 3.35 0 1.7 0 0 Z " fill="#29394E" transform="translate(35,27)"/>
<path d="M0 0 C0 1.32 0 2.64 0 4 C-2.31 3.34 -4.62 2.68 -7 2 C-7 2.99 -7 3.98 -7 5 C-5.68 4.67 -4.36 4.34 -3 4 C-3 5.65 -3 7.3 -3 9 C-4.32 8.67 -5.64 8.34 -7 8 C-7 8.99 -7 9.98 -7 11 C-5.68 11 -4.36 11 -3 11 C-3.33 11.99 -3.66 12.98 -4 14 C-6.3125 14.625 -6.3125 14.625 -9 15 C-9.99 14.34 -10.98 13.68 -12 13 C-12.40843923 10.28796348 -12.13336867 7.7562858 -12 5 C-12.66 4.67 -13.32 4.34 -14 4 C-14 3.34 -14 2.68 -14 2 C-14.66 2 -15.32 2 -16 2 C-15.67 5.63 -15.34 9.26 -15 13 C-16.98 13 -18.96 13 -21 13 C-21 9.7 -21 6.4 -21 3 C-22.32 3.33 -23.64 3.66 -25 4 C-24.67 2.68 -24.34 1.36 -24 0 C-15.83382806 -0.84388104 -8.15002924 -1.06162705 0 0 Z " fill="#212A38" transform="translate(91,54)"/>
<path d="M0 0 C2.20805524 -0.0544452 4.41650554 -0.09299283 6.625 -0.125 C7.85476562 -0.14820313 9.08453125 -0.17140625 10.3515625 -0.1953125 C14.6879027 0.03682563 18.13332958 1.06666479 22 3 C22.625 6.0625 22.625 6.0625 23 9 C22.01 9.33 21.02 9.66 20 10 C19.88405416 13.93725326 19.81283536 17.87406923 19.75 21.8125 C19.71648437 22.93205078 19.68296875 24.05160156 19.6484375 25.20507812 C19.62910156 26.81479492 19.62910156 26.81479492 19.609375 28.45703125 C19.5779541 29.9416687 19.5779541 29.9416687 19.54589844 31.45629883 C19.74884672 34.14867524 19.74884672 34.14867524 21.98535156 35.6940918 C22.65018555 36.1250415 23.31501953 36.55599121 24 37 C24.625 39.4375 24.625 39.4375 24 42 C19.15279557 46.13392909 15.12136069 46.69158321 8.875 46.875 C8.07707031 46.92140625 7.27914062 46.9678125 6.45703125 47.015625 C-0.66597867 47.32480406 -0.66597867 47.32480406 -4 45 C-4 44.67 -4 44.34 -4 44 C3.59 43.67 11.18 43.34 19 43 C19.66 41.35 20.32 39.7 21 38 C19.68 37.67 18.36 37.34 17 37 C17 27.1 17 17.2 17 7 C18.32 7 19.64 7 21 7 C21 6.01 21 5.02 21 4 C14.04567778 1.95461111 7.22124213 1.41830366 0 1 C0 0.67 0 0.34 0 0 Z " fill="#E19F3D" transform="translate(111,3)"/>
<path d="M0 0 C0.66 0.33 1.32 0.66 2 1 C2 2.65 2 4.3 2 6 C2.66 6.33 3.32 6.66 4 7 C3.01 7 2.02 7 1 7 C1.57344937 9.86724686 1.8614515 10.8614515 4 13 C4.265625 15.09375 4.265625 15.09375 4.25 17.5 C4.25515625 18.2940625 4.2603125 19.088125 4.265625 19.90625 C4 22 4 22 2 24 C2.66 24 3.32 24 4 24 C3.67 24.99 3.34 25.98 3 27 C2.34 27 1.68 27 1 27 C1 26.34 1 25.68 1 25 C-0.32 24.34 -1.64 23.68 -3 23 C-3 21.02 -3 19.04 -3 17 C-4.32 16.34 -5.64 15.68 -7 15 C-7 13 -7 13 -5 11 C-5.66 10.67 -6.32 10.34 -7 10 C-7 8.02 -7 6.04 -7 4 C-5.02 3.67 -3.04 3.34 -1 3 C-0.67 2.01 -0.34 1.02 0 0 Z " fill="#C7E7D7" transform="translate(17,33)"/>
<path d="M0 0 C3.3 0.66 6.6 1.32 10 2 C10 2.66 10 3.32 10 4 C8.68 4 7.36 4 6 4 C6 6.31 6 8.62 6 11 C8.475 11.99 8.475 11.99 11 13 C11 13.33 11 13.66 11 14 C8.69 14 6.38 14 4 14 C4 16.31 4 18.62 4 21 C2.68 21.33 1.36 21.66 0 22 C-0.33 21.34 -0.66 20.68 -1 20 C-3.52733235 19.34444881 -3.52733235 19.34444881 -6 19 C-5.1875 15.5625 -5.1875 15.5625 -4 12 C-3.01 11.67 -2.02 11.34 -1 11 C-1 10.236875 -1 9.47375 -1 8.6875 C-1 3 -1 3 0 0 Z M-1 16 C-1 16.66 -1 17.32 -1 18 C-0.34 18 0.32 18 1 18 C1 17.34 1 16.68 1 16 C0.34 16 -0.32 16 -1 16 Z " fill="#BAD1CC" transform="translate(55,42)"/>
<path d="M0 0 C0.33 0.66 0.66 1.32 1 2 C-2.40562852 2.77842938 -5.50765756 3.09978121 -9 3 C-9.33 3.99 -9.66 4.98 -10 6 C-10.66 6 -11.32 6 -12 6 C-13.17327203 10.83974712 -13.9302313 15.73256121 -12 20.4375 C-11.67 20.953125 -11.34 21.46875 -11 22 C-11.99 22.33 -12.98 22.66 -14 23 C-14.66 21.02 -15.32 19.04 -16 17 C-16.66 17 -17.32 17 -18 17 C-18 16.34 -18 15.68 -18 15 C-18.66 15 -19.32 15 -20 15 C-20.12375 14.195625 -20.2475 13.39125 -20.375 12.5625 C-20.684375 11.2940625 -20.684375 11.2940625 -21 10 C-21.66 9.67 -22.32 9.34 -23 9 C-23 7.02 -23 5.04 -23 3 C-22.34 3 -21.68 3 -21 3 C-20.67 2.01 -20.34 1.02 -20 0 C-20 0.66 -20 1.32 -20 2 C-19.34 2 -18.68 2 -18 2 C-17.34 3.65 -16.68 5.3 -16 7 C-15.443125 6.236875 -14.88625 5.47375 -14.3125 4.6875 C-9.81423836 -0.54020947 -6.80314292 -1.70078573 0 0 Z " fill="#B5D8C9" transform="translate(39,24)"/>
<path d="M0 0 C2 1 2 1 2.75 3.125 C3.0678148 6.77987025 2.15126966 9.54619101 1 13 C0.01 12.34 -0.98 11.68 -2 11 C-2.33 12.65 -2.66 14.3 -3 16 C-2.34 16 -1.68 16 -1 16 C-1 16.99 -1 17.98 -1 19 C-2.98 18.67 -4.96 18.34 -7 18 C-6.34 17.67 -5.68 17.34 -5 17 C-5.66 16.67 -6.32 16.34 -7 16 C-8.05390562 11.05122578 -8.46684337 5.88947792 -7 1 C-5.824375 1.309375 -5.824375 1.309375 -4.625 1.625 C-3.75875 1.74875 -2.8925 1.8725 -2 2 C-1.34 1.34 -0.68 0.68 0 0 Z " fill="#C5E1D7" transform="translate(45,4)"/>
<path d="M0 0 C4.95 0 9.9 0 15 0 C15 3.63 15 7.26 15 11 C14.34 11 13.68 11 13 11 C13 11.66 13 12.32 13 13 C12.01 13 11.02 13 10 13 C10.66 15.31 11.32 17.62 12 20 C11.01 19.67 10.02 19.34 9 19 C8.67 16.69 8.34 14.38 8 12 C9.32 11.67 10.64 11.34 12 11 C12.33 8.03 12.66 5.06 13 2 C9.37 2 5.74 2 2 2 C2.24631557 6.05085679 2.24631557 6.05085679 3 10 C4.92064793 11.5899433 4.92064793 11.5899433 7 12 C7.36923077 16.55384615 7.36923077 16.55384615 5.5 18.8125 C5.005 19.204375 4.51 19.59625 4 20 C3.34 19.67 2.68 19.34 2 19 C2.66 18.34 3.32 17.68 4 17 C3.91428339 14.90708843 3.91428339 14.90708843 3 13 C2.01 12.67 1.02 12.34 0 12 C0 8.04 0 4.08 0 0 Z " fill="#E4A956" transform="translate(94,27)"/>
<path d="M0 0 C1.98 0.495 1.98 0.495 4 1 C4.08564209 1.68102783 4.17128418 2.36205566 4.25952148 3.0637207 C4.64904757 6.14705243 5.04321902 9.22977286 5.4375 12.3125 C5.57220703 13.38435547 5.70691406 14.45621094 5.84570312 15.56054688 C5.97783203 16.58857422 6.10996094 17.61660156 6.24609375 18.67578125 C6.36654053 19.62364502 6.4869873 20.57150879 6.61108398 21.5480957 C6.95172452 24.12801191 6.95172452 24.12801191 8 27 C7.34 27 6.68 27 6 27 C6 29.64 6 32.28 6 35 C5.01 35 4.02 35 3 35 C3 35.66 3 36.32 3 37 C5.31 37.33 7.62 37.66 10 38 C10 38.33 10 38.66 10 39 C7.03 39 4.06 39 1 39 C0.34 37.35 -0.32 35.7 -1 34 C-0.360625 33.79375 0.27875 33.5875 0.9375 33.375 C3.25421313 32.14966046 3.25421313 32.14966046 3.75 29.4375 C4.26769985 23.21629177 4.26769985 23.21629177 4 17 C3.34 16.34 2.68 15.68 2 15 C1.8046875 12.3984375 1.8046875 12.3984375 1.875 9.375 C1.89304687 8.37210938 1.91109375 7.36921875 1.9296875 6.3359375 C1.96449219 5.17964844 1.96449219 5.17964844 2 4 C1.01 3.67 0.02 3.34 -1 3 C-0.67 2.01 -0.34 1.02 0 0 Z " fill="#EC9B2D" transform="translate(70,7)"/>
<path d="M0 0 C1.12378052 0.00628418 1.12378052 0.00628418 2.27026367 0.01269531 C8.85420695 0.14775056 13.52230476 1.12979572 19 5.0625 C21.08692325 8.06766948 21.28544007 10.71072093 21.5625 14.3125 C20.9025 14.6425 20.2425 14.9725 19.5625 15.3125 C19.294375 14.19875 19.02625 13.085 18.75 11.9375 C17.90440981 8.09409049 17.90440981 8.09409049 14.5625 6.3125 C14.5625 5.6525 14.5625 4.9925 14.5625 4.3125 C12.41839401 4.074266 10.27409454 3.83765795 8.12890625 3.609375 C6.50780128 3.42184992 4.88944517 3.20665206 3.27734375 2.953125 C-3.46965458 1.95356969 -9.0969927 2.7874858 -15.3125 5.625 C-20.46361838 9.71559401 -21.29677832 15.15260292 -22.4375 21.3125 C-22.7675 21.3125 -23.0975 21.3125 -23.4375 21.3125 C-23.80605359 14.18713066 -22.82294541 10.22804438 -18.1875 4.5625 C-12.84188401 0.18881419 -6.63422874 -0.05046734 0 0 Z " fill="#DDAB5C" transform="translate(159.4375,0.6875)"/>
<path d="M0 0 C0.66 0 1.32 0 2 0 C2 0.66 2 1.32 2 2 C6.30322683 3.46939453 10.62297367 4.77443263 15 6 C15.66 8.64 16.32 11.28 17 14 C16.01 14 15.02 14 14 14 C13.67 14.66 13.34 15.32 13 16 C10.35139573 16.59355614 7.70802678 16.74209269 5 17 C4.67 16.01 4.34 15.02 4 14 C3.34 14 2.68 14 2 14 C2 13.34 2 12.68 2 12 C4.97 12.495 4.97 12.495 8 13 C8.66 11.35 9.32 9.7 10 8 C9.443125 7.896875 8.88625 7.79375 8.3125 7.6875 C4.02513507 6.41287799 1.48207465 4.72311198 -1 1 C-0.67 0.67 -0.34 0.34 0 0 Z " fill="#C1DDDA" transform="translate(26,46)"/>
<path d="M0 0 C0.66 0.66 1.32 1.32 2 2 C4.58354218 2.16687448 4.58354218 2.16687448 7 2 C7 2.99 7 3.98 7 5 C-0.28571429 8.42857143 -0.28571429 8.42857143 -5 8 C-4.505 8.61875 -4.01 9.2375 -3.5 9.875 C-2 12 -2 12 -2 14 C-5 13 -8 12 -11 11 C-11.99 11 -12.98 11 -14 11 C-14 10.34 -14 9.68 -14 9 C-13.34 9 -12.68 9 -12 9 C-12 8.34 -12 7.68 -12 7 C-10.35 7 -8.7 7 -7 7 C-7.66 5.68 -8.32 4.36 -9 3 C-8.030625 2.855625 -7.06125 2.71125 -6.0625 2.5625 C-3.13513227 2.32437659 -3.13513227 2.32437659 -2 1 C-1.34 0.67 -0.68 0.34 0 0 Z " fill="#AACBBD" transform="translate(55,16)"/>
<path d="M0 0 C0 0.99 0 1.98 0 3 C-0.99 3.33 -1.98 3.66 -3 4 C-2.50628906 4.55429687 -2.01257813 5.10859375 -1.50390625 5.6796875 C-0.86324219 6.40414063 -0.22257813 7.12859375 0.4375 7.875 C1.07558594 8.59429687 1.71367187 9.31359375 2.37109375 10.0546875 C4.92529437 13.10502781 5.15847032 14.96179942 5.1875 18.875 C5.20167969 19.73867188 5.21585938 20.60234375 5.23046875 21.4921875 C4.89016237 25.19518234 3.80758886 27.2705649 1.0625 29.75 C-1 31 -1 31 -4 31 C-4 30.34 -4 29.68 -4 29 C-3.38125 28.7525 -2.7625 28.505 -2.125 28.25 C0.51939985 26.69447068 1.07669938 25.92378529 2 23 C2.42161717 17.68762372 2.53159711 14.26227237 -1 10 C-2.64605826 8.96642853 -4.30963442 7.95939668 -6 7 C-6 6.34 -6 5.68 -6 5 C-7.093125 4.896875 -8.18625 4.79375 -9.3125 4.6875 C-13.05975155 3.98885988 -13.65962741 3.68602762 -16 1 C-15.09636719 1.09539063 -14.19273437 1.19078125 -13.26171875 1.2890625 C-12.08222656 1.39992188 -10.90273437 1.51078125 -9.6875 1.625 C-7.92986328 1.79902344 -7.92986328 1.79902344 -6.13671875 1.9765625 C-2.83408833 2.29448782 -2.83408833 2.29448782 0 0 Z " fill="#E4B878" transform="translate(178,16)"/>
<path d="M0 0 C0.66 0 1.32 0 2 0 C2 0.66 2 1.32 2 2 C3.2065625 2.3403125 3.2065625 2.3403125 4.4375 2.6875 C5.283125 3.120625 6.12875 3.55375 7 4 C7.8125 6.625 7.8125 6.625 8 9 C2.60490463 12.0653951 2.60490463 12.0653951 -0.3125 11.75 C-2 11 -2 11 -3 10 C-3.33 10.66 -3.66 11.32 -4 12 C-6.64 12 -9.28 12 -12 12 C-12 11.34 -12 10.68 -12 10 C-10.35 10 -8.7 10 -7 10 C-7 9.34 -7 8.68 -7 8 C-5.34385343 7.61781233 -3.67542976 7.28604898 -2 7 C-1.67 7.33 -1.34 7.66 -1 8 C0.67542976 7.71395102 2.34385343 7.38218767 4 7 C3.04287109 6.70996094 3.04287109 6.70996094 2.06640625 6.4140625 C1.24011719 6.15367188 0.41382813 5.89328125 -0.4375 5.625 C-1.26121094 5.36976562 -2.08492187 5.11453125 -2.93359375 4.8515625 C-5 4 -5 4 -6 2 C-3.69 2.33 -1.38 2.66 1 3 C0.67 2.01 0.34 1.02 0 0 Z " fill="#0E111B" transform="translate(223,57)"/>
<path d="M0 0 C-0.1546875 1.1446875 -0.1546875 1.1446875 -0.3125 2.3125 C-0.209375 3.199375 -0.10625 4.08625 0 5 C2.37612865 6.60907108 2.37612865 6.60907108 5 8 C6.1640625 10.08984375 6.1640625 10.08984375 7 12 C6.37351562 11.7834375 5.74703125 11.566875 5.1015625 11.34375 C4.28429687 11.0653125 3.46703125 10.786875 2.625 10.5 C1.81289062 10.2215625 1.00078125 9.943125 0.1640625 9.65625 C-1.94209242 8.90326695 -1.94209242 8.90326695 -4 9 C-4.33 9.99 -4.66 10.98 -5 12 C-6.32 12 -7.64 12 -9 12 C-8.814375 11.071875 -8.62875 10.14375 -8.4375 9.1875 C-7.75876119 5.98656229 -7.75876119 5.98656229 -9 3 C-8.34 2.34 -7.68 1.68 -7 1 C-6.34 1.66 -5.68 2.32 -5 3 C-4.319375 2.2575 -4.319375 2.2575 -3.625 1.5 C-2 0 -2 0 0 0 Z M-7 3 C-6 5 -6 5 -6 5 Z " fill="#111C28" transform="translate(96,57)"/>
<path d="M0 0 C0.515625 0.268125 1.03125 0.53625 1.5625 0.8125 C10.46290651 5.14859548 17.6199661 6.15295324 27.375 6.0625 C28.76525391 6.05573242 28.76525391 6.05573242 30.18359375 6.04882812 C32.45579709 6.03711574 34.72786388 6.02071372 37 6 C36.67 6.66 36.34 7.32 36 8 C24.23306933 11.66510955 12.79414676 9.56573192 2 4 C2 3.34 2 2.68 2 2 C1.34 2 0.68 2 0 2 C0 1.34 0 0.68 0 0 Z " fill="#D8A456" transform="translate(137,41)"/>
<path d="M0 0 C7.26153846 -0.61538462 7.26153846 -0.61538462 11 2.5 C11.66 3.325 12.32 4.15 13 5 C11.25 10.75 11.25 10.75 9 13 C6.0625 13.75 6.0625 13.75 3 14 C2.01 13.34 1.02 12.68 0 12 C1.11375 11.525625 2.2275 11.05125 3.375 10.5625 C5.26710994 9.74693537 7.15712709 8.92143645 9 8 C8.67 6.35 8.34 4.7 8 3 C5.03 3 2.06 3 -1 3 C-0.67 2.01 -0.34 1.02 0 0 Z " fill="#121D2B" transform="translate(143,54)"/>
<path d="M0 0 C6 6 6 6 6.4375 8.3125 C6 11 6 11 3.54296875 13.11328125 C-0.48523326 15.63336446 -4.47397311 15.73842825 -9.125 15.875 C-9.92292969 15.92140625 -10.72085938 15.9678125 -11.54296875 16.015625 C-18.66597867 16.32480406 -18.66597867 16.32480406 -22 14 C-22 13.67 -22 13.34 -22 13 C-14.41 12.67 -6.82 12.34 1 12 C1.33 11.34 1.66 10.68 2 10 C2.66 10 3.32 10 4 10 C4 8.68 4 7.36 4 6 C2.68 5.67 1.36 5.34 0 5 C0 3.35 0 1.7 0 0 Z " fill="#D2A361" transform="translate(129,34)"/>
<path d="M0 0 C-1.65 1.65 -3.3 3.3 -5 5 C-1.535 4.505 -1.535 4.505 2 4 C1.67 4.99 1.34 5.98 1 7 C-2.3 7.66 -5.6 8.32 -9 9 C-9.33 10.32 -9.66 11.64 -10 13 C-11 12 -11 12 -11.0625 9.4375 C-11.041875 8.633125 -11.02125 7.82875 -11 7 C-10.01 6.67 -9.02 6.34 -8 6 C-7.67 5.01 -7.34 4.02 -7 3 C-9.31 3 -11.62 3 -14 3 C-14 3.66 -14 4.32 -14 5 C-15.65 5 -17.3 5 -19 5 C-18 3 -18 3 -15.875 1.9375 C-10.62924775 0.22692861 -5.49050036 -0.13391464 0 0 Z " fill="#EA9C31" transform="translate(162,2)"/>
<path d="M0 0 C0.66 0 1.32 0 2 0 C2 3.3 2 6.6 2 10 C3.32 10.33 4.64 10.66 6 11 C6.33 12.32 6.66 13.64 7 15 C3.17679443 16.42258812 0.08718695 17.24042276 -4 17 C-2.68 16.34 -1.36 15.68 0 15 C-0.08378906 14.00097656 -0.16757813 13.00195312 -0.25390625 11.97265625 C-0.35574219 10.68230469 -0.45757812 9.39195313 -0.5625 8.0625 C-0.66691406 6.77472656 -0.77132812 5.48695312 -0.87890625 4.16015625 C-0.91886719 3.11730469 -0.95882812 2.07445312 -1 1 C-0.67 0.67 -0.34 0.34 0 0 Z " fill="#EE9A2D" transform="translate(92,29)"/>
<path d="M0 0 C0.99 0.33 1.98 0.66 3 1 C3.21802745 7.01998014 3.28020848 12.35948428 1 18 C0.01 18.33 -0.98 18.66 -2 19 C-1.34 20.98 -0.68 22.96 0 25 C-1.32 24.34 -2.64 23.68 -4 23 C-4.1875 20.6875 -4.1875 20.6875 -4 18 C-3.5153125 17.608125 -3.030625 17.21625 -2.53125 16.8125 C-0.15884214 14.00434376 -0.42762459 10.83531257 -0.3125 7.3125 C-0.27833984 6.61060547 -0.24417969 5.90871094 -0.20898438 5.18554688 C-0.12670053 3.45758613 -0.0616676 1.72881928 0 0 Z " fill="#E5B353" transform="translate(72,22)"/>
<path d="M0 0 C2.31 0 4.62 0 7 0 C7 4.29 7 8.58 7 13 C5.02 13 3.04 13 1 13 C1.20625 11.96875 1.4125 10.9375 1.625 9.875 C2.01194403 5.8765784 1.51883076 3.66306243 0 0 Z " fill="#252C3D" transform="translate(198,54)"/>
<path d="M0 0 C0.99 0.33 1.98 0.66 3 1 C2.34 1 1.68 1 1 1 C2.64153857 4.2075498 2.64153857 4.2075498 5.3984375 4.546875 C12.71161605 5.04593705 19.7176287 4.83928038 27 4 C26.67 4.99 26.34 5.98 26 7 C22.04180389 7.08678303 18.08385066 7.14031733 14.125 7.1875 C12.43310547 7.22520508 12.43310547 7.22520508 10.70703125 7.26367188 C9.09248047 7.27817383 9.09248047 7.27817383 7.4453125 7.29296875 C5.95281982 7.31653442 5.95281982 7.31653442 4.43017578 7.34057617 C3.62821777 7.22818604 2.82625977 7.1157959 2 7 C0 4 0 4 0 0 Z " fill="#E79B31" transform="translate(104,40)"/>
<path d="M0 0 C1.11761719 0.02707031 1.11761719 0.02707031 2.2578125 0.0546875 C4.08909701 0.10164351 5.91971649 0.17338348 7.75 0.25 C7.42 1.57 7.09 2.89 6.75 4.25 C-2.25 4.25 -2.25 4.25 -4.125 3.6875 C-7.0043146 3.09469994 -9.39643142 3.66631552 -12.25 4.25 C-8.80209491 -0.3593047 -5.36295954 -0.24635503 0 0 Z " fill="#212931" transform="translate(104.25,53.75)"/>
<path d="M0 0 C0.99 0 1.98 0 3 0 C3.12375 0.639375 3.2475 1.27875 3.375 1.9375 C3.684375 2.9584375 3.684375 2.9584375 4 4 C4.66 4.33 5.32 4.66 6 5 C5.67 7.31 5.34 9.62 5 12 C4.34 11.67 3.68 11.34 3 11 C2.566875 11.495 2.13375 11.99 1.6875 12.5 C0 14 0 14 -3 14 C-3.33 12.35 -3.66 10.7 -4 9 C-2.35 8.67 -0.7 8.34 1 8 C0.67 7.34 0.34 6.68 0 6 C-0.039992 4.00039988 -0.04346799 1.99952758 0 0 Z " fill="#2F425C" transform="translate(41,27)"/>
<path d="M0 0 C0.66 0 1.32 0 2 0 C2.06058594 0.74765625 2.12117188 1.4953125 2.18359375 2.265625 C2.26738281 3.25046875 2.35117187 4.2353125 2.4375 5.25 C2.51871094 6.22453125 2.59992187 7.1990625 2.68359375 8.203125 C2.95074584 10.56461753 3.35371968 12.71901065 4 15 C3.01 15.33 2.02 15.66 1 16 C0.773125 15.0925 0.54625 14.185 0.3125 13.25 C-1.18127977 9.55111676 -2.75400577 8.22094342 -6 6 C-5.67 5.34 -5.34 4.68 -5 4 C-4.34 3.855625 -3.68 3.71125 -3 3.5625 C-2.01 3.2840625 -2.01 3.2840625 -1 3 C-0.67 2.01 -0.34 1.02 0 0 Z " fill="#CCE3D8" transform="translate(61,5)"/>
<path d="M0 0 C0.33 0.66 0.66 1.32 1 2 C-2.40562852 2.77842938 -5.50765756 3.09978121 -9 3 C-9.33 3.99 -9.66 4.98 -10 6 C-10.66 6 -11.32 6 -12 6 C-12.33 7.32 -12.66 8.64 -13 10 C-13.66 10 -14.32 10 -15 10 C-15.25 7.75 -15.25 7.75 -15 5 C-10.52268222 -0.59664722 -6.96053044 -1.57596916 0 0 Z " fill="#AEC0BA" transform="translate(39,24)"/>
<path d="M0 0 C1.88391785 3.26545761 2.49287967 6.28111761 3 10 C3.99 10.33 4.98 10.66 6 11 C6 11.66 6 12.32 6 13 C3 14 3 14 0.3125 12.75 C-0.8321875 11.88375 -0.8321875 11.88375 -2 11 C-2 10.01 -2 9.02 -2 8 C-2.99 7.67 -3.98 7.34 -5 7 C-4.34 7 -3.68 7 -3 7 C-2.87625 6.21625 -2.7525 5.4325 -2.625 4.625 C-2 2 -2 2 0 0 Z " fill="#B6D6CA" transform="translate(37,12)"/>
<path d="M0 0 C0.6290625 0.0721875 1.258125 0.144375 1.90625 0.21875 C6.0886365 0.67226179 10.16577699 1.05662895 14.375 0.9375 C17.70333137 0.99488502 19.28407864 1.18938576 22 3 C20 5 20 5 16.91796875 5.046875 C15.68691406 4.94890625 14.45585938 4.8509375 13.1875 4.75 C11.35251953 4.61851563 11.35251953 4.61851563 9.48046875 4.484375 C6.28563648 4.03975188 3.86271741 3.46046212 1 2 C0.67 1.34 0.34 0.68 0 0 Z " fill="#A3B6B4" transform="translate(42,62)"/>
<path d="M0 0 C1.32 0.66 2.64 1.32 4 2 C3.01 2 2.02 2 1 2 C1.33 4.97 1.66 7.94 2 11 C1.34 11 0.68 11 0 11 C-0.33 11.66 -0.66 12.32 -1 13 C-1 12.34 -1 11.68 -1 11 C-1.66 11 -2.32 11 -3 11 C-3.36923077 4.6 -3.36923077 4.6 -1.5 1.5625 C-1.005 1.046875 -0.51 0.53125 0 0 Z " fill="#AECFBF" transform="translate(61,23)"/>
<path d="M0 0 C0.66 0.33 1.32 0.66 2 1 C2 1.99 2 2.98 2 4 C1.34 4 0.68 4 0 4 C0 4.99 0 5.98 0 7 C-5.30679157 8.20608899 -5.30679157 8.20608899 -8.3125 7.3125 C-10.39993284 5.68894113 -10.65660347 4.57547398 -11 2 C-6.94641576 -0.70238949 -4.81689896 -0.22937614 0 0 Z M-9 2 C-8.34 3.32 -7.68 4.64 -7 6 C-5.35 6 -3.7 6 -2 6 C-1.67 4.68 -1.34 3.36 -1 2 C-4.05263664 1.01879536 -5.94736336 1.01879536 -9 2 Z " fill="#E4AC5D" transform="translate(163,9)"/>
<path d="M0 0 C1.98 0.495 1.98 0.495 4 1 C4.66 5.62 5.32 10.24 6 15 C5.34 15 4.68 15 4 15 C3.67 15.66 3.34 16.32 3 17 C1.89771304 12.59085217 1.92345464 8.51617599 2 4 C1.01 3.67 0.02 3.34 -1 3 C-0.67 2.01 -0.34 1.02 0 0 Z " fill="#EAA936" transform="translate(70,7)"/>
<path d="M0 0 C3.96 0 7.92 0 12 0 C12.125 8.625 12.125 8.625 11 12 C10.01 12 9.02 12 8 12 C8.66 14.31 9.32 16.62 10 19 C9.01 18.67 8.02 18.34 7 18 C6.67 15.69 6.34 13.38 6 11 C7.32 10.67 8.64 10.34 10 10 C10.33 7.03 10.66 4.06 11 1 C7.37 1 3.74 1 0 1 C0 0.67 0 0.34 0 0 Z " fill="#DBAD5E" transform="translate(96,28)"/>
<path d="M0 0 C6.73358106 -0.22077315 13.52694706 -0.06916393 20 2 C22 5 22 5 21.625 7.1875 C21.315625 8.0846875 21.315625 8.0846875 21 9 C20.67 7.68 20.34 6.36 20 5 C13.35751464 3.08389845 6.88940671 2.43632909 0 2 C0 1.34 0 0.68 0 0 Z " fill="#DFB46C" transform="translate(113,1)"/>
<path d="M0 0 C0 0.99 0 1.98 0 3 C-0.99 3.33 -1.98 3.66 -3 4 C-2.34 5.65 -1.68 7.3 -1 9 C-3.475 8.01 -3.475 8.01 -6 7 C-6 6.34 -6 5.68 -6 5 C-7.093125 4.896875 -8.18625 4.79375 -9.3125 4.6875 C-13.05975155 3.98885988 -13.65962741 3.68602762 -16 1 C-15.09636719 1.09539063 -14.19273437 1.19078125 -13.26171875 1.2890625 C-12.08222656 1.39992188 -10.90273437 1.51078125 -9.6875 1.625 C-7.92986328 1.79902344 -7.92986328 1.79902344 -6.13671875 1.9765625 C-2.83408833 2.29448782 -2.83408833 2.29448782 0 0 Z " fill="#E9AF57" transform="translate(178,16)"/>
<path d="M0 0 C1.98 0.495 1.98 0.495 4 1 C3.01 1.33 2.02 1.66 1 2 C1.33 4.31 1.66 6.62 2 9 C8.08408472 9.19814261 8.08408472 9.19814261 14 8 C14 8.99 14 9.98 14 11 C9.05 11 4.1 11 -1 11 C-1.125 3.375 -1.125 3.375 0 0 Z " fill="#EDAE4F" transform="translate(95,11)"/>
<path d="M0 0 C3.63 1.32 7.26 2.64 11 4 C11 4.66 11 5.32 11 6 C12.670625 5.9690625 12.670625 5.9690625 14.375 5.9375 C18 6 18 6 20 7 C20 7.99 20 8.98 20 10 C13.06279328 8.78598882 5.71540172 6.19129459 0 2 C0 1.34 0 0.68 0 0 Z " fill="#E89D2F" transform="translate(142,26)"/>
<path d="M0 0 C0.66 0.33 1.32 0.66 2 1 C2.625 4.0625 2.625 4.0625 3 7 C0.36 7.33 -2.28 7.66 -5 8 C-5.33 7.01 -5.66 6.02 -6 5 C-6.66 5 -7.32 5 -8 5 C-8 4.34 -8 3.68 -8 3 C-5.03 3.495 -5.03 3.495 -2 4 C-1.34 2.68 -0.68 1.36 0 0 Z " fill="#C9EDE2" transform="translate(36,55)"/>
<path d="M0 0 C0.99 0.33 1.98 0.66 3 1 C3 1.66 3 2.32 3 3 C3.86625 2.835 4.7325 2.67 5.625 2.5 C11.05009285 1.69628254 14.98189634 1.63853946 20 4 C20 4.33 20 4.66 20 5 C17.93906592 5.223293 15.8761161 5.42802887 13.8125 5.625 C12.66394531 5.74101563 11.51539063 5.85703125 10.33203125 5.9765625 C6.93170605 6.00048038 4.97582572 5.59573263 2 4 C0.6875 1.875 0.6875 1.875 0 0 Z " fill="#B2CCBF" transform="translate(14,60)"/>
<path d="M0 0 C1.875 1.3125 1.875 1.3125 3 3 C2.6875 5.1875 2.6875 5.1875 2 7 C2 6.34 2 5.68 2 5 C1.34 5 0.68 5 0 5 C-0.33 3.68 -0.66 2.36 -1 1 C-1.99 1 -2.98 1 -4 1 C-4.33 1.66 -4.66 2.32 -5 3 C-5.99 3 -6.98 3 -8 3 C-7.34 5.64 -6.68 8.28 -6 11 C-8.52742845 9.10442866 -8.97169284 8.19410622 -9.4375 5 C-9 2 -9 2 -7.3125 0.0625 C-4.35300101 -1.2972698 -3.04091767 -1.09161147 0 0 Z " fill="#EA992E" transform="translate(147,32)"/>
<path d="M0 0 C0 1.32 0 2.64 0 4 C-1.98 3.34 -3.96 2.68 -6 2 C-6 2.66 -6 3.32 -6 4 C-5.34 4 -4.68 4 -4 4 C-3.67 4.99 -3.34 5.98 -3 7 C-4.98 6.34 -6.96 5.68 -9 5 C-9 4.34 -9 3.68 -9 3 C-9.66 3 -10.32 3 -11 3 C-10 1 -10 1 -8.3125 0.375 C-5.51555886 -0.07855802 -2.82858003 -0.06428591 0 0 Z " fill="#C7E0D9" transform="translate(34,56)"/>
<path d="M0 0 C3.3125 -0.3125 3.3125 -0.3125 7 0 C8.95578117 2.39740918 10 3.87586608 10 7 C7 6 4 5 1 4 C0.01 4 -0.98 4 -2 4 C-2 3.34 -2 2.68 -2 2 C-1.34 2 -0.68 2 0 2 C0 1.34 0 0.68 0 0 Z " fill="#A4BBB3" transform="translate(43,23)"/>
<path d="M0 0 C0.99 1.32 1.98 2.64 3 4 C3.33 3.34 3.66 2.68 4 2 C4 2.99 4 3.98 4 5 C5.32 5 6.64 5 8 5 C7.67 5.99 7.34 6.98 7 8 C4.6875 8.625 4.6875 8.625 2 9 C1.01 8.34 0.02 7.68 -1 7 C-0.67 4.69 -0.34 2.38 0 0 Z " fill="#1E2531" transform="translate(80,60)"/>
<path d="M0 0 C0.625 2.3125 0.625 2.3125 1 5 C0.01 6.485 0.01 6.485 -1 8 C-1.99 8 -2.98 8 -4 8 C-4.66 5.69 -5.32 3.38 -6 1 C-4 0 -4 0 0 0 Z " fill="#465162" transform="translate(42,42)"/>
<path d="M0 0 C0.13277344 0.62648437 0.26554687 1.25296875 0.40234375 1.8984375 C0.57894531 2.71570312 0.75554688 3.53296875 0.9375 4.375 C1.19853516 5.59316406 1.19853516 5.59316406 1.46484375 6.8359375 C1.92330693 9.029463 1.92330693 9.029463 3 11 C2.01 11.33 1.02 11.66 0 12 C-0.66 10.02 -1.32 8.04 -2 6 C-2.66 6 -3.32 6 -4 6 C-4 5.34 -4 4.68 -4 4 C-4.66 3.67 -5.32 3.34 -6 3 C-1.125 0 -1.125 0 0 0 Z " fill="#AAB8B0" transform="translate(25,35)"/>
<path d="M0 0 C0.33 0.66 0.66 1.32 1 2 C0.67 2.66 0.34 3.32 0 4 C-0.66 4 -1.32 4 -2 4 C-2 6.31 -2 8.62 -2 11 C-1.34 11.33 -0.68 11.66 0 12 C-0.33 12.99 -0.66 13.98 -1 15 C-1.99 15 -2.98 15 -4 15 C-5.19817822 9.55373536 -4.97908555 6.74446959 -2 2 C-1.34 1.34 -0.68 0.68 0 0 Z " fill="#E99D2D" transform="translate(142,7)"/>
<path d="M0 0 C0.53753906 0.27714844 1.07507813 0.55429687 1.62890625 0.83984375 C4.36250235 2.17736935 7.13407607 3.37820363 9.9375 4.5625 C10.95714844 4.99691406 11.97679687 5.43132813 13.02734375 5.87890625 C15.70285775 6.88793715 18.18542833 7.53867978 21 8 C21 8.33 21 8.66 21 9 C13.64576595 8.72962375 8.37848752 7.73081346 2 4 C2 3.34 2 2.68 2 2 C1.34 2 0.68 2 0 2 C0 1.34 0 0.68 0 0 Z " fill="#D7AA63" transform="translate(137,41)"/>
<path d="M0 0 C1.32 0 2.64 0 4 0 C4 0.99 4 1.98 4 3 C4.66 3 5.32 3 6 3 C5.67 3.99 5.34 4.98 5 6 C2.69 6 0.38 6 -2 6 C-1.125 1.125 -1.125 1.125 0 0 Z " fill="#BCD4C9" transform="translate(58,34)"/>
<path d="M0 0 C0.33 0 0.66 0 1 0 C1 1.65 1 3.3 1 5 C1.99 5 2.98 5 4 5 C4.66 3.35 5.32 1.7 6 0 C6.33 0 6.66 0 7 0 C7.04241723 2.33294775 7.04092937 4.66702567 7 7 C6 8 6 8 2.4375 8.0625 C1.303125 8.041875 0.16875 8.02125 -1 8 C-1.33 7.01 -1.66 6.02 -2 5 C-1.34 5 -0.68 5 0 5 C0 3.35 0 1.7 0 0 Z " fill="#192A47" transform="translate(36,28)"/>
<path d="M0 0 C1.08667969 0.29197266 1.08667969 0.29197266 2.1953125 0.58984375 C2.74960938 0.74582031 3.30390625 0.90179688 3.875 1.0625 C3.875 2.3825 3.875 3.7025 3.875 5.0625 C2.225 5.0625 0.575 5.0625 -1.125 5.0625 C-0.795 4.0725 -0.465 3.0825 -0.125 2.0625 C-2.105 2.3925 -4.085 2.7225 -6.125 3.0625 C-6.125 2.0725 -6.125 1.0825 -6.125 0.0625 C-3.57797384 -1.21101308 -2.6967055 -0.73941925 0 0 Z " fill="#1B2033" transform="translate(194.125,53.9375)"/>
<path d="M0 0 C7.24274406 0.4828496 7.24274406 0.4828496 10.5625 2.75 C12 5 12 5 11.75 7.75 C11.5025 8.4925 11.255 9.235 11 10 C10.34 9.67 9.68 9.34 9 9 C9 7.35 9 5.7 9 4 C6.03 3.01 3.06 2.02 0 1 C0 0.67 0 0.34 0 0 Z " fill="#DCA857" transform="translate(89,2)"/>
<path d="M0 0 C1.485 0.99 1.485 0.99 3 2 C3 2.99 3 3.98 3 5 C3.66 5.33 4.32 5.66 5 6 C4.34 7.65 3.68 9.3 3 11 C1.68 11 0.36 11 -1 11 C-0.814375 10.071875 -0.62875 9.14375 -0.4375 8.1875 C0.24123881 4.98656229 0.24123881 4.98656229 -1 2 C-0.67 1.34 -0.34 0.68 0 0 Z M1 2 C2 4 2 4 2 4 Z " fill="#0F161F" transform="translate(88,58)"/>
<path d="M0 0 C1.98 0.495 1.98 0.495 4 1 C3.67 3.31 3.34 5.62 3 8 C3.66 8.33 4.32 8.66 5 9 C3.33333333 9 1.66666667 9 0 9 C-1.125 2.25 -1.125 2.25 0 0 Z " fill="#0B1928" transform="translate(169,56)"/>
<path d="M0 0 C4.95 0.99 4.95 0.99 10 2 C10 2.66 10 3.32 10 4 C8.68 4 7.36 4 6 4 C5.67 4.99 5.34 5.98 5 7 C2.5 5.1875 2.5 5.1875 0 3 C0 2.01 0 1.02 0 0 Z " fill="#C7DFD6" transform="translate(55,42)"/>
<path d="M0 0 C0.99 0.33 1.98 0.66 3 1 C2.01 1.33 1.02 1.66 0 2 C0.33 4.64 0.66 7.28 1 10 C-0.65 9.01 -2.3 8.02 -4 7 C-3.6875 4.625 -3.6875 4.625 -3 2 C-2.01 1.34 -1.02 0.68 0 0 Z " fill="#E69B2D" transform="translate(108,4)"/>
<path d="M0 0 C0.33 0.474375 0.66 0.94875 1 1.4375 C4.09813267 3.85791615 7.12026792 3.68198917 11 4 C11 3.34 11 2.68 11 2 C10.34 1.67 9.68 1.34 9 1 C9.99 1 10.98 1 12 1 C12 2.32 12 3.64 12 5 C9.47946405 6.26026798 8.1457902 5.91874445 5.375 5.5625 C4.14910156 5.40974609 4.14910156 5.40974609 2.8984375 5.25390625 C1.95871094 5.12822266 1.95871094 5.12822266 1 5 C0.67 3.35 0.34 1.7 0 0 Z " fill="#E3B062" transform="translate(150,35)"/>
<path d="M0 0 C6.18160604 0.53753096 11.326858 2.54582388 17 5 C13.30581799 6.231394 10.7943739 5.64432764 7 5 C7 4.34 7 3.68 7 3 C4.69 2.34 2.38 1.68 0 1 C0 0.67 0 0.34 0 0 Z " fill="#ECAD51" transform="translate(142,30)"/>
<path d="M0 0 C0.66 0.66 1.32 1.32 2 2 C4.06874034 2.6425235 4.06874034 2.6425235 6 3 C6 3.66 6 4.32 6 5 C4.35 5.66 2.7 6.32 1 7 C0.67 6.01 0.34 5.02 0 4 C-1.98 4 -3.96 4 -6 4 C-3 2 -3 2 0 2 C0 1.34 0 0.68 0 0 Z " fill="#AEC1C0" transform="translate(41,48)"/>
<path d="M0 0 C1.65 0 3.3 0 5 0 C5.93065133 2.60582371 6.14917407 3.64198224 5.0625 6.25 C4.5365625 7.11625 4.5365625 7.11625 4 8 C1 6 1 6 0.3125 2.875 C0.209375 1.92625 0.10625 0.9775 0 0 Z " fill="#101C2A" transform="translate(106,58)"/>
<path d="M0 0 C1.875 0.125 1.875 0.125 4 1 C5.75 3.5625 5.75 3.5625 7 6 C5.02 6 3.04 6 1 6 C0.34 4.35 -0.32 2.7 -1 1 C-0.67 0.67 -0.34 0.34 0 0 Z " fill="#B9DBD2" transform="translate(54,45)"/>
<path d="M0 0 C1.98 0.495 1.98 0.495 4 1 C4 2.65 4 4.3 4 6 C3.34 6 2.68 6 2 6 C1.67 7.32 1.34 8.64 1 10 C1 8.68 1 7.36 1 6 C0.34 5.67 -0.32 5.34 -1 5 C-0.67 3.35 -0.34 1.7 0 0 Z " fill="#BDD6C8" transform="translate(38,5)"/>
<path d="M0 0 C0.66 0 1.32 0 2 0 C1.34 2.97 0.68 5.94 0 9 C-4 7 -4 7 -5 4 C-4.34 3.34 -3.68 2.68 -3 2 C-2.01 2 -1.02 2 0 2 C0 1.34 0 0.68 0 0 Z " fill="#CFE8E1" transform="translate(46,8)"/>
<path d="M0 0 C2.64 0 5.28 0 8 0 C8.66 1.32 9.32 2.64 10 4 C8.1875 4.6875 8.1875 4.6875 6 5 C4.4375 3.6875 4.4375 3.6875 3 2 C2.01 1.34 1.02 0.68 0 0 Z " fill="#131722" transform="translate(221,54)"/>
<path d="M0 0 C0.66 0.99 1.32 1.98 2 3 C1.01 3.495 1.01 3.495 0 4 C0 4.99 0 5.98 0 7 C-1.65 7 -3.3 7 -5 7 C-4.67 5.35 -4.34 3.7 -4 2 C-2.68 2 -1.36 2 0 2 C0 1.34 0 0.68 0 0 Z " fill="#D9F0E3" transform="translate(16,34)"/>
<path d="M0 0 C0.99 0.33 1.98 0.66 3 1 C3.08096803 2.45742463 3.13917774 3.91612807 3.1875 5.375 C3.22230469 6.18710937 3.25710937 6.99921875 3.29296875 7.8359375 C3.19628906 8.55007812 3.09960938 9.26421875 3 10 C2.01 10.66 1.02 11.32 0 12 C0 8.04 0 4.08 0 0 Z " fill="#DA9D4D" transform="translate(72,22)"/>
<path d="M0 0 C0.99 0.33 1.98 0.66 3 1 C1.68 2.65 0.36 4.3 -1 6 C-0.34 7.32 0.32 8.64 1 10 C-0.65 9.01 -2.3 8.02 -4 7 C-2.92598892 4.08482708 -2.22189824 2.22189824 0 0 Z " fill="#D8B274" transform="translate(71,3)"/>
<path d="M0 0 C1.98 0.495 1.98 0.495 4 1 C4.33 2.32 4.66 3.64 5 5 C3.02 5 1.04 5 -1 5 C-0.67 3.35 -0.34 1.7 0 0 Z " fill="#232936" transform="translate(71,62)"/>
<path d="M0 0 C4 4.75 4 4.75 4 7 C2.02 7 0.04 7 -2 7 C-1.34 4.69 -0.68 2.38 0 0 Z " fill="#1F2533" transform="translate(201,60)"/>
<path d="M0 0 C1.4540625 0.0309375 1.4540625 0.0309375 2.9375 0.0625 C1.9375 3.0625 1.9375 3.0625 -0.0625 5.0625 C-0.0625 5.7225 -0.0625 6.3825 -0.0625 7.0625 C-0.7225 7.0625 -1.3825 7.0625 -2.0625 7.0625 C-2.0625 5.4125 -2.0625 3.7625 -2.0625 2.0625 C-2.7225 1.7325 -3.3825 1.4025 -4.0625 1.0625 C-3.0625 0.0625 -3.0625 0.0625 0 0 Z " fill="#212835" transform="translate(159.0625,53.9375)"/>
<path d="M0 0 C2.64 0 5.28 0 8 0 C8 1.32 8 2.64 8 4 C6.02 4 4.04 4 2 4 C2 3.34 2 2.68 2 2 C1.34 1.34 0.68 0.68 0 0 Z " fill="#EE9C39" transform="translate(98,22)"/>
<path d="M0 0 C-0.33 0.99 -0.66 1.98 -1 3 C-3.8125 3.625 -3.8125 3.625 -7 4 C-7.99 3.34 -8.98 2.68 -10 2 C-6.38026598 0.68373308 -3.90432869 0 0 0 Z " fill="#222D38" transform="translate(153,64)"/>
<path d="M0 0 C3.3 0.33 6.6 0.66 10 1 C10.33 1.99 10.66 2.98 11 4 C9.54054712 3.91291331 8.08234132 3.80473093 6.625 3.6875 C5.81289063 3.62949219 5.00078125 3.57148437 4.1640625 3.51171875 C2 3 2 3 0 0 Z " fill="#ACC4BF" transform="translate(42,62)"/>
<path d="M0 0 C2.49060705 2.49060705 3.08717042 4.62955233 4 8 C3.67 8.66 3.34 9.32 3 10 C2.34 10 1.68 10 1 10 C-1.125 3.375 -1.125 3.375 0 0 Z " fill="#C4D5CF" transform="translate(61,11)"/>
<path d="M0 0 C0.625 1.8125 0.625 1.8125 1 4 C0.01 5.485 0.01 5.485 -1 7 C-2.65 6.67 -4.3 6.34 -6 6 C-4.625 4.5 -4.625 4.5 -3 3 C-2.34 3 -1.68 3 -1 3 C-0.67 2.01 -0.34 1.02 0 0 Z " fill="#C3D5D0" transform="translate(51,45)"/>
<path d="M0 0 C1.32 0.66 2.64 1.32 4 2 C3.01 2 2.02 2 1 2 C1.33 3.65 1.66 5.3 2 7 C0.35 6.67 -1.3 6.34 -3 6 C-1.125 1.125 -1.125 1.125 0 0 Z " fill="#A5BBB0" transform="translate(61,23)"/>
<path d="M0 0 C0.66 0 1.32 0 2 0 C2 0.66 2 1.32 2 2 C4.475 2.99 4.475 2.99 7 4 C6.67 4.66 6.34 5.32 6 6 C3.11424181 5.60196439 2.17810487 5.20990931 0.25 2.9375 C-0.1625 2.298125 -0.575 1.65875 -1 1 C-0.67 0.67 -0.34 0.34 0 0 Z " fill="#C4D1CB" transform="translate(26,46)"/>
<path d="M0 0 C0.99 0.99 1.98 1.98 3 3 C2.01 4.485 2.01 4.485 1 6 C-1.1640625 6.29296875 -1.1640625 6.29296875 -3.625 6.1875 C-4.44226563 6.16042969 -5.25953125 6.13335937 -6.1015625 6.10546875 C-7.04128906 6.05326172 -7.04128906 6.05326172 -8 6 C-8 5.67 -8 5.34 -8 5 C-5.36 4.67 -2.72 4.34 0 4 C0 2.68 0 1.36 0 0 Z " fill="#EBA23A" transform="translate(162,36)"/>
<path d="M0 0 C0.33 0.66 0.66 1.32 1 2 C1.66 2.33 2.32 2.66 3 3 C2.34 3 1.68 3 1 3 C1.33 4.32 1.66 5.64 2 7 C0.02 7.99 0.02 7.99 -2 9 C-2 7.02 -2 5.04 -2 3 C-1.34 3 -0.68 3 0 3 C0 2.01 0 1.02 0 0 Z " fill="#C3E1D3" transform="translate(18,24)"/>
<path d="M0 0 C1.9375 1.0625 1.9375 1.0625 4 3 C4.75 6.6875 4.75 6.6875 5 10 C4.01 10.495 4.01 10.495 3 11 C0.85714286 3.57142857 0.85714286 3.57142857 0 0 Z " fill="#D4AC6A" transform="translate(176,5)"/>
<path d="M0 0 C0.99 0.33 1.98 0.66 3 1 C4.99961564 1.03920815 7.00049364 1.04443347 9 1 C8.34 2.32 7.68 3.64 7 5 C4.69 4.01 2.38 3.02 0 2 C0 1.34 0 0.68 0 0 Z " fill="#212931" transform="translate(170,64)"/>
<path d="M0 0 C1.98 0 3.96 0 6 0 C5.67 1.32 5.34 2.64 5 4 C3.68 4 2.36 4 1 4 C0.67 2.68 0.34 1.36 0 0 Z " fill="#1D2E3B" transform="translate(106,54)"/>
<path d="M0 0 C1.5625 1.8125 1.5625 1.8125 3 4 C2.67 4.99 2.34 5.98 2 7 C0.68 6.34 -0.64 5.68 -2 5 C-2 4.01 -2 3.02 -2 2 C-1.34 2 -0.68 2 0 2 C0 1.34 0 0.68 0 0 Z " fill="#111A28" transform="translate(187,60)"/>
<path d="M0 0 C2.97 0.495 2.97 0.495 6 1 C5.0409375 1.433125 5.0409375 1.433125 4.0625 1.875 C1.84793921 2.82823451 1.84793921 2.82823451 1 5 C0.01 4.01 -0.98 3.02 -2 2 C-1.34 2 -0.68 2 0 2 C0 1.34 0 0.68 0 0 Z " fill="#161923" transform="translate(212,60)"/>
<path d="M0 0 C1.65 0.33 3.3 0.66 5 1 C5.33 2.32 5.66 3.64 6 5 C3.03 4.505 3.03 4.505 0 4 C0 2.68 0 1.36 0 0 Z " fill="#ABD7CC" transform="translate(47,59)"/>
<path d="M0 0 C2.475 0.495 2.475 0.495 5 1 C5 2.32 5 3.64 5 5 C3.68 4.67 2.36 4.34 1 4 C0.67 2.68 0.34 1.36 0 0 Z " fill="#192438" transform="translate(123,54)"/>
<path d="M0 0 C0.99 0.33 1.98 0.66 3 1 C3.125 4.375 3.125 4.375 3 8 C2.34 8.66 1.68 9.32 1 10 C0.67 6.7 0.34 3.4 0 0 Z " fill="#BAD1C6" transform="translate(20,46)"/>
<path d="M0 0 C1.2065625 0.0309375 1.2065625 0.0309375 2.4375 0.0625 C1.4375 3.0625 1.4375 3.0625 -0.625 4.25 C-1.264375 4.518125 -1.90375 4.78625 -2.5625 5.0625 C-3.125 3.125 -3.125 3.125 -3.5625 1.0625 C-2.5625 0.0625 -2.5625 0.0625 0 0 Z " fill="#132037" transform="translate(185.5625,58.9375)"/>
<path d="M0 0 C2.64 0 5.28 0 8 0 C7.67 0.66 7.34 1.32 7 2 C4.35139573 2.59355614 1.70802678 2.74209269 -1 3 C-0.67 2.01 -0.34 1.02 0 0 Z " fill="#232B39" transform="translate(143,54)"/>
<path d="M0 0 C0 0.66 0 1.32 0 2 C-3.375 2.625 -3.375 2.625 -7 3 C-7.66 2.34 -8.32 1.68 -9 1 C-6.04335481 -0.4783226 -3.25770263 -0.06032783 0 0 Z " fill="#292E38" transform="translate(179,54)"/>
<path d="M0 0 C1.2065625 0.0309375 1.2065625 0.0309375 2.4375 0.0625 C2.1075 0.7225 1.7775 1.3825 1.4375 2.0625 C0.7775 2.0625 0.1175 2.0625 -0.5625 2.0625 C-0.8925 3.3825 -1.2225 4.7025 -1.5625 6.0625 C-2.2225 6.0625 -2.8825 6.0625 -3.5625 6.0625 C-3.605221 4.39638095 -3.60313832 2.72867115 -3.5625 1.0625 C-2.5625 0.0625 -2.5625 0.0625 0 0 Z " fill="#A5BBAB" transform="translate(27.5625,27.9375)"/>
<path d="M0 0 C4.875 3.625 4.875 3.625 6 7 C4.68 7 3.36 7 2 7 C2 6.01 2 5.02 2 4 C1.34 4 0.68 4 0 4 C0 2.68 0 1.36 0 0 Z " fill="#B2DBC7" transform="translate(42,16)"/>
<path d="M0 0 C-0.33 1.32 -0.66 2.64 -1 4 C-2.98 3.34 -4.96 2.68 -7 2 C-5.26578631 -1.46842738 -3.40984787 -1.13661596 0 0 Z " fill="#1C2940" transform="translate(162,65)"/>
<path d="M0 0 C1.134375 0.020625 2.26875 0.04125 3.4375 0.0625 C3.4375 0.7225 3.4375 1.3825 3.4375 2.0625 C1.125 2.6875 1.125 2.6875 -1.5625 3.0625 C-2.5525 2.4025 -3.5425 1.7425 -4.5625 1.0625 C-3.5625 0.0625 -3.5625 0.0625 0 0 Z " fill="#C2DFD6" transform="translate(35.5625,61.9375)"/>
<path d="M0 0 C0.66 0.33 1.32 0.66 2 1 C2.625 4.0625 2.625 4.0625 3 7 C1.68 6.67 0.36 6.34 -1 6 C-1 3 -1 3 0 0 Z " fill="#D5F3EE" transform="translate(36,55)"/>
<path d="M0 0 C-0.33 0.66 -0.66 1.32 -1 2 C-4.0625 2.625 -4.0625 2.625 -7 3 C-7 2.01 -7 1.02 -7 0 C-4.3333581 -1.33332095 -2.83319697 -0.67102033 0 0 Z " fill="#252B34" transform="translate(195,54)"/>
<path d="M0 0 C0.99 0.33 1.98 0.66 3 1 C3.33 2.65 3.66 4.3 4 6 C2.02 5.01 0.04 4.02 -2 3 C-2 2.34 -2 1.68 -2 1 C-1.34 0.67 -0.68 0.34 0 0 Z " fill="#CBDED4" transform="translate(12,45)"/>
<path d="M0 0 C0 1.65 0 3.3 0 5 C-2.97 4.505 -2.97 4.505 -6 4 C-1.125 0 -1.125 0 0 0 Z " fill="#AAC4B6" transform="translate(25,35)"/>
<path d="M0 0 C0.66 0.33 1.32 0.66 2 1 C1.01 1 0.02 1 -1 1 C-0.67 0.67 -0.34 0.34 0 0 Z " fill="#0C1717" transform="translate(183,65)"/>
<path d="M0 0 C2 1 2 1 2 1 Z " fill="#000000" transform="translate(227,68)"/>
<path d="M0 0 C2 1 2 1 2 1 Z " fill="#000000" transform="translate(189,68)"/>
<path d="M0 0 C2 1 2 1 2 1 Z " fill="#000000" transform="translate(179,68)"/>
<path d="M0 0 C2 1 2 1 2 1 Z " fill="#000000" transform="translate(91,67)"/>
<path d="M0 0 C2 1 2 1 2 1 Z " fill="#000000" transform="translate(175,57)"/>
<path d="" fill="#000000" transform="translate(0,0)"/>
<path d="" fill="#000000" transform="translate(0,0)"/>
<path d="" fill="#2A2A2A" transform="translate(0,0)"/>
<path d="" fill="#000000" transform="translate(0,0)"/>
<path d="" fill="#000000" transform="translate(0,0)"/>
<path d="" fill="#000000" transform="translate(0,0)"/>
<path d="" fill="#000000" transform="translate(0,0)"/>
<path d="" fill="#000000" transform="translate(0,0)"/>
<path d="" fill="#000000" transform="translate(0,0)"/>
<path d="" fill="#000000" transform="translate(0,0)"/>
<path d="" fill="#000000" transform="translate(0,0)"/>
<path d="" fill="#000000" transform="translate(0,0)"/>
<path d="" fill="#000000" transform="translate(0,0)"/>
<path d="" fill="#333333" transform="translate(0,0)"/>
<path d="" fill="#000000" transform="translate(0,0)"/>
<path d="" fill="#000000" transform="translate(0,0)"/>
<path d="" fill="#000000" transform="translate(0,0)"/>
<path d="" fill="#000000" transform="translate(0,0)"/>
<path d="" fill="#000000" transform="translate(0,0)"/>
<path d="" fill="#000000" transform="translate(0,0)"/>
<path d="" fill="#000000" transform="translate(0,0)"/>
<path d="" fill="#000000" transform="translate(0,0)"/>
<path d="" fill="#000000" transform="translate(0,0)"/>
<path d="" fill="#000000" transform="translate(0,0)"/>
<path d="" fill="#000055" transform="translate(0,0)"/>
<path d="" fill="#000000" transform="translate(0,0)"/>
<path d="" fill="#000055" transform="translate(0,0)"/>
<path d="" fill="#000040" transform="translate(0,0)"/>
<path d="" fill="#000000" transform="translate(0,0)"/>
<path d="" fill="#000000" transform="translate(0,0)"/>
<path d="" fill="#000000" transform="translate(0,0)"/>
<path d="" fill="#000000" transform="translate(0,0)"/>
<path d="" fill="#000000" transform="translate(0,0)"/>
<path d="" fill="#000000" transform="translate(0,0)"/>
<path d="" fill="#000000" transform="translate(0,0)"/>
<path d="" fill="#000000" transform="translate(0,0)"/>
<path d="" fill="#000000" transform="translate(0,0)"/>
<path d="" fill="#000033" transform="translate(0,0)"/>
<path d="" fill="#000000" transform="translate(0,0)"/>
<path d="" fill="#002A2A" transform="translate(0,0)"/>
<path d="" fill="#000000" transform="translate(0,0)"/>
<path d="" fill="#000000" transform="translate(0,0)"/>
<path d="" fill="#000000" transform="translate(0,0)"/>
<path d="" fill="#1C1C1C" transform="translate(0,0)"/>
<path d="" fill="#000000" transform="translate(0,0)"/>
<path d="" fill="#000000" transform="translate(0,0)"/>
<path d="" fill="#000000" transform="translate(0,0)"/>
<path d="" fill="#80FFFF" transform="translate(0,0)"/>
<path d="" fill="#BFBFBF" transform="translate(0,0)"/>
<path d="" fill="#FFFFFF" transform="translate(0,0)"/>
<path d="" fill="#BFBFBF" transform="translate(0,0)"/>
</svg>
